<svg width="248" height="248" viewBox="0 0 248 248" fill="none" xmlns="http://www.w3.org/2000/svg">
<rect width="248" height="248" fill="white"/>
<g clip-path="url(#clip0_33_126)">
<path d="M228.229 87.7988H45.1109C43.41 87.8008 41.7793 88.476 40.5766 89.6763C39.3738 90.8765 38.6972 92.5039 38.6952 94.2013V190.597C38.6938 192.228 39.3192 193.798 40.4426 194.982C40.5557 195.104 40.6745 195.219 40.7961 195.327C41.9731 196.405 43.5132 197.002 45.1109 197H228.229C229.93 196.998 231.56 196.323 232.763 195.122C233.966 193.922 234.642 192.295 234.644 190.597C239.119 158.621 239.119 126.178 234.644 94.2012C234.642 92.5038 233.966 90.8765 232.763 89.6763C231.56 88.476 229.93 87.8008 228.229 87.7988Z" fill="#D8E6F0"/>
<path d="M219.746 77.6405H36.6282C34.9273 77.6425 33.2966 78.3178 32.0939 79.518C30.8912 80.7183 30.2146 82.3456 30.2125 84.043V180.439C30.2112 182.07 30.8366 183.64 31.96 184.824C32.0731 184.946 32.1918 185.061 32.3134 185.168C33.4904 186.247 35.0306 186.844 36.6282 186.842H219.746C221.447 186.84 223.078 186.165 224.28 184.964C225.483 183.764 226.16 182.137 226.162 180.439V84.043C226.16 82.3456 225.483 80.7183 224.28 79.518C223.078 78.3178 221.447 77.6425 219.746 77.6405Z" fill="white"/>
<path d="M144.457 141.88C144.325 141.886 144.195 141.852 144.084 141.781C143.973 141.711 143.886 141.609 143.835 141.487C143.785 141.366 143.772 141.233 143.8 141.104C143.828 140.976 143.895 140.859 143.992 140.77L144.036 140.596C144.03 140.582 144.024 140.568 144.018 140.554C143.886 140.242 143.664 139.976 143.38 139.789C143.097 139.602 142.765 139.503 142.425 139.505C142.085 139.506 141.754 139.607 141.472 139.796C141.19 139.985 140.97 140.253 140.84 140.566C140.32 141.815 139.658 143.067 139.495 144.388C139.423 144.972 139.453 145.564 139.584 146.138C138.363 143.48 137.729 140.591 137.725 137.667C137.725 136.933 137.766 136.2 137.848 135.47C137.915 134.873 138.009 134.279 138.129 133.69C138.783 130.492 140.188 127.496 142.229 124.945C143.216 124.408 144.015 123.581 144.517 122.576C144.699 122.215 144.828 121.829 144.899 121.431C144.787 121.446 144.479 119.753 144.563 119.649C144.408 119.414 144.13 119.297 143.96 119.068C143.117 117.927 141.955 118.126 141.349 119.676C140.053 120.329 140.04 121.411 140.835 122.452C141.341 123.114 141.411 124.01 141.854 124.719C141.809 124.778 141.761 124.834 141.716 124.892C140.881 125.963 140.154 127.114 139.544 128.326C139.692 126.968 139.515 125.593 139.027 124.317C138.533 123.127 137.607 122.124 136.791 121.096C136.575 120.819 136.282 120.613 135.949 120.503C135.615 120.393 135.257 120.383 134.918 120.477C134.58 120.57 134.277 120.761 134.047 121.026C133.817 121.291 133.672 121.618 133.628 121.966C133.627 121.981 133.625 121.996 133.623 122.011C133.745 122.079 133.863 122.152 133.979 122.228C134.125 122.326 134.238 122.464 134.303 122.627C134.369 122.789 134.384 122.968 134.346 123.138C134.308 123.309 134.219 123.465 134.091 123.584C133.963 123.704 133.802 123.782 133.628 123.809L133.611 123.812C133.654 124.248 133.73 124.68 133.839 125.104C132.792 129.143 135.052 130.615 138.279 130.681C138.35 130.717 138.419 130.754 138.49 130.788C137.878 132.521 137.493 134.326 137.347 136.157C137.264 137.238 137.269 138.324 137.362 139.403L137.356 139.365C137.123 138.164 136.481 137.081 135.539 136.298C134.141 135.151 132.165 134.729 130.657 133.808C130.496 133.705 130.31 133.65 130.119 133.65C129.929 133.649 129.742 133.703 129.581 133.805C129.42 133.907 129.292 134.053 129.212 134.225C129.131 134.397 129.101 134.589 129.126 134.778L129.133 134.818C129.358 134.909 129.576 135.015 129.788 135.133C129.909 135.201 130.028 135.274 130.144 135.35C130.29 135.448 130.403 135.587 130.468 135.749C130.534 135.911 130.548 136.09 130.51 136.261C130.472 136.431 130.384 136.587 130.256 136.707C130.128 136.826 129.967 136.904 129.793 136.931L129.775 136.934C129.763 136.936 129.752 136.938 129.739 136.939C130.123 137.855 130.663 138.698 131.333 139.431C131.988 142.957 134.799 143.292 137.806 142.265H137.807C138.137 143.695 138.615 145.088 139.234 146.42H144.329C144.347 146.364 144.364 146.305 144.38 146.249C143.909 146.278 143.435 146.25 142.97 146.165C143.348 145.702 143.726 145.235 144.104 144.773C144.113 144.764 144.121 144.755 144.128 144.745C144.32 144.508 144.514 144.273 144.705 144.036L144.705 144.036C144.716 143.31 144.632 142.585 144.457 141.88Z" fill="#D8E6F0"/>
<path d="M226.162 150.724V160.969C226.16 162.667 225.483 164.294 224.28 165.494C223.078 166.695 221.447 167.37 219.746 167.372H36.6282C35.0306 167.374 33.4904 166.777 32.3134 165.698C32.1918 165.591 32.0731 165.476 31.96 165.354C30.8366 164.17 30.2112 162.6 30.2125 160.969V150.724C85.9581 141.536 154.515 144.646 226.162 150.724Z" fill="#667C97"/>
<path d="M226.162 162.01V172.256C226.16 173.954 225.483 175.581 224.28 176.781C223.078 177.981 221.447 178.657 219.746 178.659H36.6282C35.0306 178.661 33.4904 178.064 32.3134 176.985C32.1918 176.878 32.0731 176.762 31.96 176.641C30.8366 175.457 30.2112 173.887 30.2125 172.256V162.01C81.524 155.158 151.35 157.365 226.162 162.01Z" fill="white"/>
<path d="M226.162 170.194V180.439C226.16 182.137 225.483 183.764 224.28 184.964C223.078 186.165 221.447 186.84 219.746 186.842H36.6282C35.0306 186.844 33.4904 186.247 32.3134 185.168C32.1918 185.061 32.0731 184.946 31.96 184.824C30.8366 183.64 30.2112 182.07 30.2125 180.439V170.194C85.7317 164.44 153.373 165.805 226.162 170.194Z" fill="#667C97"/>
<path d="M210.904 140.469C210.773 140.475 210.643 140.441 210.531 140.371C210.42 140.3 210.333 140.198 210.283 140.077C210.232 139.955 210.22 139.822 210.248 139.693C210.276 139.565 210.342 139.448 210.439 139.359L210.483 139.185C210.477 139.171 210.471 139.157 210.466 139.143C210.333 138.831 210.111 138.565 209.828 138.378C209.544 138.192 209.212 138.093 208.872 138.094C208.533 138.095 208.201 138.196 207.919 138.385C207.637 138.574 207.417 138.842 207.287 139.155C206.767 140.404 206.105 141.656 205.942 142.977C205.871 143.561 205.901 144.153 206.032 144.727C204.811 142.069 204.177 139.18 204.173 136.256C204.172 135.522 204.213 134.789 204.295 134.06C204.363 133.462 204.456 132.868 204.576 132.279C205.231 129.082 206.636 126.085 208.676 123.534C209.664 122.997 210.462 122.17 210.965 121.165C211.146 120.804 211.275 120.419 211.346 120.021C211.235 120.035 210.926 118.342 211.01 118.238C210.855 118.003 210.577 117.886 210.408 117.657C209.564 116.516 208.402 116.715 207.796 118.266C206.5 118.918 206.488 120 207.283 121.041C207.789 121.703 207.858 122.599 208.302 123.308C208.256 123.367 208.209 123.423 208.163 123.482C207.328 124.553 206.601 125.703 205.991 126.915C206.14 125.557 205.963 124.183 205.475 122.906C204.98 121.716 204.054 120.713 203.238 119.685C203.022 119.408 202.729 119.202 202.396 119.092C202.063 118.982 201.704 118.973 201.366 119.066C201.027 119.159 200.724 119.35 200.494 119.615C200.265 119.88 200.119 120.207 200.076 120.555C200.074 120.57 200.072 120.585 200.071 120.6C200.192 120.668 200.311 120.741 200.427 120.817C200.573 120.915 200.686 121.054 200.751 121.216C200.816 121.378 200.831 121.557 200.793 121.728C200.755 121.898 200.666 122.054 200.538 122.173C200.41 122.293 200.249 122.371 200.076 122.398L200.058 122.401C200.101 122.837 200.178 123.269 200.286 123.693C199.24 127.733 201.499 129.204 204.726 129.27C204.797 129.306 204.867 129.343 204.938 129.377C204.325 131.11 203.941 132.915 203.795 134.747C203.712 135.827 203.717 136.913 203.809 137.993L203.804 137.954C203.57 136.754 202.928 135.67 201.987 134.887C200.588 133.741 198.613 133.318 197.104 132.397C196.944 132.294 196.757 132.239 196.567 132.239C196.376 132.238 196.189 132.292 196.029 132.394C195.868 132.496 195.739 132.642 195.659 132.814C195.578 132.987 195.549 133.178 195.574 133.367L195.58 133.407C195.805 133.498 196.024 133.604 196.236 133.722C196.357 133.791 196.475 133.863 196.592 133.94C196.737 134.037 196.85 134.176 196.916 134.338C196.981 134.501 196.996 134.679 196.958 134.85C196.92 135.021 196.831 135.176 196.703 135.296C196.575 135.415 196.414 135.494 196.241 135.52L196.223 135.523C196.21 135.525 196.199 135.527 196.186 135.528C196.571 136.444 197.11 137.287 197.781 138.02C198.435 141.546 201.246 141.881 204.253 140.854H204.255C204.585 142.285 205.063 143.677 205.681 145.009H210.776C210.795 144.953 210.811 144.894 210.828 144.838C210.356 144.867 209.882 144.839 209.418 144.754C209.796 144.291 210.174 143.825 210.552 143.362C210.56 143.353 210.568 143.344 210.576 143.334C210.767 143.097 210.961 142.862 211.153 142.625L211.153 142.625C211.163 141.899 211.079 141.174 210.904 140.469Z" fill="#D8E6F0"/>
<path d="M207.651 152.142C207.651 152.234 207.649 152.326 207.648 152.417H189.011C188.585 152.417 188.163 152.33 187.772 152.161C187.381 151.992 187.029 151.744 186.737 151.434C186.744 151.304 186.755 151.177 186.769 151.049C187.317 145.793 194.171 137.871 197.182 141.694C200.192 145.517 207.651 146.372 207.651 152.142Z" fill="#667C97"/>
<path d="M217.569 152.225C217.57 152.289 217.568 152.353 217.567 152.417H204.577C204.28 152.417 203.986 152.356 203.713 152.238C203.441 152.12 203.195 151.948 202.992 151.731C202.997 151.641 203.004 151.552 203.014 151.463C203.396 147.8 209.19 141.336 210.272 144.943C213.029 154.135 217.512 148.611 217.569 152.225Z" fill="#667C97"/>
<path d="M219.746 77.6405H36.6282C34.9273 77.6425 33.2966 78.3178 32.0939 79.518C30.8912 80.7183 30.2146 82.3456 30.2125 84.043V180.439C30.2112 182.07 30.8366 183.64 31.96 184.824C32.0731 184.946 32.1918 185.061 32.3134 185.168C33.4904 186.247 35.0306 186.844 36.6282 186.842H219.746C221.447 186.84 223.078 186.164 224.28 184.964C225.483 183.764 226.16 182.137 226.162 180.439C234.958 155.654 231.865 120.939 226.162 84.043C226.16 82.3456 225.483 80.7183 224.28 79.518C223.078 78.3178 221.447 77.6426 219.746 77.6405ZM225.596 149.448C225.596 159.216 221.708 168.584 214.787 175.49C207.866 182.397 198.479 186.277 188.691 186.277H36.6282C35.2527 186.28 33.9211 185.795 32.8704 184.909C32.5598 184.646 32.2766 184.353 32.025 184.034C31.215 183.01 30.7756 181.744 30.778 180.439V84.043C30.778 82.4946 31.3944 81.0097 32.4915 79.9148C33.5886 78.8199 35.0767 78.2049 36.6282 78.2049H171.11C201.202 78.2049 225.596 102.549 225.596 132.579V149.448Z" fill="#667C97"/>
<path d="M71.54 173.564C71.5415 173.664 71.5386 173.763 71.5371 173.862H51.3392C50.8772 173.862 50.42 173.768 49.996 173.584C49.572 173.401 49.1902 173.133 48.8744 172.796C48.8819 172.656 48.8938 172.518 48.9087 172.379C49.5029 166.684 55.3868 165.596 60.1938 162.241C65.6033 158.466 71.4417 166.878 71.54 173.564Z" fill="#667C97"/>
<path d="M76.0189 171.121C75.9758 171.176 76.0179 171.26 76.0168 171.329H61.9387C61.6167 171.329 61.298 171.263 61.0025 171.136C60.7069 171.008 60.4409 170.821 60.2207 170.586C60.2259 170.489 60.2342 170.392 60.2446 170.296C60.6588 166.326 64.0236 163.347 68.1104 163.229C75.7291 163.01 79.6469 166.518 76.0189 171.121Z" fill="#667C97"/>
<path d="M78.0434 148.733C78.0434 148.832 78.0419 148.932 78.0404 149.03H57.8425C57.3805 149.031 56.9233 148.936 56.4993 148.753C56.0753 148.57 55.6935 148.302 55.3777 147.965C55.3851 147.825 55.3971 147.687 55.412 147.548C56.0062 141.852 62.4211 140.025 66.6971 137.41C70.9731 134.794 78.0434 142.48 78.0434 148.733Z" fill="#667C97"/>
<path d="M82.5222 146.29C82.5152 146.359 82.5145 146.429 82.5201 146.498H68.442C68.12 146.498 67.8013 146.432 67.5058 146.304C67.2102 146.177 66.9441 145.99 66.724 145.755C66.7292 145.658 66.7375 145.561 66.7479 145.464C67.1621 141.494 70.7472 139.724 74.6137 138.398C80.9996 136.207 83.6394 140.719 82.5222 146.29Z" fill="#667C97"/>
<path d="M92.1358 150.234C92.1394 150.303 92.1388 150.372 92.1338 150.441H78.0557C77.7336 150.442 77.4149 150.376 77.1194 150.248C76.8239 150.12 76.5578 149.933 76.3376 149.699C76.3428 149.601 76.3512 149.505 76.3616 149.408C76.7757 145.438 81.3737 145.263 84.2274 142.341C86.8711 139.634 91.559 144.969 92.1358 150.234Z" fill="#667C97"/>
<path d="M174.7 117.709H169.045V186.842H174.7V117.709Z" fill="#667C97"/>
<path d="M212.047 86.7378C211.837 82.6576 210.446 78.5604 207.712 75.5214C206.519 74.1952 201.474 71.0856 199.865 70.304C200.476 65.5099 203.762 62.7446 201.358 58.6446C198.308 53.4441 191.943 50.3938 185.968 51.2714C183.83 51.5964 181.788 52.3821 179.985 53.5739C177.921 51.7736 175.096 50.6675 172.345 50.2471C163.679 48.9209 154.413 53.0265 149.589 60.332C148.86 61.4362 148.81 63.0887 149.19 65.0586C150.655 72.651 146.457 80.051 139.236 82.8532C139.097 82.9042 138.971 82.9848 138.867 83.0893C134.699 87.3924 133.33 94.1815 135.51 99.7601C136.026 101.081 136.18 103.376 137.594 103.439C146.725 103.84 147.425 108.814 142.247 116.21C141.163 117.758 142.738 119.945 143.719 121.592C145.975 125.382 150.53 127.329 154.941 127.588C159.333 127.848 163.67 126.688 167.914 125.534L173.569 125.308C178.435 126.146 183.525 126.014 188.137 124.275C193.11 122.399 197.448 118.488 199.094 113.443C199.656 111.719 209.341 113.88 209.196 112.066C211.605 110.838 204.322 105.184 206.145 103.186C210.21 98.6945 212.331 92.7826 212.047 86.7378Z" fill="#90C4F2"/>
<path opacity="0.1" d="M190.397 116.199C189.095 120.19 186.106 123.467 182.452 125.592C184.299 125.367 186.112 124.925 187.854 124.275C192.091 122.677 195.86 119.598 197.903 115.603C195.033 115.605 190.765 115.071 190.397 116.199Z" fill="#667C97"/>
<path opacity="0.1" d="M206.146 103.186C210.21 98.6945 212.331 92.7826 212.047 86.7378C211.838 82.6575 210.446 78.5604 207.712 75.5214C206.519 74.1952 201.475 71.0856 199.866 70.304C200.476 65.5098 203.762 62.7445 201.359 58.6446C198.308 53.4441 191.943 50.3938 185.968 51.2714C183.83 51.5964 181.788 52.3821 179.985 53.5739C177.921 51.7736 175.096 50.6675 172.345 50.2471C167.344 49.4817 162.144 50.5285 157.712 52.9523C159.777 52.6768 161.871 52.6939 163.931 53.0032C166.682 53.4236 169.507 54.5298 171.571 56.33C173.375 55.1505 178.603 52.1396 177.554 54.0275C173.069 62.0969 178.37 66.0573 192.944 61.4007C195.265 60.6592 192.162 64.5471 188.499 69.162C185.112 73.428 188.86 79.5882 194.218 78.5739C196.835 78.0785 198.896 77.8305 199.298 78.2775C202.032 81.3165 211.924 86.1099 203.633 89.4939C195.342 92.8779 201.769 101.523 197.731 105.942C196.45 107.345 199.661 110.552 200.851 112.762C203.786 112.535 209.306 113.439 209.197 112.066C211.606 110.838 204.322 105.183 206.146 103.186Z" fill="#667C97"/>
<path d="M146.139 135.149H169.164C169.239 135.149 169.311 135.119 169.364 135.066C169.417 135.013 169.447 134.941 169.447 134.867C169.447 134.792 169.417 134.72 169.364 134.667C169.311 134.614 169.239 134.584 169.164 134.584H146.139C146.064 134.584 145.992 134.614 145.939 134.667C145.886 134.72 145.856 134.792 145.856 134.867C145.856 134.941 145.886 135.013 145.939 135.066C145.992 135.119 146.064 135.149 146.139 135.149Z" fill="#667C97"/>
<path d="M177.313 157.589C172.644 151.392 169.946 144.463 169.858 136.562C169.707 136.137 169.732 135.669 169.927 135.261C170.122 134.854 170.471 134.54 170.897 134.389L186.81 128.77C187.236 128.62 187.705 128.645 188.114 128.84C188.522 129.034 188.836 129.382 188.987 129.808L196.443 150.835C196.593 151.26 196.568 151.728 196.373 152.136C196.178 152.543 195.83 152.857 195.403 153.008L179.491 158.627C179.064 158.777 178.595 158.752 178.187 158.557C177.779 158.363 177.464 158.015 177.313 157.589Z" fill="#D8E6F0"/>
<path d="M176.282 150.807C173.474 147.974 172.272 142.921 171.489 137.289C171.348 136.891 171.371 136.452 171.554 136.071C171.736 135.689 172.063 135.395 172.462 135.254L186.138 130.425C186.537 130.285 186.977 130.308 187.359 130.49C187.741 130.672 188.036 130.998 188.177 131.397L194.812 150.108C194.952 150.506 194.929 150.945 194.747 151.326C194.564 151.708 194.237 152.001 193.838 152.143L185.366 155.134C183.587 155.761 181.631 155.657 179.927 154.845C178.224 154.034 176.913 152.582 176.282 150.807Z" fill="white"/>
<path d="M188.36 141.476L177.708 145.271C177.624 145.301 177.534 145.314 177.445 145.31C177.356 145.306 177.269 145.284 177.188 145.246C177.108 145.208 177.035 145.154 176.976 145.088C176.916 145.022 176.87 144.945 176.84 144.861C176.81 144.777 176.796 144.688 176.801 144.6C176.805 144.511 176.827 144.423 176.866 144.343C176.904 144.263 176.958 144.191 177.024 144.131C177.09 144.071 177.167 144.025 177.251 143.995L187.904 140.201C188.074 140.14 188.26 140.15 188.423 140.227C188.585 140.304 188.71 140.442 188.771 140.611C188.831 140.78 188.822 140.966 188.745 141.128C188.668 141.291 188.53 141.416 188.36 141.476Z" fill="#90C4F2"/>
<path d="M178.8 140.938L176.456 141.773C176.372 141.803 176.283 141.816 176.194 141.812C176.105 141.807 176.018 141.785 175.938 141.747C175.857 141.709 175.785 141.655 175.725 141.59C175.665 141.524 175.619 141.447 175.589 141.363C175.559 141.279 175.546 141.19 175.55 141.101C175.555 141.012 175.577 140.925 175.615 140.845C175.653 140.765 175.707 140.693 175.773 140.633C175.839 140.573 175.916 140.527 176 140.497L178.344 139.662C178.428 139.632 178.517 139.619 178.606 139.624C178.695 139.628 178.782 139.65 178.863 139.688C178.943 139.726 179.016 139.779 179.076 139.845C179.136 139.911 179.182 139.988 179.212 140.072C179.242 140.156 179.255 140.245 179.25 140.334C179.246 140.423 179.224 140.51 179.186 140.59C179.147 140.671 179.094 140.743 179.028 140.803C178.961 140.862 178.884 140.908 178.8 140.938Z" fill="#90C4F2"/>
<path d="M190.367 147.085L179.714 150.879C179.63 150.909 179.541 150.923 179.452 150.918C179.362 150.914 179.275 150.892 179.195 150.854C179.114 150.816 179.042 150.762 178.982 150.696C178.922 150.63 178.876 150.553 178.846 150.47C178.816 150.386 178.803 150.297 178.807 150.208C178.811 150.119 178.833 150.032 178.872 149.951C178.91 149.871 178.964 149.799 179.03 149.739C179.096 149.68 179.173 149.634 179.257 149.604L189.91 145.809C190.08 145.749 190.266 145.758 190.429 145.835C190.592 145.912 190.717 146.05 190.778 146.219C190.838 146.388 190.829 146.575 190.752 146.737C190.675 146.899 190.536 147.024 190.367 147.085Z" fill="#90C4F2"/>
<path d="M189.364 144.28L178.711 148.075C178.627 148.105 178.538 148.118 178.448 148.114C178.359 148.11 178.272 148.088 178.191 148.05C178.111 148.012 178.039 147.958 177.979 147.892C177.919 147.826 177.873 147.749 177.843 147.665C177.813 147.581 177.799 147.493 177.804 147.404C177.808 147.315 177.83 147.228 177.869 147.147C177.907 147.067 177.961 146.995 178.027 146.935C178.093 146.875 178.17 146.829 178.254 146.8L188.907 143.005C189.077 142.945 189.263 142.954 189.426 143.031C189.588 143.108 189.713 143.246 189.774 143.415C189.834 143.584 189.825 143.77 189.748 143.933C189.671 144.095 189.533 144.22 189.364 144.28Z" fill="#90C4F2"/>
<path d="M170.762 138.817C172.324 138.817 173.59 137.554 173.59 135.995C173.59 134.437 172.324 133.174 170.762 133.174C169.201 133.174 167.935 134.437 167.935 135.995C167.935 137.554 169.201 138.817 170.762 138.817Z" fill="#90C4F2"/>
<path d="M150.145 64.041H127.12C127.045 64.041 126.973 64.0113 126.92 63.9584C126.867 63.9055 126.837 63.8337 126.837 63.7589C126.837 63.684 126.867 63.6123 126.92 63.5593C126.973 63.5064 127.045 63.4767 127.12 63.4767H150.145C150.22 63.4767 150.292 63.5064 150.345 63.5593C150.398 63.6123 150.428 63.684 150.428 63.7589C150.428 63.8337 150.398 63.9055 150.345 63.9584C150.292 64.0113 150.22 64.041 150.145 64.041Z" fill="#667C97"/>
<path d="M97.3437 74.0502C99.3435 66.5585 103.138 60.1605 109.309 55.2112C109.552 54.8301 109.936 54.5607 110.377 54.462C110.818 54.3633 111.281 54.4433 111.663 54.6845L125.92 63.7023C126.302 63.9444 126.572 64.3278 126.671 64.7683C126.77 65.2088 126.69 65.6705 126.448 66.0521L114.483 84.8911C114.24 85.2721 113.856 85.5415 113.415 85.6403C112.973 85.739 112.511 85.6589 112.128 85.4177L97.8714 76.3999C97.4896 76.1578 97.2196 75.7744 97.1207 75.3339C97.0218 74.8934 97.102 74.4317 97.3437 74.0502Z" fill="#D8E6F0"/>
<path d="M102.051 69.0517C102.55 65.0981 105.789 61.0337 109.744 56.9403C109.971 56.5834 110.331 56.3311 110.744 56.2386C111.157 56.1462 111.591 56.2211 111.949 56.4471L124.201 64.1971C124.559 64.4239 124.812 64.7829 124.905 65.1955C124.997 65.608 124.922 66.0404 124.696 66.3978L114.048 83.1619C113.821 83.5188 113.461 83.7711 113.048 83.8636C112.634 83.956 112.201 83.881 111.843 83.6551L104.253 78.8541C102.66 77.8441 101.534 76.2449 101.121 74.4072C100.708 72.5695 101.043 70.6435 102.051 69.0517Z" fill="white"/>
<path d="M116.865 72.7676L107.295 66.751C107.219 66.7037 107.154 66.6419 107.102 66.5693C107.051 66.4967 107.014 66.4147 106.994 66.3279C106.974 66.2411 106.972 66.1513 106.987 66.0636C107.002 65.9758 107.034 65.8919 107.082 65.8166C107.129 65.7413 107.191 65.6761 107.264 65.6247C107.337 65.5733 107.419 65.5367 107.506 65.5171C107.593 65.4974 107.683 65.495 107.771 65.5101C107.859 65.5252 107.943 65.5574 108.018 65.6049L117.589 71.6215C117.741 71.7172 117.849 71.8694 117.889 72.0446C117.929 72.2198 117.897 72.4036 117.801 72.5555C117.705 72.7075 117.553 72.8152 117.377 72.855C117.202 72.8948 117.018 72.8633 116.865 72.7676Z" fill="#90C4F2"/>
<path d="M111.384 64.932L109.279 63.6083C109.127 63.5125 109.019 63.3603 108.979 63.1853C108.939 63.0102 108.971 62.8266 109.067 62.6747C109.163 62.5228 109.315 62.4151 109.49 62.3753C109.666 62.3354 109.85 62.3667 110.002 62.4622L112.108 63.7859C112.26 63.8816 112.368 64.0338 112.408 64.209C112.448 64.3842 112.416 64.5679 112.32 64.7199C112.224 64.8719 112.072 64.9796 111.896 65.0194C111.721 65.0592 111.536 65.0277 111.384 64.932Z" fill="#90C4F2"/>
<path d="M113.685 77.8062L104.114 71.7897C103.962 71.6938 103.854 71.5416 103.815 71.3666C103.775 71.1915 103.806 71.0079 103.902 70.856C103.998 70.7041 104.151 70.5964 104.326 70.5566C104.501 70.5167 104.685 70.548 104.838 70.6435L114.408 76.6601C114.484 76.7075 114.549 76.7692 114.601 76.8418C114.652 76.9144 114.689 76.9965 114.709 77.0832C114.729 77.17 114.731 77.2598 114.716 77.3476C114.701 77.4353 114.669 77.5192 114.621 77.5945C114.574 77.6698 114.512 77.735 114.439 77.7864C114.366 77.8378 114.284 77.8744 114.197 77.8941C114.11 77.9137 114.02 77.9161 113.932 77.901C113.844 77.8859 113.76 77.8537 113.685 77.8062Z" fill="#90C4F2"/>
<path d="M115.275 75.2869L105.705 69.2703C105.552 69.1746 105.444 69.0224 105.404 68.8472C105.365 68.6721 105.396 68.4883 105.492 68.3363C105.588 68.1843 105.74 68.0766 105.916 68.0368C106.092 67.997 106.276 68.0285 106.428 68.1242L115.999 74.1408C116.074 74.1882 116.14 74.2499 116.191 74.3225C116.243 74.3951 116.279 74.4771 116.299 74.5639C116.319 74.6507 116.321 74.7405 116.306 74.8283C116.291 74.916 116.259 74.9999 116.212 75.0752C116.164 75.1505 116.102 75.2157 116.029 75.2671C115.957 75.3185 115.874 75.3551 115.787 75.3748C115.7 75.3944 115.61 75.3968 115.523 75.3817C115.435 75.3666 115.351 75.3344 115.275 75.2869Z" fill="#90C4F2"/>
<path d="M125.522 67.7093C127.083 67.7093 128.349 66.446 128.349 64.8876C128.349 63.3292 127.083 62.0658 125.522 62.0658C123.96 62.0658 122.694 63.3292 122.694 64.8876C122.694 66.446 123.96 67.7093 125.522 67.7093Z" fill="#90C4F2"/>
<path d="M100.516 100.362H70.5786C70.4074 100.362 70.2432 100.294 70.1221 100.173C70.001 100.053 69.933 99.8887 69.933 99.7178C69.933 99.5469 70.001 99.383 70.1221 99.2622C70.2432 99.1414 70.4074 99.0735 70.5786 99.0735H100.516C100.687 99.0735 100.851 99.1414 100.972 99.2622C101.093 99.383 101.161 99.5469 101.161 99.7178C101.161 99.8887 101.093 100.053 100.972 100.173C100.851 100.294 100.687 100.362 100.516 100.362Z" fill="#90C4F2"/>
<path d="M115.67 106.252H70.5785C70.4936 106.252 70.4095 106.236 70.331 106.204C70.2525 106.171 70.1812 106.124 70.1211 106.064C70.061 106.004 70.0133 105.933 69.9808 105.855C69.9483 105.777 69.9315 105.693 69.9315 105.608C69.9315 105.523 69.9483 105.439 69.9808 105.361C70.0133 105.283 70.061 105.212 70.1211 105.152C70.1812 105.092 70.2525 105.045 70.331 105.012C70.4095 104.98 70.4936 104.963 70.5785 104.964H115.67C115.841 104.964 116.005 105.032 116.126 105.153C116.247 105.274 116.315 105.437 116.315 105.608C116.315 105.779 116.247 105.942 116.126 106.063C116.005 106.184 115.841 106.252 115.67 106.252Z" fill="#D8E6F0"/>
<path d="M115.671 110.853H70.5775C70.4061 110.853 70.2418 110.921 70.1206 111.042C69.9995 111.163 69.9314 111.327 69.9314 111.498C69.9314 111.669 69.9995 111.833 70.1206 111.953C70.2418 112.074 70.4061 112.142 70.5775 112.142H115.671C115.843 112.142 116.007 112.074 116.128 111.953C116.249 111.833 116.317 111.669 116.317 111.498C116.317 111.327 116.249 111.163 116.128 111.042C116.007 110.921 115.843 110.853 115.671 110.853Z" fill="#D8E6F0"/>
<path d="M115.67 118.032H70.5785C70.4936 118.033 70.4095 118.016 70.331 117.984C70.2525 117.951 70.1812 117.904 70.1211 117.844C70.061 117.784 70.0133 117.713 69.9808 117.635C69.9483 117.557 69.9315 117.473 69.9315 117.388C69.9315 117.303 69.9483 117.22 69.9808 117.141C70.0133 117.063 70.061 116.992 70.1211 116.932C70.1812 116.872 70.2525 116.825 70.331 116.793C70.4095 116.76 70.4936 116.744 70.5785 116.744H115.67C115.841 116.744 116.005 116.812 116.126 116.933C116.247 117.054 116.315 117.218 116.315 117.388C116.315 117.559 116.247 117.722 116.126 117.843C116.005 117.964 115.841 118.032 115.67 118.032Z" fill="#D8E6F0"/>
<path d="M34.3298 131.463L35.6883 120.307L31.9908 120.041L31.1614 131.74C31.0208 132.033 30.9604 132.358 30.9864 132.682C31.0123 133.006 31.1237 133.318 31.3093 133.585C31.4949 133.852 31.7479 134.066 32.0429 134.204C32.3378 134.342 32.6641 134.4 32.9887 134.371C33.3132 134.343 33.6245 134.23 33.8909 134.042C34.1573 133.855 34.3693 133.601 34.5055 133.306C34.6417 133.01 34.6972 132.684 34.6663 132.361C34.6354 132.037 34.5193 131.727 34.3298 131.463Z" fill="#A0616A"/>
<path d="M39.0779 104.64C38.3903 104.546 37.6911 104.685 37.0917 105.034C36.4924 105.383 36.0273 105.923 35.7708 106.566C34.2166 110.465 31.2186 118.115 31.3814 118.71C31.6006 119.512 31.8198 119.585 31.2355 119.876C30.6513 120.168 29.8478 119.658 30.6513 120.168C31.4548 120.678 30.4323 120.824 30.7975 121.188C31.1628 121.553 37.2247 122.353 37.2247 122.353C37.2247 122.353 35.886 118.291 36.3358 117.698C36.7857 117.106 38.2465 117.834 37.516 117.106C36.7855 116.377 36.1054 116.176 36.9566 115.839C37.8079 115.502 38.5536 115.13 38.5536 115.13L41.4641 109.052C41.6753 108.611 41.7791 108.127 41.7671 107.638C41.755 107.15 41.6275 106.671 41.3949 106.241C41.1623 105.811 40.8312 105.441 40.4286 105.163C40.0259 104.885 39.5631 104.706 39.0779 104.64Z" fill="#D8E6F0"/>
<path d="M44.3914 180.488L46.4103 180.488L47.3705 172.717H44.3909L44.3914 180.488Z" fill="#A0616A"/>
<path d="M44.3204 182.59L50.5288 182.589V182.511C50.5287 181.871 50.2741 181.258 49.821 180.806C49.3678 180.354 48.7532 180.1 48.1123 180.1L46.9781 179.241L44.8623 180.1L44.3203 180.1L44.3204 182.59Z" fill="#667C97"/>
<path d="M11.9507 167.062L12.7769 168.901L20.2756 166.595L19.056 163.882L11.9507 167.062Z" fill="#A0616A"/>
<path d="M10 167.858L12.5405 173.511L12.6121 173.479C13.1968 173.217 13.6535 172.734 13.8815 172.136C14.1096 171.539 14.0905 170.875 13.8283 170.292L14.1492 168.908L12.4983 167.332L12.2766 166.839L10 167.858Z" fill="#667C97"/>
<path d="M42.4308 99.9077C44.5573 99.9077 46.2812 98.1874 46.2812 96.0653C46.2812 93.9431 44.5573 92.2228 42.4308 92.2228C40.3043 92.2228 38.5804 93.9431 38.5804 96.0653C38.5804 98.1874 40.3043 99.9077 42.4308 99.9077Z" fill="#A0616A"/>
<path d="M49.2739 131.67L34.7238 131.209C34.7238 131.209 31.6451 137.154 33.5309 140.865C35.4167 144.577 33.9237 155.09 33.9237 155.09L15.0928 164.628L16.7095 168.316C16.7095 168.316 20.8666 168.085 21.5595 167.394C22.2011 166.832 23.0162 166.507 23.869 166.472C24.3309 166.472 37.9572 160.48 37.9572 160.48L41.4974 150.244L45.0895 164.225L43.3281 176.649L47.5328 176.76C47.5328 176.76 48.9831 176.032 48.5511 174.94C48.1192 173.847 47.8957 173.372 48.9313 172.457C49.9668 171.543 51.9722 157.692 51.9722 157.692L49.5937 141.71C49.5937 141.71 48.177 141.312 49.3739 140.233C50.5709 139.154 49.3477 137.867 49.3477 137.867C49.3477 137.867 50.36 136.438 49.3344 136.668C48.3088 136.897 49.2739 131.209 49.2739 131.209" fill="#667C97"/>
<path d="M46.0221 102.45L40.6497 102.118L39.7103 103.669C39.7103 103.669 37.5954 103.551 38.0573 104.243C38.5192 104.934 38.2507 104.368 37.5766 104.882C36.9025 105.395 35.9922 105.486 36.4473 105.902C36.5137 105.962 36.4869 106.141 36.3927 106.403C34.5337 111.434 34.0763 116.873 35.0691 122.142C35.3848 123.746 35.5861 124.917 35.5168 124.986C35.2858 125.216 34.131 124.986 34.8239 125.677C35.5168 126.369 36.6715 125.677 35.2858 127.06C33.9001 128.443 30.9904 134.299 34.362 134.666C37.7336 135.033 50.2978 134.205 50.0669 133.283L48.4502 126.83L47.1336 108.261L45.8144 104.715L46.0221 102.45Z" fill="#D8E6F0"/>
<path d="M46.3029 135.02L44.0583 124.008L40.4663 124.922L43.3846 136.283C43.3441 136.605 43.3898 136.933 43.5171 137.232C43.6444 137.531 43.8487 137.792 44.1094 137.987C44.3701 138.182 44.6778 138.304 45.0014 138.342C45.325 138.38 45.6529 138.332 45.9518 138.203C46.2507 138.074 46.5101 137.868 46.7035 137.606C46.897 137.345 47.0177 137.037 47.0533 136.713C47.089 136.39 47.0383 136.063 46.9065 135.766C46.7747 135.469 46.5664 135.212 46.3029 135.02Z" fill="#A0616A"/>
<path d="M42.3121 108.075C41.6301 108.203 41.0107 108.556 40.5526 109.076C40.0946 109.596 39.8242 110.254 39.7846 110.946C39.5449 115.135 39.1236 123.338 39.4666 123.852C39.9285 124.543 40.1594 124.543 39.6975 125.004C39.2356 125.465 38.3118 125.235 39.2356 125.465C40.1594 125.695 39.2356 126.156 39.6975 126.387C40.1594 126.617 46.1642 125.465 46.1642 125.465C46.1642 125.465 43.6075 122.033 43.8466 121.329C44.0856 120.625 45.7023 120.855 44.7785 120.394C43.8547 119.934 43.1456 119.957 43.8466 119.369C44.5475 118.781 45.1371 118.193 45.1371 118.193L45.9735 111.508C46.0341 111.023 45.9792 110.531 45.813 110.071C45.6469 109.612 45.3742 109.198 45.0174 108.863C44.6605 108.528 44.2294 108.283 43.7593 108.146C43.2892 108.009 42.7933 107.985 42.3121 108.075Z" fill="#D8E6F0"/>
<path d="M43.5916 99.7677C43.1067 100.137 42.5813 100.449 42.0255 100.699C41.4644 100.95 40.8345 101.002 40.2398 100.847C39.9444 100.754 39.6741 100.595 39.4493 100.383C39.2245 100.17 39.0512 99.9092 38.9425 99.6198C38.7303 99.0411 36.958 98.3651 37.2924 97.847C37.4606 97.6409 37.5999 97.4129 37.7063 97.1693C37.7548 97.0456 37.7533 96.908 37.7022 96.7854C37.6512 96.6628 37.5545 96.5646 37.4325 96.5116C37.3259 96.4962 37.2172 96.517 37.1238 96.5707C37.0304 96.6243 36.9578 96.7077 36.9177 96.8075C36.8425 97.0094 36.815 97.2258 36.8374 97.44C36.6664 97.2971 36.5464 97.1027 36.4954 96.8861C36.4444 96.6694 36.4651 96.4421 36.5544 96.2382L35.9554 95.938C36.4724 95.737 38.4398 94.923 38.0025 94.5822C37.6326 94.2939 36.442 93.3574 36.5749 93.02C36.7302 92.6913 36.9481 92.3957 37.2164 92.1499C37.7327 91.612 38.2956 91.0474 39.0266 90.8966C39.6512 90.7677 40.291 90.9648 40.9045 91.1388C41.518 91.3128 42.1819 91.4642 42.7827 91.2505C43.3835 91.0368 43.8394 90.3089 43.5387 89.7476C43.7687 89.7455 43.9945 89.8094 44.1891 89.9316C44.3838 90.0539 44.5392 90.2293 44.6369 90.4372L44.7398 89.4918C45.199 89.6122 45.6235 89.8387 45.9789 90.1529C46.3066 90.4934 46.446 91.0644 46.1603 91.4406C45.8437 91.8575 45.1357 91.9049 44.9482 92.3934C44.7837 92.8221 45.1401 93.2554 45.4377 93.6053C45.7353 93.9553 45.9954 94.4985 45.6831 94.8354C45.4247 95.1143 44.971 95.0255 44.6026 95.121C44.047 95.2649 43.7053 95.8493 43.6325 96.4175C43.605 96.9901 43.6479 97.5639 43.7604 98.1261C43.8719 98.6932 43.7822 99.2815 43.5068 99.7899" fill="#667C97"/>
<path d="M46.0468 97.3927C45.6531 97.3927 45.2168 97.2403 45.2168 96.8474V94.3521C45.2168 93.9592 45.6531 94.0066 46.0468 94.0066C47.0281 93.3501 47.8598 94.3073 47.8928 95.5998C47.8815 96.9942 47.1132 97.8855 46.0468 97.3927Z" fill="#667C97"/>
<path d="M45.4988 93.6407H44.2419C43.8216 93.6407 42.1712 93.6118 42.0882 94.0066C39.8702 93.6145 38.9987 93.6041 37.7108 94.3321C37.5577 94.3321 37.4108 94.3928 37.3025 94.5009C37.1943 94.6089 37.1334 94.7555 37.1334 94.9083C37.1334 95.0611 37.1943 95.2077 37.3025 95.3157C37.4108 95.4238 37.5577 95.4845 37.7108 95.4845L41.8055 95.4175L43.3692 96.6879C43.3692 96.8022 43.3917 96.9155 43.4356 97.0212C43.4795 97.1268 43.5437 97.2228 43.6248 97.3037C43.7058 97.3846 43.802 97.4488 43.9079 97.4925C44.0138 97.5363 44.1273 97.5588 44.2419 97.5588H45.4988C45.6134 97.5588 45.7269 97.5363 45.8328 97.4925C45.9387 97.4488 46.0349 97.3846 46.1159 97.3037C46.197 97.2228 46.2613 97.1268 46.3051 97.0212C46.349 96.9155 46.3716 96.8022 46.3716 96.6879C45.9689 95.9116 45.9022 95.1778 46.3716 94.5116C46.3716 94.3973 46.349 94.284 46.3051 94.1783C46.2613 94.0727 46.197 93.9766 46.1159 93.8958C46.0349 93.8149 45.9387 93.7507 45.8328 93.707C45.7269 93.6632 45.6134 93.6407 45.4988 93.6407Z" fill="#90C4F2"/>
</g>
<defs>
<clipPath id="clip0_33_126">
<rect width="228" height="147" fill="white" transform="translate(10 50)"/>
</clipPath>
</defs>
</svg>
