<svg width="256" height="256" viewBox="0 0 256 256" fill="none" xmlns="http://www.w3.org/2000/svg">
<g filter="url(#filter0_d_33_85)">
<rect width="248" height="248" transform="translate(4)" fill="white"/>
<g clip-path="url(#clip0_33_85)">
<path d="M159.479 165.944V206.442H57.4796C45.8581 206.442 36.4027 197.358 36.4027 186.193C36.4027 175.028 45.8581 165.944 57.4796 165.944H159.479Z" fill="#D8E6F0"/>
<path d="M161.985 206.131C161.984 206.544 161.819 206.94 161.526 207.232C161.232 207.524 160.834 207.688 160.419 207.688H55.6627C49.9732 207.688 44.5168 205.44 40.4937 201.438C36.4706 197.436 34.2104 192.009 34.2104 186.349C34.2104 180.69 36.4706 175.262 40.4937 171.26C44.5168 167.258 49.9732 165.01 55.6627 165.01H160.419C160.834 165.01 161.232 165.174 161.526 165.466C161.82 165.758 161.985 166.154 161.985 166.567C161.985 166.981 161.82 167.377 161.526 167.669C161.232 167.961 160.834 168.125 160.419 168.125H55.6627C50.8038 168.125 46.1439 170.045 42.7081 173.463C39.2724 176.88 37.3422 181.516 37.3422 186.349C37.3422 191.182 39.2724 195.818 42.7081 199.236C46.1439 202.653 50.8038 204.573 55.6627 204.573H160.419C160.834 204.573 161.232 204.738 161.526 205.03C161.819 205.322 161.984 205.718 161.985 206.131Z" fill="#90C4F2"/>
<path d="M159.479 175.29H49.8691C49.786 175.29 49.7064 175.257 49.6476 175.199C49.5889 175.14 49.5559 175.061 49.5559 174.979C49.5559 174.896 49.5889 174.817 49.6476 174.758C49.7064 174.7 49.786 174.667 49.8691 174.667H159.479C159.562 174.667 159.642 174.7 159.701 174.758C159.759 174.817 159.792 174.896 159.792 174.979C159.792 175.061 159.759 175.14 159.701 175.199C159.642 175.257 159.562 175.29 159.479 175.29Z" fill="#667C97"/>
<path d="M159.479 182.767H49.8691C49.786 182.767 49.7064 182.734 49.6476 182.675C49.5889 182.617 49.5559 182.538 49.5559 182.455C49.5559 182.373 49.5889 182.293 49.6476 182.235C49.7064 182.176 49.786 182.144 49.8691 182.144H159.479C159.562 182.144 159.642 182.176 159.701 182.235C159.759 182.293 159.792 182.373 159.792 182.455C159.792 182.538 159.759 182.617 159.701 182.675C159.642 182.734 159.562 182.767 159.479 182.767Z" fill="#667C97"/>
<path d="M159.479 190.243H49.8691C49.786 190.243 49.7064 190.21 49.6476 190.152C49.5889 190.094 49.5559 190.014 49.5559 189.932C49.5559 189.849 49.5889 189.77 49.6476 189.711C49.7064 189.653 49.786 189.62 49.8691 189.62H159.479C159.562 189.62 159.642 189.653 159.701 189.711C159.759 189.77 159.792 189.849 159.792 189.932C159.792 190.014 159.759 190.094 159.701 190.152C159.642 190.21 159.562 190.243 159.479 190.243Z" fill="#667C97"/>
<path d="M159.479 197.72H49.8691C49.786 197.72 49.7064 197.687 49.6476 197.628C49.5889 197.57 49.5559 197.491 49.5559 197.408C49.5559 197.326 49.5889 197.246 49.6476 197.188C49.7064 197.13 49.786 197.097 49.8691 197.097H159.479C159.562 197.097 159.642 197.13 159.701 197.188C159.759 197.246 159.792 197.326 159.792 197.408C159.792 197.491 159.759 197.57 159.701 197.628C159.642 197.687 159.562 197.72 159.479 197.72Z" fill="#667C97"/>
<path d="M238.31 173.568L212.766 205.103L133.341 141.443C124.292 134.19 122.659 121.215 129.701 112.521C136.743 103.827 149.835 102.655 158.885 109.908L238.31 173.568Z" fill="#D8E6F0"/>
<path d="M214.914 206.424C214.653 206.745 214.275 206.951 213.862 206.995C213.449 207.039 213.035 206.918 212.712 206.659L131.14 141.279C126.71 137.728 123.879 132.572 123.271 126.945C122.662 121.318 124.326 115.681 127.896 111.274C131.465 106.867 136.649 104.051 142.306 103.446C147.962 102.84 153.629 104.495 158.06 108.046L239.631 173.426C239.791 173.555 239.925 173.713 240.023 173.893C240.122 174.072 240.184 174.269 240.206 174.473C240.228 174.676 240.21 174.882 240.152 175.078C240.094 175.275 239.998 175.458 239.869 175.617C239.74 175.776 239.58 175.909 239.4 176.007C239.219 176.105 239.021 176.167 238.816 176.188C238.612 176.21 238.405 176.192 238.208 176.134C238.01 176.076 237.826 175.981 237.666 175.852L156.095 110.472C154.221 108.969 152.069 107.848 149.76 107.174C147.451 106.499 145.031 106.283 142.639 106.538C140.246 106.794 137.927 107.516 135.815 108.663C133.703 109.81 131.838 111.36 130.329 113.224C128.819 115.088 127.693 117.23 127.015 119.527C126.338 121.824 126.122 124.231 126.379 126.611C126.637 128.991 127.364 131.297 128.518 133.398C129.672 135.498 131.231 137.352 133.105 138.853L214.677 204.234C215 204.493 215.207 204.869 215.251 205.28C215.295 205.691 215.174 206.102 214.914 206.424Z" fill="#667C97"/>
<path d="M232.415 180.845L147.064 112.435C147.032 112.41 147.005 112.378 146.986 112.342C146.966 112.306 146.954 112.267 146.949 112.226C146.945 112.185 146.948 112.144 146.96 112.105C146.972 112.066 146.991 112.029 147.017 111.997C147.042 111.965 147.074 111.939 147.11 111.919C147.147 111.9 147.186 111.887 147.227 111.883C147.268 111.879 147.309 111.882 147.349 111.894C147.388 111.905 147.425 111.925 147.457 111.95L232.808 180.36C232.84 180.385 232.867 180.417 232.887 180.453C232.907 180.489 232.919 180.528 232.924 180.569C232.928 180.61 232.924 180.651 232.913 180.69C232.901 180.73 232.882 180.766 232.856 180.798C232.83 180.83 232.798 180.856 232.762 180.876C232.726 180.896 232.686 180.908 232.645 180.912C232.605 180.917 232.563 180.913 232.524 180.901C232.484 180.89 232.447 180.871 232.415 180.845Z" fill="#667C97"/>
<path d="M227.7 186.667L142.348 118.257C142.284 118.205 142.243 118.13 142.234 118.048C142.225 117.966 142.249 117.884 142.301 117.819C142.353 117.755 142.429 117.714 142.511 117.705C142.594 117.696 142.677 117.72 142.741 117.772L228.093 186.182C228.125 186.207 228.151 186.239 228.171 186.275C228.191 186.311 228.203 186.35 228.208 186.391C228.212 186.432 228.209 186.473 228.197 186.512C228.185 186.551 228.166 186.588 228.14 186.62C228.114 186.652 228.083 186.678 228.046 186.698C228.01 186.718 227.971 186.73 227.93 186.734C227.889 186.739 227.847 186.735 227.808 186.723C227.768 186.712 227.732 186.693 227.7 186.667Z" fill="#667C97"/>
<path d="M222.984 192.489L137.633 124.079C137.568 124.027 137.527 123.952 137.518 123.87C137.509 123.788 137.533 123.705 137.585 123.641C137.637 123.577 137.713 123.536 137.796 123.527C137.878 123.518 137.961 123.542 138.026 123.594L223.377 192.003C223.409 192.029 223.436 192.061 223.455 192.097C223.475 192.133 223.487 192.172 223.492 192.213C223.496 192.253 223.492 192.295 223.481 192.334C223.469 192.373 223.45 192.41 223.424 192.442C223.398 192.473 223.367 192.5 223.33 192.519C223.294 192.539 223.255 192.551 223.214 192.556C223.173 192.56 223.132 192.556 223.092 192.545C223.053 192.533 223.016 192.514 222.984 192.489Z" fill="#667C97"/>
<path d="M218.268 198.31L132.917 129.901C132.885 129.875 132.858 129.844 132.838 129.808C132.819 129.772 132.806 129.732 132.802 129.692C132.797 129.651 132.801 129.61 132.813 129.571C132.824 129.531 132.844 129.495 132.869 129.463C132.895 129.431 132.927 129.404 132.963 129.385C132.999 129.365 133.039 129.353 133.08 129.349C133.121 129.344 133.162 129.348 133.201 129.359C133.241 129.371 133.278 129.39 133.31 129.416L218.661 197.825C218.693 197.851 218.72 197.883 218.74 197.919C218.759 197.954 218.772 197.994 218.776 198.035C218.781 198.075 218.777 198.117 218.765 198.156C218.754 198.195 218.735 198.232 218.709 198.264C218.683 198.296 218.651 198.322 218.615 198.342C218.579 198.361 218.539 198.374 218.498 198.378C218.457 198.382 218.416 198.379 218.376 198.367C218.337 198.355 218.3 198.336 218.268 198.31Z" fill="#667C97"/>
<path d="M243.687 208H11.3132C11.2301 208 11.1505 207.967 11.0917 207.909C11.033 207.85 11 207.771 11 207.688C11 207.606 11.033 207.527 11.0917 207.468C11.1505 207.41 11.2301 207.377 11.3132 207.377H243.687C243.77 207.377 243.85 207.41 243.908 207.468C243.967 207.527 244 207.606 244 207.688C244 207.771 243.967 207.85 243.908 207.909C243.85 207.967 243.77 208 243.687 208Z" fill="#CCCCCC"/>
<path d="M116.877 161.688L113.297 161.687L111.595 147.951L116.879 147.951L116.877 161.688Z" fill="#FFB8B8"/>
<path d="M110.74 160.67H117.645V164.994H106.392C106.392 164.427 106.505 163.864 106.723 163.339C106.942 162.815 107.262 162.338 107.666 161.937C108.069 161.535 108.549 161.216 109.076 160.999C109.604 160.782 110.169 160.67 110.74 160.67Z" fill="#040709"/>
<path d="M80.3006 161.688L76.7204 161.687L75.0177 147.951L80.3018 147.951L80.3006 161.688Z" fill="#FFB8B8"/>
<path d="M74.163 160.67H81.0677V164.994H69.8156C69.8156 164.427 69.928 163.864 70.1465 163.339C70.365 162.815 70.6852 162.338 71.0889 161.937C71.4926 161.535 71.9718 161.216 72.4993 160.999C73.0268 160.782 73.5921 160.67 74.163 160.67Z" fill="#040709"/>
<path d="M92.259 59.792V58.2344C92.259 55.5698 93.3231 53.0145 95.2172 51.1303C97.1113 49.2462 99.6802 48.1878 102.359 48.1878C105.037 48.1878 107.606 49.2462 109.5 51.1303C111.395 53.0145 112.459 55.5698 112.459 58.2344V59.792C112.459 61.713 111.692 63.5552 110.326 64.9135C108.961 66.2718 107.108 67.0349 105.177 67.0349H99.5403C98.5841 67.0349 97.6373 66.8476 96.7539 66.4836C95.8705 66.1196 95.0678 65.5861 94.3917 64.9135C93.7155 64.241 93.1792 63.4425 92.8133 62.5638C92.4474 61.685 92.259 60.7432 92.259 59.792Z" fill="#040709"/>
<path d="M102.359 67.5709C106.607 67.5709 110.051 64.1453 110.051 59.9196C110.051 55.6938 106.607 52.2682 102.359 52.2682C98.1107 52.2682 94.667 55.6938 94.667 59.9196C94.667 64.1453 98.1107 67.5709 102.359 67.5709Z" fill="#FFB8B8"/>
<path d="M60.5202 86.2162C60.8323 85.923 61.2053 85.7014 61.6128 85.5671C62.0204 85.4328 62.4525 85.3891 62.8789 85.4389C63.3053 85.4887 63.7155 85.6309 64.0807 85.8555C64.4458 86.0801 64.757 86.3816 64.9924 86.7387L71.5861 85.498L73.3213 89.3L63.985 90.922C63.3556 91.2755 62.6177 91.3871 61.9111 91.2356C61.2046 91.0841 60.5784 90.68 60.1513 90.1C59.7243 89.5199 59.5259 88.8041 59.5939 88.0883C59.6619 87.3725 59.9915 86.7064 60.5202 86.2162Z" fill="#FFB8B8"/>
<path d="M96.4483 72.5194L85.6358 79.6048L67.3909 85.4001C67.1491 85.4774 66.9416 85.6357 66.8039 85.8481C66.6662 86.0604 66.6067 86.3137 66.6355 86.5647L67.0335 89.9748C67.0512 90.1258 67.1004 90.2714 67.1779 90.4023C67.2554 90.5332 67.3596 90.6466 67.4837 90.7351C67.6079 90.8236 67.7492 90.8854 67.8988 90.9164C68.0483 90.9474 68.2027 90.947 68.3521 90.9152L85.5232 87.2539C86.3542 87.0777 87.14 86.7336 87.8318 86.2429L99.979 77.6458C100.419 77.3324 100.771 76.9111 100.999 76.4226C101.227 75.9342 101.324 75.3953 101.281 74.8584C101.237 74.3208 101.052 73.804 100.746 73.3588C100.44 72.9136 100.022 72.5554 99.5346 72.3194C99.047 72.0834 98.506 71.9777 97.9648 72.0128C97.4237 72.0479 96.901 72.2225 96.4483 72.5194Z" fill="#D8E6F0"/>
<path d="M113.361 157.79C113.086 157.79 112.818 157.71 112.587 157.561C112.357 157.411 112.176 157.198 112.065 156.948L95.6521 116.606C95.6138 116.518 95.5495 116.444 95.4678 116.394C95.3861 116.344 95.2909 116.32 95.1951 116.326C95.0993 116.331 95.0075 116.365 94.9319 116.424C94.8564 116.483 94.8008 116.564 94.7726 116.655L81.3819 155.93C81.3253 156.112 81.2318 156.282 81.1071 156.427C80.9823 156.573 80.829 156.691 80.6564 156.776C80.4839 156.86 80.2959 156.908 80.1039 156.918C79.9118 156.927 79.7199 156.897 79.5399 156.83L75.0495 155.155C74.8058 155.065 74.592 154.91 74.4318 154.706C74.2716 154.502 74.1714 154.258 74.1423 154.001C72.1222 136.496 89.7383 92.3104 89.9165 91.8662L89.9658 91.7432L106.024 95.2767L106.058 95.3129C112.465 102.265 117.731 146.117 118.721 154.837C118.758 155.152 118.686 155.47 118.517 155.739C118.348 156.007 118.092 156.211 117.791 156.315L113.827 157.71C113.678 157.763 113.52 157.79 113.361 157.79Z" fill="#040709"/>
<path d="M99.5252 96.699C95.6344 96.699 91.2967 95.9273 89.9616 92.7424L89.9308 92.6692L89.9723 92.6014C91.0262 90.8813 92.4191 87.9471 91.6705 87.3963C90.1957 86.3116 89.48 84.5272 89.5436 82.0925C89.6815 76.8073 93.3018 72.1148 98.5522 70.4159C100.018 69.9493 101.509 69.5673 103.019 69.2718C104.12 69.0509 105.256 69.0752 106.346 69.343C107.436 69.6108 108.453 70.1154 109.324 70.8206C110.206 71.5305 110.918 72.4258 111.411 73.4422C111.904 74.4586 112.164 75.571 112.173 76.6993C112.228 82.3474 111.354 90.2142 106.876 95.615C106.666 95.8656 106.374 96.0345 106.052 96.092C103.898 96.4796 101.714 96.6827 99.5252 96.699Z" fill="#D8E6F0"/>
<path d="M98.0778 96.4875C98.2896 95.7319 98.7925 95.0901 99.4773 94.7013C100.162 94.3126 100.974 94.2084 101.735 94.4114C101.891 94.4547 102.042 94.5105 102.189 94.5785L107.195 90.0462L110.677 92.3796L103.517 98.682C103.194 99.2618 102.685 99.7174 102.071 99.9763C101.458 100.235 100.775 100.283 100.131 100.111C99.7559 100.009 99.405 99.8337 99.0984 99.5958C98.7918 99.358 98.5356 99.062 98.3447 98.7251C98.1538 98.3882 98.0319 98.0169 97.9861 97.6329C97.9403 97.2488 97.9714 96.8595 98.0778 96.4875Z" fill="#FFB8B8"/>
<path d="M106.402 96.545C106.077 96.5452 105.762 96.4335 105.511 96.2288L103.537 94.6239C103.372 94.4901 103.24 94.321 103.15 94.1292C103.061 93.9375 103.016 93.7281 103.019 93.5167C103.023 93.3053 103.074 93.0974 103.169 92.9085C103.265 92.7196 103.402 92.5547 103.571 92.426L111.852 86.1084C111.95 86.0331 112.014 85.9224 112.031 85.8002C112.047 85.6781 112.015 85.5543 111.94 85.4558L106.829 78.7344C106.236 77.956 105.938 76.9938 105.989 76.0181C106.039 75.0423 106.436 74.1159 107.107 73.4029C107.815 72.643 108.783 72.1754 109.821 72.0929C110.858 72.0103 111.889 72.3188 112.709 72.9572L112.742 72.9911L118.079 80.593C118.656 81.0431 119.12 81.6199 119.436 82.2782C119.752 82.9365 119.911 83.6586 119.9 84.388C119.889 85.1174 119.709 85.8345 119.373 86.4831C119.038 87.1318 118.556 87.6945 117.966 88.1274L107.241 96.2701C106.998 96.4487 106.704 96.545 106.402 96.545Z" fill="#D8E6F0"/>
<path d="M95.5455 57.7671V53.9708L102.359 51.0114L108.855 53.9708V57.7671C108.855 57.9323 108.789 58.0908 108.672 58.2077C108.554 58.3245 108.395 58.3902 108.229 58.3902H96.1719C96.0058 58.3902 95.8464 58.3245 95.729 58.2077C95.6115 58.0908 95.5455 57.9323 95.5455 57.7671Z" fill="#040709"/>
<path d="M102.046 48.6914C101.044 45.5019 103.148 41.8465 106.258 40.584C109.369 39.3215 113.09 40.204 115.714 42.2899C118.339 44.3757 119.967 47.4999 120.83 50.7294C121.693 53.9589 121.856 57.3265 122.016 60.6643C125.837 61.3625 128.437 65.8712 127.113 69.5048C125.789 73.1384 120.889 74.9436 117.505 73.0444C114.121 71.1452 113.141 66.0399 115.584 63.034C116.739 61.6117 117.385 59.8465 117.418 58.018C117.451 56.1896 116.87 54.4024 115.767 52.9394C114.664 51.4765 113.101 50.4215 111.327 49.9416C109.553 49.4616 107.669 49.5841 105.973 50.2897C104.09 51.0732 101.727 49.0376 102.046 48.6914Z" fill="#040709"/>
<path d="M59.1076 71.4896C54.5324 71.4597 50.0143 70.4754 45.8454 68.6003C45.5972 68.4903 45.3866 68.3108 45.2391 68.0838C45.0917 67.8568 45.0138 67.5921 45.0149 67.3218V55.9768C45.0153 55.6051 45.1639 55.2488 45.4281 54.986C45.6923 54.7231 46.0505 54.5753 46.4242 54.5749H71.7911C72.1647 54.5753 72.523 54.7232 72.7872 54.986C73.0514 55.2488 73.2 55.6051 73.2004 55.9768V67.3218C73.2015 67.5921 73.1236 67.8568 72.9762 68.0838C72.8287 68.3108 72.6181 68.4903 72.3699 68.6003C68.2009 70.4754 63.6829 71.4598 59.1076 71.4896Z" fill="#90C4F2"/>
<path d="M59.1042 62.2988C58.9161 62.2989 58.7299 62.2617 58.5566 62.1893L38.4409 53.7471C38.1815 53.6382 37.9608 53.4546 37.8073 53.2198C37.6538 52.985 37.5745 52.7099 37.5797 52.4299C37.5849 52.1499 37.6742 51.8778 37.8363 51.6488C37.9983 51.4198 38.2256 51.2443 38.4889 51.145L58.6048 43.5538C58.9288 43.431 59.287 43.4318 59.6105 43.556L79.4568 51.1471C79.7186 51.2472 79.9443 51.4227 80.1052 51.6512C80.2661 51.8797 80.3548 52.1507 80.36 52.4296C80.3652 52.7085 80.2866 52.9826 80.1343 53.2169C79.982 53.4511 79.7629 53.6348 79.5051 53.7445L59.6585 62.1865C59.4832 62.2608 59.2947 62.2989 59.1042 62.2988Z" fill="#90C4F2"/>
<path d="M47.3637 69.3722C48.4014 69.3722 49.2427 68.5354 49.2427 67.5031C49.2427 66.4708 48.4014 65.634 47.3637 65.634C46.3259 65.634 45.4846 66.4708 45.4846 67.5031C45.4846 68.5354 46.3259 69.3722 47.3637 69.3722Z" fill="#3F3D56"/>
<path opacity="0.2" d="M79.5736 52.5462L59.7269 60.9882C59.5722 61.054 59.4057 61.0882 59.2374 61.0886C59.0692 61.089 58.9025 61.0557 58.7475 60.9906L38.6318 52.5487C38.3792 52.4452 38.1685 52.2609 38.0329 52.025C37.9442 52.178 37.8892 52.348 37.8716 52.5237C37.854 52.6995 37.8743 52.8769 37.9309 53.0443C37.9876 53.2117 38.0793 53.3652 38.2002 53.4946C38.3211 53.624 38.4682 53.7263 38.6318 53.7948L58.7475 62.2367C58.9025 62.3017 59.0692 62.3351 59.2374 62.3347C59.4057 62.3343 59.5722 62.3001 59.7269 62.2343L79.5736 53.7923C79.7364 53.7232 79.8827 53.6206 80.0027 53.4911C80.1227 53.3617 80.2137 53.2084 80.2698 53.0414C80.3259 52.8743 80.3457 52.6974 80.3279 52.5222C80.3102 52.347 80.2553 52.1775 80.1669 52.025C80.0323 52.259 79.8237 52.4423 79.5736 52.5462Z" fill="black"/>
<path d="M47.5215 67.4958C47.6046 67.4958 47.6843 67.463 47.743 67.4046C47.8017 67.3461 47.8347 67.2669 47.8347 67.1843V56.7603L58.1635 53.0173C58.2466 53.0185 58.3267 52.9869 58.3863 52.9293C58.4459 52.8718 58.4801 52.793 58.4813 52.7104C58.4826 52.6278 58.4508 52.548 58.3929 52.4888C58.3351 52.4295 58.2559 52.3955 58.1728 52.3942L47.844 56.1372C47.7609 56.1353 47.6783 56.1502 47.6011 56.181C47.524 56.2118 47.4539 56.2579 47.3952 56.3164C47.3358 56.3742 47.2887 56.4433 47.2566 56.5195C47.2245 56.5958 47.2081 56.6776 47.2084 56.7603V67.1843C47.2084 67.2669 47.2414 67.3461 47.3001 67.4045C47.3588 67.463 47.4385 67.4958 47.5215 67.4958Z" fill="#3F3D56"/>
</g>
</g>
<defs>
<filter id="filter0_d_33_85" x="0" y="0" width="256" height="256" filterUnits="userSpaceOnUse" color-interpolation-filters="sRGB">
<feFlood flood-opacity="0" result="BackgroundImageFix"/>
<feColorMatrix in="SourceAlpha" type="matrix" values="0 0 0 0 0 0 0 0 0 0 0 0 0 0 0 0 0 0 127 0" result="hardAlpha"/>
<feOffset dy="4"/>
<feGaussianBlur stdDeviation="2"/>
<feComposite in2="hardAlpha" operator="out"/>
<feColorMatrix type="matrix" values="0 0 0 0 0 0 0 0 0 0 0 0 0 0 0 0 0 0 0.25 0"/>
<feBlend mode="normal" in2="BackgroundImageFix" result="effect1_dropShadow_33_85"/>
<feBlend mode="normal" in="SourceGraphic" in2="effect1_dropShadow_33_85" result="shape"/>
</filter>
<clipPath id="clip0_33_85">
<rect width="233" height="168" fill="white" transform="translate(11 40)"/>
</clipPath>
</defs>
</svg>
