<svg width="248" height="248" viewBox="0 0 248 248" fill="none" xmlns="http://www.w3.org/2000/svg">
<rect width="248" height="248" fill="white"/>
<g clip-path="url(#clip0_33_3)">
<path d="M198.428 36.7772H60.3872C55.3234 36.7772 51.2057 40.8651 51.2057 45.8924V139.806C51.2057 144.833 55.3234 148.921 60.3872 148.921H198.428C203.492 148.921 207.609 144.833 207.609 139.806V45.8924C207.609 40.8651 203.492 36.7772 198.428 36.7772Z" fill="#D8E6F0"/>
<path d="M183.451 44.0109H45.4109C40.3471 44.0109 36.2294 48.0989 36.2294 53.1261V147.039C36.2294 152.067 40.3471 156.155 45.4109 156.155H183.451C188.515 156.155 192.633 152.067 192.633 147.039V53.1261C192.633 48.0989 188.515 44.0109 183.451 44.0109ZM191.668 119.398C191.668 139.169 175.524 155.196 155.61 155.196H45.4109C40.8733 155.196 37.1949 151.544 37.1949 147.039V53.1261C37.1949 48.6213 40.8733 44.9694 45.4109 44.9694H183.451C187.989 44.9694 191.668 48.6213 191.668 53.1262V119.398Z" fill="#040709"/>
<path d="M55.947 135.802L55.1301 135.292C55.6611 134.454 56.2091 133.641 56.7583 132.877L57.5442 133.434C57.0056 134.183 56.4684 134.98 55.947 135.802Z" fill="#CCCCCC"/>
<path d="M61.2704 128.972L60.5793 128.302C62.0525 126.804 63.603 125.517 65.1874 124.478L65.7196 125.278C64.1925 126.279 62.6955 127.522 61.2704 128.972ZM85.3563 122.922C84.2035 122.922 83.1532 122.775 82.3669 122.647L82.5229 121.701C83.3196 121.831 84.2792 121.963 85.3563 121.963C86.3077 121.963 87.2427 121.859 88.2148 121.646L88.4231 122.582C87.3818 122.81 86.3786 122.922 85.3563 122.922ZM70.9101 122.795L70.6197 121.881C71.6568 121.556 72.7312 121.313 73.8129 121.157C74.7418 121.024 75.6299 120.959 76.5277 120.959H76.5871V121.917H76.5277C75.6766 121.917 74.8339 121.979 73.9512 122.106C72.9209 122.254 71.8975 122.486 70.9101 122.795ZM93.9224 120.025L93.3053 119.288C94.6375 118.189 95.5924 116.861 96.6036 115.454L97.0068 114.894L97.7903 115.455L97.3894 116.011C96.341 117.469 95.3505 118.847 93.9224 120.025ZM101.665 111.236L101.071 110.481C102.372 109.472 103.843 108.656 105.566 107.983C105.859 107.869 106.14 107.766 106.409 107.675L106.72 108.582C106.464 108.669 106.198 108.766 105.919 108.875C104.283 109.513 102.892 110.286 101.665 111.236ZM113.32 107.907C112.996 107.907 112.687 107.904 112.391 107.901L112.403 106.942C112.705 106.946 113.021 106.947 113.355 106.949C114.492 106.949 116.074 106.917 118.244 106.667L118.355 107.619C116.113 107.877 114.506 107.904 113.32 107.907ZM124.228 106.652L124.037 105.713C125.771 105.365 127.788 104.95 129.785 104.439L130.027 105.367C128.007 105.884 125.975 106.301 124.228 106.652ZM135.714 103.55L135.353 102.661C137.289 101.886 138.969 101.012 140.492 99.9889L141.033 100.783C139.454 101.844 137.714 102.749 135.714 103.55ZM145.469 96.7006L144.685 96.1404C144.955 95.7693 145.187 95.4073 145.412 95.0572C146.077 94.0238 146.765 92.9551 148.402 91.6433L148.516 91.5522L149.114 92.3043L149.008 92.3888C147.494 93.6028 146.878 94.5599 146.226 95.5732C145.994 95.9343 145.754 96.3077 145.469 96.7006ZM154.13 89.5119L153.777 88.6194C155.498 87.9497 157.442 87.4108 159.554 87.0174L159.732 87.9595C157.679 88.3419 155.794 88.8642 154.13 89.5119Z" fill="#CCCCCC"/>
<path d="M165.633 87.2556L165.573 86.299C166.511 86.2408 167.492 86.2024 168.488 86.1846L168.505 87.1431C167.523 87.1604 166.557 87.1983 165.633 87.2556Z" fill="#CCCCCC"/>
<path d="M66.7128 54.3968H53.1674C52.4868 54.3968 51.9316 54.9479 51.9316 55.6236C51.9316 56.3042 52.4868 56.8553 53.1674 56.8553H66.7128C67.3934 56.8553 67.9485 56.3042 67.9485 55.6236C67.9485 54.9479 67.3934 54.3968 66.7128 54.3968Z" fill="#E6E6E6"/>
<path d="M89.4009 54.3968H75.8556C75.175 54.3968 74.6198 54.9479 74.6198 55.6236C74.6198 56.3042 75.175 56.8553 75.8556 56.8553H89.4009C90.0816 56.8553 90.6367 56.3042 90.6367 55.6236C90.6367 54.9479 90.0816 54.3968 89.4009 54.3968Z" fill="#E6E6E6"/>
<path d="M112.089 54.3968H98.5438C97.8631 54.3968 97.308 54.9479 97.308 55.6236C97.308 56.3042 97.8631 56.8553 98.5438 56.8553H112.089C112.77 56.8553 113.325 56.3042 113.325 55.6236C113.325 54.9479 112.77 54.3968 112.089 54.3968Z" fill="#E6E6E6"/>
<path d="M175.013 135.068H51.9181V136.026H175.013V135.068Z" fill="#E6E6E6"/>
<path d="M168.511 65.0977C159.75 65.323 153.214 67.8822 149.072 72.6938C147.541 74.4766 146.919 75.8808 146.262 77.3664C145.611 78.8329 144.944 80.3426 143.395 82.3123V80.6828C144.355 79.2834 144.872 78.1141 145.379 76.9783C146.064 75.4255 146.716 73.959 148.338 72.0756C152.663 67.0435 159.441 64.3741 168.482 64.1393L168.511 65.0977Z" fill="#CCCCCC"/>
<path d="M146.262 77.3664C145.611 78.8329 144.944 80.3426 143.395 82.3123C143.211 82.5471 143.013 82.7915 142.801 83.0455C137.211 89.6447 129.743 91.8109 123.738 93.5554C123.362 93.6656 122.995 93.7663 122.638 93.8621C117.299 95.2998 114.373 95.2471 112.196 95.2136C110.009 95.1752 108.566 95.1513 105.983 96.6178C101.248 99.2968 99.3074 103.217 97.4296 107.008C95.4938 110.909 93.6691 114.594 89.0156 116.324C85.7862 117.523 83.5174 116.928 81.1182 116.305C79.057 115.764 75.342 102.434 72.0526 100.49C65.2607 101.904 61.1333 123.94 55.9826 135.739L55.0944 135.355C60.3803 123.259 64.7345 101.036 71.8499 99.5508C75.0214 98.8894 79.197 114.81 81.3644 115.375C83.6139 115.965 85.7331 116.516 88.6777 115.423C92.974 113.832 94.6346 110.473 96.5606 106.586C98.4143 102.848 100.514 98.6114 105.501 95.7839C108.315 94.188 109.951 94.2168 112.211 94.2551C114.364 94.2934 117.27 94.3413 122.638 92.8701C122.908 92.7934 123.183 92.7167 123.468 92.6352C129.347 90.9291 136.661 88.8061 142.058 82.4321C142.589 81.8043 143.028 81.2244 143.395 80.6828C144.355 79.2834 144.872 78.1141 145.379 76.9783C146.064 75.4255 146.919 75.8808 146.262 77.3664Z" fill="#040709"/>
<path d="M94.7845 187.009C94.4024 185.688 93.748 184.561 92.9689 183.757L90.1384 170.947L83.9686 172.447L87.5042 185.28C87.2717 186.366 87.3182 187.662 87.7003 188.983C88.5733 192.001 90.8668 194.006 92.823 193.46C94.7793 192.915 95.6575 190.026 94.7845 187.009Z" fill="#FFB6B6"/>
<path d="M93.9309 102.977C93.9309 102.977 84.1875 102.779 81.7099 109.823C79.4549 116.235 76.7816 133.85 78.2267 134.868L84.3779 178.233L93.1495 177.037L90.8983 125.005L93.9309 102.977Z" fill="#90C4F2"/>
<path d="M139.05 183.472L137.322 229H114.393L113.466 208.598L109.392 229H84.8159L87.8812 193.929L91.0479 186.553L93.1912 181.555L139.05 183.472Z" fill="#2F2E41"/>
<path d="M120.707 94.3318L104.777 93.3733L99.4667 100.083L87.8812 104.396L93.1912 155.675L90.7776 186.347C90.7776 186.347 124.568 213.185 139.05 183.472L135.188 147.528L136.154 105.834L125.051 101.041L120.707 94.3318Z" fill="#90C4F2"/>
<path d="M151.374 82.6675C151.547 84.329 151.328 85.8915 150.822 87.1443L153.476 102.869L145.902 103.904L144.026 87.8412C143.273 86.7174 142.737 85.2324 142.564 83.5708C142.169 79.7751 143.821 76.4958 146.254 76.2464C148.687 75.9969 150.98 78.8717 151.374 82.6675Z" fill="#FFB6B6"/>
<path d="M138.182 107.634C135.571 103.204 129.095 102.786 126.194 107.035C125.401 108.197 125.622 109.502 125.433 111.071C124.629 117.731 137.484 137.41 146.378 139.676C147.545 139.974 148.21 141.224 149.388 141.475C152.878 142.22 156.128 139.47 155.939 135.931L153.523 90.5422L143.373 93.9794L144.022 117.544L138.182 107.634Z" fill="#90C4F2"/>
<path d="M114.395 92.1331C122.144 92.1331 128.427 85.8961 128.427 78.2025C128.427 70.5088 122.144 64.2719 114.395 64.2719C106.645 64.2719 100.363 70.5088 100.363 78.2025C100.363 85.8961 106.645 92.1331 114.395 92.1331Z" fill="#FFB6B6"/>
<path d="M127.465 67.9732C127.344 68.002 129.312 66.0979 129.396 66.0562C131.327 65.0977 129.343 74.467 127.948 74.2034C124.515 73.5564 123.033 72.272 121.701 75.4782C121.329 76.3696 121.098 77.376 120.374 78.0134C119.379 78.8809 117.728 78.809 116.917 79.8441C116.266 80.678 116.454 81.9049 116.937 82.8442C117.419 83.7884 118.153 84.5887 118.592 85.552C119.085 86.6351 116.985 90.0809 116.184 92.017V92.0218L116.179 92.0331C115.966 92.541 115.46 91.078 114.926 90.932C114.286 90.7572 113.345 92.2558 112.327 91.9835C112.322 91.9835 112.317 91.9787 112.312 91.9787C111.342 91.7103 110.26 91.4227 109.189 91.1352H109.184C106.167 90.3205 105.404 91.4898 105.259 91.4563L103.386 89.5105C102.744 89.0459 102.816 87.5459 102.363 87.1431C101.992 86.8136 101.068 87.5749 100.796 87.2582C99.4605 85.7055 99.1533 84.1521 98.3661 81.0854C97.6468 78.2818 96.1552 69.8902 99.2205 69.5116C102.112 69.1521 99.9977 65.1552 102.909 65.3038C102.735 64.5754 103.058 63.7942 103.584 63.2574C104.106 62.7159 104.801 62.3804 105.501 62.0929C108.952 60.6935 108.378 59.4906 112.018 60.3053C112.38 59.8021 117.637 60.1375 118.293 60.3053C118.341 60.3148 116.666 60.7127 119.259 60.3053C119.162 60.8948 120.803 61.1536 120.707 61.743C121.069 61.259 124.96 64.0386 125.051 64.6185C125.172 65.3422 124.071 64.9731 124.805 65.0834C125.239 65.1505 125.983 66.0275 125.91 66.4636C126.224 66.0418 126.538 65.6249 126.857 65.2032C126.915 65.208 126.968 65.2176 127.026 65.2271C128.493 65.5051 126.811 70.2678 126.871 68.7831C126.982 66.0562 128.928 67.6521 127.465 67.9732Z" fill="#2F2E41"/>
<path d="M181.221 142.118C181.329 142.383 181.703 142.383 181.811 142.118C182.564 140.273 183.637 138.207 184.805 136.628C184.992 136.376 184.734 136.038 184.437 136.145L181.935 137.043V121.666H181.097V137.043L178.594 136.144C178.297 136.038 178.04 136.376 178.226 136.628C179.394 138.207 180.467 140.273 181.221 142.118Z" fill="#3F3D56"/>
<path d="M197.629 157.951C197.549 158.225 197.841 158.455 198.091 158.315C199.837 157.336 201.971 156.38 203.875 155.865C204.179 155.782 204.189 155.359 203.89 155.259L201.367 154.418L211 142.376L210.344 141.859L200.711 153.9L199.314 151.651C199.149 151.384 198.735 151.49 198.723 151.803C198.648 153.76 198.194 156.041 197.629 157.951Z" fill="#3F3D56"/>
<path d="M189.793 168.213H173.515C172.504 168.213 171.682 167.397 171.682 166.393C169.53 160.148 169.572 154.028 171.682 148.027C171.682 147.024 172.504 146.207 173.515 146.207H189.793C190.804 146.207 191.626 147.024 191.626 148.027V166.393C191.626 167.397 190.804 168.213 189.793 168.213Z" fill="#E6E6E6"/>
<path d="M177.003 146.75C174.366 146.75 172.228 148.872 172.228 151.49V166.004C172.228 166.924 172.98 167.671 173.908 167.671H182.909C187.422 167.671 191.08 164.039 191.08 159.559V148.417C191.08 147.496 190.328 146.75 189.401 146.75H177.003Z" fill="white"/>
<path d="M185.445 152.087H177.824C177.632 152.087 177.475 151.932 177.475 151.741C177.475 151.55 177.632 151.395 177.824 151.395H185.445C185.637 151.395 185.793 151.55 185.793 151.741C185.793 151.932 185.637 152.087 185.445 152.087Z" fill="#E6E6E6"/>
<path d="M185.445 159.464H177.824C177.632 159.464 177.475 159.308 177.475 159.118C177.475 158.927 177.632 158.772 177.824 158.772H185.445C185.637 158.772 185.793 158.927 185.793 159.118C185.793 159.308 185.637 159.464 185.445 159.464Z" fill="#E6E6E6"/>
<path d="M189.535 155.778H173.734C173.542 155.778 173.386 155.622 173.386 155.432C173.386 155.241 173.542 155.086 173.734 155.086H189.535C189.727 155.086 189.883 155.241 189.883 155.432C189.883 155.622 189.727 155.778 189.535 155.778Z" fill="#E6E6E6"/>
<path d="M189.721 162.463H183.128C182.936 162.463 182.78 162.308 182.78 162.117C182.78 161.926 182.936 161.771 183.128 161.771H189.721C189.913 161.771 190.07 161.926 190.07 162.117C190.07 162.308 189.913 162.463 189.721 162.463Z" fill="#E6E6E6"/>
<path d="M42.0164 30.8481C45.3391 30.8481 48.0327 28.2303 48.0327 25.001C48.0327 21.7717 45.3391 19.1539 42.0164 19.1539C38.6936 19.1539 36 21.7717 36 25.001C36 28.2303 38.6936 30.8481 42.0164 30.8481Z" fill="#90C4F2"/>
<path d="M90.247 23.0007H57.8633C56.7523 23.0007 55.8484 22.1033 55.8484 21.0003C55.8484 19.8974 56.7523 19 57.8633 19H90.247C91.3579 19 92.2618 19.8974 92.2618 21.0003C92.2618 22.1033 91.3579 23.0007 90.247 23.0007Z" fill="#D8E6F0"/>
<path d="M115.519 29.771H57.8633C56.7523 29.771 55.8484 28.8737 55.8484 27.7707C55.8484 26.6678 56.7523 25.7704 57.8633 25.7704H115.519C116.63 25.7704 117.534 26.6678 117.534 27.7707C117.534 28.8737 116.63 29.771 115.519 29.771Z" fill="#D8E6F0"/>
</g>
<defs>
<clipPath id="clip0_33_3">
<rect width="175" height="210" fill="white" transform="translate(36 19)"/>
</clipPath>
</defs>
</svg>
