<svg width="248" height="248" viewBox="0 0 248 248" fill="none" xmlns="http://www.w3.org/2000/svg">
<g clip-path="url(#clip0_33_2)">
<rect width="248" height="248" fill="white"/>
<g clip-path="url(#clip1_33_2)">
<path opacity="0.1" d="M82.7822 211.901C94.9083 211.901 104.738 210.326 104.738 208.382C104.738 206.439 94.9083 204.863 82.7822 204.863C70.6561 204.863 60.8259 206.439 60.8259 208.382C60.8259 210.326 70.6561 211.901 82.7822 211.901Z" fill="#90C4F2"/>
<path opacity="0.1" d="M202.133 212C217.265 212 229.531 210.425 229.531 208.481C229.531 206.538 217.265 204.962 202.133 204.962C187.002 204.962 174.735 206.538 174.735 208.481C174.735 210.425 187.002 212 202.133 212Z" fill="#90C4F2"/>
<path opacity="0.1" d="M3.11859 112.045H25.9875V143.148H4.7928C4.73647 143.468 4.68239 143.789 4.6238 144.111H25.9875V169.195C25.9491 169.184 25.9153 169.17 25.8793 169.157C25.2754 168.919 24.676 168.667 24.0766 168.397L23.6936 168.224C23.0927 167.94 22.4918 167.641 21.8909 167.324C21.6814 167.214 21.4718 167.099 21.2645 166.983C17.9287 165.118 14.8982 162.755 12.2783 159.976C12.2017 159.902 12.1296 159.823 12.053 159.751C11.6879 159.356 11.3297 158.955 10.9827 158.546L10.5996 158.096C10.1895 157.595 9.7929 157.08 9.40758 156.558C9.35125 156.482 9.29717 156.406 9.23859 156.334C7.67151 154.165 6.37035 151.818 5.36289 149.341C5.33134 149.267 5.3043 149.186 5.27501 149.116C4.96556 148.321 4.6914 147.519 4.45255 146.71C4.3489 146.37 4.24975 146.035 4.16413 145.682C4.13258 145.579 4.10554 145.478 4.08076 145.377C2.80087 140.392 2.6499 135.213 2.6499 130.071C2.6499 129.471 2.6499 128.868 2.6499 128.272C2.6499 126.192 2.67469 124.099 2.71074 122.008C2.71074 121.466 2.73327 120.926 2.74454 120.382C2.77609 119.002 2.82115 117.621 2.87974 116.24C2.89326 115.856 2.91129 115.474 2.93157 115.091C2.93157 114.871 2.94283 114.651 2.96537 114.43C3.01945 113.63 3.06451 112.836 3.11859 112.045Z" fill="#90C4F2"/>
<path opacity="0.1" d="M25.9874 77.4131H13.4432C15.4824 74.2282 17.7103 71.1678 20.1153 68.2482C21.9788 65.9637 23.9459 63.7376 25.9874 61.5926V77.4131Z" fill="#90C4F2"/>
<path opacity="0.1" d="M25.9874 78.3755V111.082H3.19067C3.19067 110.988 3.20645 110.891 3.21321 110.797C3.23349 110.538 3.25377 110.28 3.2763 110.023C3.30109 109.722 3.32813 109.418 3.35742 109.124C3.38671 108.829 3.41826 108.47 3.45206 108.144C3.48586 107.817 3.5174 107.487 3.55571 107.161C3.59402 106.835 3.62782 106.509 3.66838 106.185C3.70894 105.861 3.74499 105.533 3.7878 105.209C3.8216 104.939 3.85765 104.672 3.89371 104.402C3.94553 104.022 3.99961 103.64 4.0582 103.262C4.0582 103.206 4.07397 103.147 4.08299 103.093C4.49426 100.328 5.05464 97.5869 5.7617 94.8818C6.50182 92.0441 7.44693 89.2637 8.58961 86.5623C9.80407 83.7363 11.226 81.0037 12.8439 78.3867L25.9874 78.3755Z" fill="#90C4F2"/>
<path opacity="0.1" d="M31.4472 112.042V143.148H80.2923V112.042H31.4472ZM31.4472 144.108V170.821C31.7266 170.879 32.0038 170.935 32.2787 170.983C32.6527 171.055 33.0245 171.12 33.4053 171.176C33.4774 171.187 33.5518 171.198 33.6307 171.205C33.7794 171.23 33.9326 171.25 34.0813 171.27C34.4576 171.322 34.8317 171.365 35.208 171.399C35.386 171.417 35.5663 171.432 35.7465 171.446L36.1814 171.48C36.418 171.498 36.6524 171.511 36.8844 171.518C37.0287 171.518 37.1729 171.531 37.3216 171.536C37.4343 171.536 37.5469 171.536 37.6641 171.536C37.7813 171.536 37.948 171.536 38.09 171.536C38.2838 171.536 38.4775 171.536 38.6691 171.536H38.9282C39.122 171.536 39.3158 171.536 39.5073 171.518H39.5208C39.6538 171.518 39.789 171.518 39.9242 171.5C39.9617 171.502 39.9993 171.502 40.0368 171.5C40.1495 171.5 40.2622 171.5 40.3703 171.484H40.4492L41.204 171.426C41.4519 171.403 41.702 171.374 41.9544 171.347L42.4682 171.286C44.5583 170.994 46.6252 170.555 48.6535 169.973C53.2097 168.705 57.6667 166.931 62.2207 165.631C68.1086 163.956 74.6139 163.133 80.3035 165.181V144.108H31.4472ZM80.2923 77.4131V36.0022C74.9445 35.9444 69.6114 36.5686 64.4222 37.8595C52.0537 40.9602 40.9562 47.6855 31.4472 56.2748V77.4108H33.8988V78.3709H31.4472V111.082H80.2923V78.3732H43.9644V77.4131H80.2923ZM143.031 63.4251C139.971 63.3172 136.929 62.3503 134.178 60.8573C128.916 58.0017 124.714 53.5923 120.018 49.8711C110.261 42.1204 98.161 37.4435 85.7475 36.2833V77.4131H155.476L155.65 77.231L143.031 63.4251ZM149.383 62.3008L156.118 69.676V60.3671C153.863 60.6459 151.887 61.3092 149.392 62.2918L149.383 62.3008ZM156.118 177.454V144.108H141.767C141.729 143.967 141.69 143.823 141.645 143.679C141.688 143.823 141.724 143.967 141.765 144.108H85.7565V168.224C86.2883 168.617 86.8133 169.031 87.3339 169.451C87.8949 169.901 88.4492 170.376 89.0058 170.841L89.5669 171.304C89.835 171.529 90.1054 171.754 90.3781 171.965C90.9189 172.403 91.4649 172.835 92.0162 173.26C92.2889 173.485 92.5683 173.688 92.8454 173.899C97.2455 177.256 101.887 180.285 106.733 182.963C107.819 183.562 108.915 184.148 110.02 184.719C110.757 185.094 111.498 185.468 112.242 185.83C113.36 186.374 114.486 186.898 115.622 187.404C126.092 192.094 137.164 195.312 148.52 196.966C151.042 197.338 153.574 197.63 156.116 197.843V177.452H156.342L156.118 177.454ZM85.7565 78.3732V111.082H156.127V78.3732H85.7565ZM85.7565 112.042V143.148H156.127V112.042H85.7565ZM161.589 60.3266V70.7103L170.186 61.298C167.338 60.8393 164.472 60.5118 161.589 60.3154V60.3266ZM161.589 112.054V143.148H230.034V112.042L161.589 112.054ZM229.784 179.923L230.025 144.108H161.589V198.201C165.998 198.386 170.413 198.333 174.816 198.043H174.893C176.996 197.912 179.089 197.72 181.173 197.468H181.22C192.336 196.177 203.205 193.283 213.488 188.876M243.232 117.165C242.975 116.56 242.706 115.959 242.434 115.366C241.925 114.241 241.386 113.149 240.832 112.056H235.491V143.148H248.993C248.986 134.343 246.753 125.349 243.238 117.153L243.232 117.165ZM235.491 144.12V174.924C239.295 171.286 242.508 167.124 244.822 162.366C247.605 156.637 248.878 150.433 248.982 144.115L235.491 144.12ZM235.491 102.99V111.085H240.331C238.867 108.298 237.254 105.592 235.498 102.979L235.491 102.99ZM189.073 66.4291C188.717 66.2942 188.361 66.157 188.003 66.0244C184.224 64.6319 180.363 63.474 176.441 62.5572L163.286 76.9634L163.034 77.231L163.203 77.4153H210.022C203.502 72.9364 196.472 69.2448 189.08 66.4179L189.073 66.4291ZM211.394 78.3844H162.549L161.589 79.2614V111.082H170.003H170.017H230.043V95.6687C224.613 89.1156 218.346 83.3009 211.401 78.3732L211.394 78.3844Z" fill="#90C4F2"/>
<path opacity="0.1" d="M25.9874 94.8728V111.082H3.19067C3.19067 110.988 3.20645 110.891 3.21321 110.797C3.23349 110.538 3.25377 110.28 3.2763 110.023C3.30109 109.722 3.32813 109.418 3.35742 109.124C3.38671 108.829 3.41826 108.47 3.45206 108.143C3.48586 107.817 3.5174 107.487 3.55571 107.161C3.59402 106.835 3.62782 106.509 3.66838 106.185C3.70894 105.861 3.74499 105.533 3.7878 105.209C3.8216 104.939 3.85765 104.672 3.89371 104.402C3.94553 104.022 3.99961 103.64 4.0582 103.262C4.0582 103.206 4.07397 103.147 4.08299 103.093C4.49426 100.328 5.05464 97.5869 5.7617 94.8818L25.9874 94.8728Z" fill="#90C4F2"/>
<path opacity="0.1" d="M3.11859 112.045H25.9875V143.148H4.7928C4.73647 143.468 4.68239 143.789 4.6238 144.111H25.9875V169.195C25.9491 169.184 25.9153 169.17 25.8793 169.157C25.2754 168.919 24.676 168.667 24.0766 168.397L23.6936 168.224C23.0927 167.94 22.4918 167.641 21.8909 167.324C21.6814 167.214 21.4718 167.099 21.2645 166.983C17.9287 165.118 14.8982 162.755 12.2783 159.976C12.2017 159.902 12.1296 159.823 12.053 159.751C11.6879 159.356 11.3297 158.955 10.9827 158.546L10.5996 158.096C10.1895 157.595 9.7929 157.08 9.40758 156.558C9.35125 156.482 9.29717 156.406 9.23859 156.334C7.67151 154.165 6.37035 151.818 5.36289 149.341C5.33134 149.267 5.3043 149.186 5.27501 149.116C4.96556 148.321 4.6914 147.519 4.45255 146.71C4.3489 146.37 4.24975 146.035 4.16413 145.682C4.13258 145.579 4.10554 145.478 4.08076 145.377C2.80087 140.392 2.6499 135.213 2.6499 130.071C2.6499 129.471 2.6499 128.868 2.6499 128.272C2.6499 126.192 2.67469 124.099 2.71074 122.008C2.71074 121.466 2.73327 120.926 2.74454 120.382C2.77609 119.002 2.82115 117.621 2.87974 116.24C2.89326 115.856 2.91129 115.474 2.93157 115.091C2.93157 114.871 2.94283 114.651 2.96537 114.43C3.01945 113.63 3.06451 112.836 3.11859 112.045Z" fill="#90C4F2"/>
<path opacity="0.1" d="M48.6422 83.0568V111.082H31.4472V83.0568H33.8988V73.5681H43.9621V83.0568H48.6422Z" fill="#90C4F2"/>
<path opacity="0.1" d="M48.6422 112.042H31.4495V143.146H48.6422V112.042Z" fill="#90C4F2"/>
<path opacity="0.1" d="M31.4472 144.111H48.6422V169.969C46.6139 170.55 44.547 170.988 42.4569 171.279L41.9431 171.342C41.6908 171.372 41.4406 171.396 41.1928 171.421C40.9449 171.446 40.688 171.464 40.4379 171.48H40.3591C40.2509 171.48 40.1337 171.493 40.0278 171.495H39.9129C39.7777 171.495 39.6425 171.509 39.5073 171.513C39.3158 171.525 39.1242 171.527 38.9282 171.529C38.8448 171.529 38.766 171.529 38.6826 171.529C38.4888 171.529 38.2973 171.529 38.1035 171.529H37.6776C37.5627 171.529 37.4523 171.529 37.3329 171.529L36.898 171.513C36.6726 171.513 36.4293 171.489 36.1949 171.473L35.7623 171.441L35.2238 171.392C34.8452 171.358 34.4689 171.315 34.0971 171.264L33.6464 171.201L33.4211 171.169C33.0448 171.111 32.673 171.048 32.2944 170.976C32.0173 170.929 31.7424 170.87 31.463 170.814L31.4472 144.111Z" fill="#90C4F2"/>
<path opacity="0.1" d="M156.127 79.747H141.95V111.08H156.127V79.747Z" fill="#90C4F2"/>
<path opacity="0.1" d="M156.13 112.042V143.148H85.7565V129.731H123.24V137.646H141.95V112.042H156.13Z" fill="#90C4F2"/>
<path opacity="0.1" d="M156.353 177.461H156.127V197.866C153.589 197.652 151.058 197.36 148.534 196.991C137.172 195.331 126.096 192.106 115.622 187.408C112.598 186.05 109.636 184.567 106.735 182.96C101.889 180.282 97.2472 177.252 92.8454 173.897C91.7398 173.051 90.6485 172.186 89.5714 171.302C88.8255 170.688 88.0842 170.059 87.3338 169.447C86.8133 169.026 86.2883 168.613 85.7565 168.217V144.111H141.763C141.724 143.967 141.686 143.823 141.645 143.681C141.688 143.823 141.729 143.967 141.767 144.111H156.127V177.447C156.204 177.449 156.278 177.456 156.353 177.461Z" fill="#90C4F2"/>
<path opacity="0.1" d="M193.104 77.4131H183.866V74.5485H188.007V66.0154C188.366 66.1458 188.724 66.28 189.08 66.4179V74.5485H193.104V77.4131Z" fill="#90C4F2"/>
<path opacity="0.1" d="M215.363 111.082H170.008C170.008 111.082 170.008 111.082 170.024 111.094L170.003 111.082H161.589V79.7493H163.973V102.909H174.868V89.1931H183.868V78.3755H193.107V89.202H202.106V102.918H215.363V111.082Z" fill="#90C4F2"/>
<path opacity="0.1" d="M161.589 112.042V143.148H215.363V112.042H161.589ZM229.959 179.763L230.034 155.142H215.363V144.124H161.589V198.201C165.998 198.386 170.413 198.333 174.816 198.043H174.893C176.996 197.912 179.089 197.72 181.173 197.468H181.22C192.336 196.177 203.205 193.283 213.488 188.876" fill="#90C4F2"/>
<path opacity="0.1" d="M236.447 144.111H248.991C248.881 150.427 247.61 156.63 244.829 162.36C242.515 167.12 239.299 171.282 235.5 174.918V155.131H236.447V144.111Z" fill="#90C4F2"/>
<path opacity="0.1" d="M248.998 143.148H236.447V117.153H243.238C246.753 125.349 248.986 134.343 248.998 143.148Z" fill="#90C4F2"/>
<path opacity="0.1" d="M156.13 88.4578H148.534V98.2815H156.13V88.4578Z" fill="#90C4F2"/>
<path opacity="0.1" d="M156.13 108.82H148.534V111.082H156.13V108.82Z" fill="#90C4F2"/>
<path opacity="0.1" d="M156.13 112.042H148.534V118.642H156.13V112.042Z" fill="#90C4F2"/>
<path opacity="0.1" d="M156.13 129.183H148.534V139.007H156.13V129.183Z" fill="#90C4F2"/>
<path opacity="0.1" d="M156.13 149.545H148.534V159.369H156.13V149.545Z" fill="#90C4F2"/>
<path opacity="0.1" d="M156.127 177.447C156.204 177.447 156.278 177.447 156.353 177.461H156.127V179.743H148.534V169.908H156.127V177.447Z" fill="#90C4F2"/>
<path opacity="0.1" d="M156.127 190.266V197.855C153.589 197.64 151.058 197.349 148.534 196.98V190.266H156.127Z" fill="#90C4F2"/>
<path opacity="0.1" d="M118.31 142.427H85.7565V143.148H118.31V142.427Z" fill="#90C4F2"/>
<path opacity="0.1" d="M118.31 144.108H85.7565V146.874H118.31V144.108Z" fill="#90C4F2"/>
<path opacity="0.1" d="M118.31 155.94H85.7565V160.388H118.31V155.94Z" fill="#90C4F2"/>
<path opacity="0.1" d="M118.308 169.454V173.901H92.8455C91.7398 173.059 90.6477 172.194 89.5691 171.306C88.8233 170.693 88.0842 170.063 87.3316 169.454H118.308Z" fill="#90C4F2"/>
<path opacity="0.1" d="M118.308 182.965V187.408H115.62C112.599 186.048 109.637 184.565 106.735 182.958L118.308 182.965Z" fill="#90C4F2"/>
<path opacity="0.1" d="M181.227 115.058H174.819V121.452H181.227V115.058Z" fill="#90C4F2"/>
<path opacity="0.1" d="M42.4727 85.2626H36.0643V91.6574H42.4727V85.2626Z" fill="#90C4F2"/>
<path opacity="0.1" d="M42.4727 100.116H36.0643V106.511H42.4727V100.116Z" fill="#90C4F2"/>
<path opacity="0.1" d="M42.4727 114.97H36.0643V121.365H42.4727V114.97Z" fill="#90C4F2"/>
<path opacity="0.1" d="M42.4727 129.821H36.0643V136.216H42.4727V129.821Z" fill="#90C4F2"/>
<path opacity="0.1" d="M42.4727 144.675H36.0643V151.07H42.4727V144.675Z" fill="#90C4F2"/>
<path opacity="0.1" d="M42.4727 159.529H36.0643V165.924H42.4727V159.529Z" fill="#90C4F2"/>
<path opacity="0.1" d="M205.691 115.058H199.283V121.452H205.691V115.058Z" fill="#90C4F2"/>
<path opacity="0.1" d="M181.227 130.831H174.819V137.226H181.227V130.831Z" fill="#90C4F2"/>
<path opacity="0.1" d="M205.691 130.831H199.283V137.226H205.691V130.831Z" fill="#90C4F2"/>
<path opacity="0.1" d="M181.227 146.602H174.819V152.997H181.227V146.602Z" fill="#90C4F2"/>
<path opacity="0.1" d="M205.691 146.602H199.283V152.997H205.691V146.602Z" fill="#90C4F2"/>
<path opacity="0.1" d="M181.227 162.375H174.819V168.77H181.227V162.375Z" fill="#90C4F2"/>
<path opacity="0.1" d="M205.691 162.375H199.283V168.77H205.691V162.375Z" fill="#90C4F2"/>
<path opacity="0.1" d="M181.227 178.149H174.819V184.543H181.227V178.149Z" fill="#90C4F2"/>
<path opacity="0.1" d="M205.691 178.149H199.283V184.543H205.691V178.149Z" fill="#90C4F2"/>
<path opacity="0.1" d="M174.819 198.043V193.92H181.225V197.457L174.819 198.043Z" fill="#90C4F2"/>
<path opacity="0.1" d="M4.05597 103.089V106.747H25.9875V103.089H4.05597ZM6.24168 106.518H4.45255V103.314H6.2552L6.24168 106.518ZM8.42514 106.518H6.62249V103.314H8.42514V106.518ZM10.6041 106.518H8.80145V103.314H10.6041V106.518ZM12.7876 106.518H10.9872V103.314H12.7898L12.7876 106.518ZM14.9688 106.518H13.1661V103.314H14.9688V106.518ZM17.1522 106.518H15.3496V103.314H17.1522V106.518ZM19.3357 106.518H17.533V103.314H19.3357V106.518ZM21.5169 106.518H19.7142V103.314H21.5169V106.518ZM23.6981 106.518H21.8954V103.314H23.6981V106.518ZM25.8793 106.518H24.0766V103.314H25.8793V106.518Z" fill="#90C4F2"/>
<path opacity="0.1" d="M4.05597 113.733V117.392H25.9875V113.733H4.05597ZM6.24168 117.16H4.45255V113.965H6.2552L6.24168 117.16ZM8.42514 117.16H6.62249V113.965H8.42514V117.16ZM10.6041 117.16H8.80145V113.965H10.6041V117.16ZM12.7876 117.16H10.9872V113.965H12.7898L12.7876 117.16ZM14.9688 117.16H13.1661V113.965H14.9688V117.16ZM17.1522 117.16H15.3496V113.965H17.1522V117.16ZM19.3357 117.16H17.533V113.965H19.3357V117.16ZM21.5169 117.16H19.7142V113.965H21.5169V117.16ZM23.6981 117.16H21.8954V113.965H23.6981V117.16ZM25.8793 117.16H24.0766V113.965H25.8793V117.16Z" fill="#90C4F2"/>
<path opacity="0.1" d="M4.05597 124.382V128.047H25.9875V124.382H4.05597ZM6.24168 127.809H4.45255V124.612H6.2552L6.24168 127.809ZM8.42514 127.809H6.62249V124.612H8.42514V127.809ZM10.6041 127.809H8.80145V124.612H10.6041V127.809ZM12.7876 127.809H10.9872V124.612H12.7898L12.7876 127.809ZM14.9688 127.809H13.1661V124.612H14.9688V127.809ZM17.1522 127.809H15.3496V124.612H17.1522V127.809ZM19.3357 127.809H17.533V124.612H19.3357V127.809ZM21.5169 127.809H19.7142V124.612H21.5169V127.809ZM23.6981 127.809H21.8954V124.612H23.6981V127.809ZM25.8793 127.809H24.0766V124.612H25.8793V127.809Z" fill="#90C4F2"/>
<path opacity="0.1" d="M4.05597 135.031V138.685H25.9875V135.031H4.05597ZM6.24168 138.458H4.45255V135.258H6.2552L6.24168 138.458ZM8.42514 138.458H6.62249V135.258H8.42514V138.458ZM10.6041 138.458H8.80145V135.258H10.6041V138.458ZM12.7876 138.458H10.9872V135.258H12.7898L12.7876 138.458ZM14.9688 138.458H13.1661V135.258H14.9688V138.458ZM17.1522 138.458H15.3496V135.258H17.1522V138.458ZM19.3357 138.458H17.533V135.258H19.3357V138.458ZM21.5169 138.458H19.7142V135.258H21.5169V138.458ZM23.6981 138.458H21.8954V135.258H23.6981V138.458ZM25.8793 138.458H24.0766V135.258H25.8793V138.458Z" fill="#90C4F2"/>
<path opacity="0.1" d="M4.15057 145.678C4.23845 146.022 4.3376 146.366 4.44125 146.705V145.907H6.2439V149.105H5.27948C5.30877 149.179 5.33807 149.26 5.36736 149.329H25.9874V145.678H4.15057ZM8.43187 149.105H6.62922V145.907H8.43187V149.105ZM10.6108 149.105H8.80817V145.907H10.6108V149.105ZM12.7943 149.105H10.9871V145.907H12.7898L12.7943 149.105ZM14.9755 149.105H13.1728V145.907H14.9755V149.105ZM17.1589 149.105H15.3563V145.907H17.1589V149.105ZM19.3424 149.105H17.5398V145.907H19.3424V149.105ZM21.5236 149.105H19.721V145.907H21.5236V149.105ZM23.7048 149.105H21.9022V145.907H23.7048V149.105ZM25.886 149.105H24.0834V145.907H25.886V149.105Z" fill="#90C4F2"/>
<path opacity="0.1" d="M9.2431 156.327C9.29944 156.399 9.35352 156.48 9.4121 156.552H10.6041V158.087C10.7325 158.24 10.8587 158.393 10.9894 158.537V156.543H12.7921V159.751H12.062C12.1341 159.826 12.204 159.904 12.2873 159.976H25.9942V156.327H9.2431ZM14.9688 159.751H13.1661V156.556H14.9688V159.751ZM17.1522 159.751H15.3496V156.556H17.1522V159.751ZM19.3357 159.751H17.533V156.556H19.3357V159.751ZM21.5169 159.751H19.7142V156.556H21.5169V159.751ZM23.6981 159.751H21.8954V156.556H23.6981V159.751ZM25.8793 159.751H24.0767V156.556H25.8793V159.751Z" fill="#90C4F2"/>
<path opacity="0.1" d="M21.2735 166.974C21.4785 167.09 21.6881 167.198 21.8999 167.315V167.203H23.7026V168.215L24.0856 168.392V167.203H25.8883V169.148C25.9229 169.165 25.9591 169.179 25.9964 169.188V166.974H21.2735Z" fill="#90C4F2"/>
<path opacity="0.1" d="M141.645 143.679C141.688 143.823 141.724 143.967 141.765 144.108C141.729 143.967 141.691 143.823 141.645 143.679ZM33.9078 77.4063V78.3665H43.9734V77.4063H33.9078ZM141.645 143.679C141.688 143.823 141.724 143.967 141.765 144.108C141.729 143.967 141.691 143.823 141.645 143.679ZM141.645 143.679C141.688 143.823 141.724 143.967 141.765 144.108C141.729 143.967 141.691 143.823 141.645 143.679Z" fill="#90C4F2"/>
<path d="M104.013 121.369C104.013 121.369 103.125 121.246 103.125 119.955C103.125 118.664 102.49 116.254 102.49 116.254C102.49 116.243 101.94 112.056 101.18 111.39C100.421 110.725 99.4454 106.817 99.4454 106.817C99.4454 106.817 99.2787 104.697 98.9384 104.24C98.5982 103.784 98.1385 102.666 97.4603 101.072C96.782 99.4777 93.9541 98.3737 93.9541 98.3737C93.9541 98.3737 88.8413 95.4147 87.3925 94.4501C87.2608 94.3708 87.1377 94.2781 87.0252 94.1735C86.7728 93.843 85.6732 93.8362 85.6732 93.8362C85.5583 93.1122 85.4479 92.2803 85.4118 91.527C85.4118 91.4461 85.4118 91.3651 85.4005 91.2842C87.0161 90.3312 88.233 88.8287 88.8278 87.0525C88.8549 86.967 88.8774 86.8771 88.9022 86.7916C88.999 86.7598 89.0881 86.7082 89.1637 86.64C89.2394 86.5719 89.3 86.4887 89.3416 86.3959C89.4723 86.1058 89.4745 85.7663 89.6368 85.4965C89.826 85.1772 90.1866 85.0063 90.4705 84.7657C91.187 84.1586 91.3718 83.1356 91.338 82.2047C91.3155 81.4514 91.1938 80.6914 91.2411 79.9427L91.2546 79.7538C91.2682 79.6414 91.2839 79.5289 91.3042 79.421C91.4146 78.8634 91.6557 78.3372 91.7909 77.7841C91.9261 77.231 91.9396 76.6081 91.6242 76.1314C91.1622 75.4322 90.2001 75.2928 89.3551 75.2208C88.3974 75.1399 87.5412 75.2455 86.9283 74.4518C86.6414 74.037 86.3187 73.648 85.9639 73.2893C85.8377 73.1724 84.6119 72.4259 84.6119 72.3764C83.4155 71.8235 82.0594 71.7197 80.7925 72.0841C80.1571 72.2685 79.5577 72.5698 78.9133 72.7205C77.523 73.0487 75.9231 72.6935 74.7424 73.4872C74.0844 73.9369 73.6901 74.6519 73.3205 75.349C73.0201 75.9231 72.7151 76.4965 72.4057 77.0691C71.9077 78.0112 71.4007 78.9691 71.1911 80.0124C71.1471 80.2394 71.12 80.4694 71.11 80.7004V80.7117C71.11 80.7949 71.11 80.8781 71.11 80.9612V81.0669C71.11 81.1456 71.11 81.2221 71.1236 81.2918C71.1371 81.3615 71.1348 81.384 71.1416 81.4312C71.1483 81.4784 71.1596 81.5841 71.1731 81.656C71.1866 81.728 71.2137 81.8539 71.2407 81.9528C71.252 81.9956 71.2678 82.036 71.2813 82.0765C71.3038 82.153 71.3309 82.2272 71.3601 82.3014C71.3759 82.3396 71.3917 82.3801 71.4097 82.4183C71.4435 82.497 71.4841 82.5734 71.5246 82.6431C71.5427 82.6746 71.5562 82.7038 71.5742 82.7331C71.6371 82.8376 71.7063 82.9383 71.7815 83.0344C72.2637 83.6347 72.9735 84.017 73.4985 84.5791C73.4985 84.6016 73.4985 84.6241 73.4985 84.6443C73.4985 84.7073 73.4985 84.768 73.4985 84.8309C73.5264 86.0846 73.8608 87.3125 74.4726 88.4078C75.0845 89.5031 75.9553 90.4326 77.0092 91.1155C77.0092 91.201 77.0205 91.2887 77.025 91.3741C77.0689 92.0415 77.0606 92.7114 77.0002 93.3775C76.9084 93.2697 76.7936 93.1838 76.6641 93.1262C76.5346 93.0686 76.3938 93.0408 76.2521 93.0447C76.1553 93.04 76.0583 93.0484 75.9637 93.0695L75.9434 93.0537V93.074C75.4477 93.1954 74.837 93.7103 74.2534 95.1741C74.2534 95.1741 72.4778 97.1708 71.1258 97.0876C69.7738 97.0044 66.351 99.1652 66.351 99.1652C66.351 99.1652 63.0116 101.328 62.2951 103.532C61.8946 104.781 61.4144 106.004 60.8575 107.192L56.7294 115.681L55.9678 122.415C55.9678 122.415 56.3891 125.41 56.3058 125.866C56.2224 126.323 58.0386 130.44 58.0386 130.44C58.0386 130.44 64.0391 140.961 66.4907 141.5L66.6665 141.377C66.7714 141.431 66.8826 141.473 66.9977 141.5L67.5025 141.145C67.5328 141.541 67.5199 141.939 67.4642 142.332C67.1262 143.371 67.5904 150.15 68.1807 151.479C68.7711 152.808 68.5615 170.232 68.5615 170.232L68.4782 171.77C68.4782 171.77 68.4782 171.819 68.4984 171.905L68.4782 172.269L68.539 172.3C68.6022 172.788 68.5816 173.283 68.4782 173.764C68.2664 174.439 68.1807 176.345 68.1807 176.345C68.1807 176.345 66.493 187.111 67.2929 189.274C68.0928 191.437 68.7733 193.807 68.7733 193.807C68.7733 193.807 69.6183 196.506 68.8139 196.966C68.0095 197.427 65.7224 198.201 66.1933 199.325C66.6214 200.364 68.2461 203.148 68.4872 203.555L68.4669 203.768L68.1357 207.35C68.1893 207.823 68.3178 208.284 68.5165 208.717C68.8793 209.497 69.5845 210.307 70.9253 210.219C71.1506 210.203 71.412 210.176 71.6643 210.143C74.1182 209.814 77.1399 208.722 77.1399 208.722C76.983 208.622 76.8392 208.504 76.7118 208.369C76.5911 208.252 76.4956 208.112 76.4309 207.958C76.3662 207.803 76.3337 207.637 76.3355 207.469C76.3715 206.817 75.148 203.71 74.8438 202.945C74.7965 202.835 74.7717 202.772 74.7717 202.772C74.7717 202.772 77.5613 199.863 77.0971 197.283C77.0971 197.283 74.01 195.485 75.0263 194.498C76.0425 193.511 77.8587 190.675 77.8587 190.675C77.8587 190.675 77.9421 180.073 77.8587 178.49C77.7717 177.392 77.824 176.287 78.0142 175.201C78.048 175.037 78.0885 174.877 78.1314 174.72C79.5368 174.929 80.9556 175.036 82.3766 175.041C82.8949 175.041 83.4221 175.041 83.9539 175.01C83.9539 175.16 83.9607 175.322 83.9742 175.495C84.0914 178.122 84.3099 182.727 84.4879 184.438C84.7403 186.891 86.1351 193.501 86.1351 193.501C86.1351 193.501 83.474 195.206 86.5993 199.406C86.5993 199.406 86.5993 200.928 86.392 201.149C86.1707 201.869 85.9923 202.602 85.858 203.343C85.7273 204.135 85.6732 204.935 85.885 205.351C86.392 206.345 89.434 206.264 89.434 206.264L89.5083 206.251C90.0826 206.191 90.663 206.246 91.2157 206.413C91.7685 206.579 92.2826 206.853 92.7283 207.22C93.8843 208.146 98.2715 207.739 100.646 207.445C101.577 207.328 102.199 207.22 102.199 207.22C102.229 207.115 102.24 207.005 102.231 206.896C102.206 206.314 101.748 205.036 98.6478 203.896C98.6478 203.896 95.732 201.94 95.7725 200.236H95.7117H95.3737C95.6193 200.222 95.777 200.236 95.777 200.236C95.777 200.236 94.6346 196.076 95.101 195.739C95.5675 195.401 94.1704 190.792 94.1704 190.792C94.1704 190.792 93.3705 183.057 93.3277 182.515C93.3295 182.05 93.4001 181.588 93.5372 181.144L93.3277 176.903C93.3277 176.903 93.2871 175.493 93.3277 175.034C93.3209 174.636 93.2885 174.239 93.2308 173.845C93.2105 173.688 93.1902 173.523 93.1677 173.362C94.2606 173.085 94.9703 172.829 94.9703 172.829L94.8442 158.067C95.7725 156.268 95.9438 152.322 95.9393 149.523C95.9393 147.724 95.8582 146.393 95.8582 146.393L97.1268 144.327C97.1268 144.327 97.4197 141.853 96.9555 141.311C96.7505 141.066 96.8428 140.812 97.0118 140.603C97.0996 140.534 97.1922 140.47 97.289 140.414C97.289 140.414 97.2755 140.394 97.2597 140.365C97.3483 140.291 97.4425 140.224 97.5414 140.165C97.5414 140.165 97.0907 139.468 97.4941 139.173C97.8726 139.429 98.2106 139.623 98.4675 139.78C98.4495 139.944 98.4314 140.039 98.4314 140.039L98.5396 139.814C98.7875 139.953 98.9384 140.039 98.9384 140.039C98.9384 140.039 100.926 136.088 100.883 135.506C100.84 134.923 102.235 132.47 102.235 132.47C102.235 132.47 102.404 131.182 103.166 130.642C103.927 130.102 103.756 126.192 103.756 126.192C103.756 126.192 103.968 124.155 104.475 123.323C104.982 122.491 104.013 121.369 104.013 121.369ZM65.986 119.636L66.0243 120.578C65.799 120.216 65.6367 119.955 65.6367 119.955L65.986 119.636Z" fill="url(#paint0_linear_33_2)"/>
<path d="M99.0466 138.332L98.5599 140.401C98.5599 140.401 94.6616 138.415 93.9586 135.892C93.2556 133.37 95.1348 132.412 95.1348 132.412L98.7672 133.947L99.0466 138.332Z" fill="white"/>
<path opacity="0.1" d="M99.0466 138.332L98.5599 140.401C98.5599 140.401 94.6616 138.415 93.9586 135.892C93.2556 133.37 95.1348 132.412 95.1348 132.412L98.7672 133.947L99.0466 138.332Z" fill="#040709"/>
<path d="M77.1692 208.735C77.1692 208.735 73.5639 210.057 71.0852 210.224C69.7693 210.311 69.0775 209.506 68.7215 208.731C68.527 208.299 68.4016 207.84 68.3497 207.37L68.672 203.806L68.8432 201.909L74.1092 200.544L74.855 202.819L74.9249 202.992C75.2246 203.752 76.4256 206.844 76.3895 207.489C76.3881 207.655 76.42 207.819 76.4835 207.971C76.547 208.124 76.6408 208.262 76.7591 208.378C76.88 208.514 77.0178 208.634 77.1692 208.735Z" fill="white"/>
<path d="M101.796 206.923C101.805 207.031 101.794 207.14 101.764 207.244C101.764 207.244 94.0533 208.528 92.4759 207.244C92.0312 206.869 91.5128 206.591 90.9541 206.428C90.3953 206.264 89.8084 206.219 89.2312 206.296C89.2312 206.296 86.2478 206.376 85.7498 205.396C85.5425 204.985 85.5966 204.186 85.725 203.399C85.856 202.662 86.0306 201.933 86.2478 201.216L86.3672 201.122L87.077 200.553L95.3872 200.308H95.4503C95.4097 202.003 98.2715 203.948 98.2715 203.948C101.311 205.072 101.76 206.343 101.796 206.923Z" fill="white"/>
<path opacity="0.1" d="M101.796 206.923C101.804 207.031 101.792 207.14 101.762 207.244C101.762 207.244 94.0532 208.528 92.4759 207.244C92.0315 206.87 91.5135 206.592 90.9551 206.428C90.3967 206.265 89.8103 206.22 89.2334 206.295C89.2334 206.295 86.2477 206.376 85.752 205.396C85.5447 204.982 85.5965 204.186 85.725 203.399C86.8742 203.514 88.6881 203.8 89.4001 204.481C90.4772 205.518 92.3024 206.552 93.4223 206.633C94.2988 206.689 99.5423 206.855 101.796 206.923Z" fill="#040709"/>
<path opacity="0.1" d="M77.1692 208.735C77.1692 208.735 73.5639 210.057 71.0852 210.224C69.7693 210.311 69.0775 209.506 68.7238 208.728C69.6409 209.036 70.914 209.36 71.5832 209.063C72.3764 208.713 75.1885 208.486 76.7658 208.389C76.8859 208.52 77.0213 208.636 77.1692 208.735Z" fill="#040709"/>
<path d="M82.5186 102.189C79.5442 101.036 75.7181 97.2247 76.6735 95.4439C76.8857 94.9945 77.0118 94.5095 77.0453 94.0138C77.1067 93.341 77.1158 92.6644 77.0723 91.9902C77.0053 90.886 76.8721 89.7867 76.6735 88.6984C76.6735 88.6984 85.9594 88.9075 85.4186 90.2723C85.2608 90.6726 85.2361 91.3673 85.2789 92.1453C85.3217 92.9233 85.4343 93.8025 85.5515 94.5467C85.7138 95.5676 85.876 96.3456 85.876 96.3456C85.876 96.3456 85.3082 97.1393 84.9747 97.182C84.6412 97.2247 86.7863 103.833 82.5186 102.189Z" fill="#CF6F80"/>
<path opacity="0.1" d="M74.9181 202.992L74.8483 203.069C72.0722 199.719 68.7147 203.894 68.7147 203.894L68.6652 203.806L68.8364 201.909L74.1024 200.544L74.8483 202.819L74.9181 202.992Z" fill="#040709"/>
<path opacity="0.1" d="M95.4525 200.544C95.4525 200.544 93.4246 200.501 92.343 201.454C91.2614 202.408 86.0337 201.661 86.259 201.454C86.3258 201.352 86.366 201.235 86.3762 201.113L87.086 200.544L95.3962 200.299C95.4278 200.449 95.4525 200.544 95.4525 200.544Z" fill="#040709"/>
<path d="M78.3724 174.234C78.2214 174.607 78.1067 174.993 78.0299 175.387C77.842 176.468 77.7898 177.568 77.8745 178.661C77.9578 180.235 77.8745 190.783 77.8745 190.783C77.8745 190.783 76.0921 193.596 75.0984 194.588C74.1047 195.579 77.1263 197.36 77.1263 197.36C77.577 199.923 74.846 202.819 74.846 202.819C72.0699 199.469 68.7125 203.647 68.7125 203.647C68.7125 203.647 66.8873 200.499 66.4321 199.375C65.977 198.25 68.2145 197.472 69.0009 197.016C69.7873 196.559 68.9626 193.868 68.9626 193.868C68.9626 193.868 68.2979 191.509 67.5092 189.357C66.7206 187.206 68.379 176.494 68.379 176.494C68.379 176.494 68.4646 174.592 68.6697 173.928C68.7731 173.45 68.7937 172.957 68.7305 172.471C68.717 172.307 68.7012 172.17 68.6899 172.078C68.6787 171.985 68.6697 171.943 68.6697 171.943L68.7012 171.889L69.8279 169.793C69.8279 169.793 78.9132 172.914 78.3724 174.234Z" fill="#90C4F2"/>
<path d="M95.4526 200.297C95.4526 200.297 93.4246 200.254 92.343 201.196C91.2614 202.138 86.0337 201.403 86.2591 201.196C86.4844 200.989 86.4664 199.458 86.4664 199.458C83.3996 195.28 86.0157 193.585 86.0157 193.585C86.0157 193.585 84.6457 187.008 84.3978 184.568C84.2243 182.864 84.0103 178.284 83.8953 175.669C83.8458 174.544 83.8165 173.771 83.8165 173.771L86.3221 173.267L86.6444 173.202L92.6878 171.992C92.6878 171.992 92.8545 173.117 92.9672 174.036C93.0233 174.429 93.0549 174.825 93.0618 175.221C93.0212 175.671 93.0618 177.078 93.0618 177.078L93.2669 181.299C93.1329 181.742 93.0638 182.201 93.0618 182.664C93.1024 183.201 93.8888 190.895 93.8888 190.895C93.8888 190.895 95.2565 195.487 94.7901 195.817C94.3237 196.148 95.4526 200.297 95.4526 200.297Z" fill="#90C4F2"/>
<path opacity="0.1" d="M85.4186 90.2723C85.2608 90.6726 85.236 91.3673 85.2789 92.1453C84.0351 92.8927 82.6052 93.2749 81.1535 93.2478C79.7019 93.2208 78.2873 92.7856 77.0723 91.9924C77.0054 90.8874 76.8722 89.7875 76.6735 88.6984C76.6735 88.6984 85.9594 88.903 85.4186 90.2723Z" fill="#040709"/>
<path d="M89.0081 85.3031C89.0099 86.1134 88.8821 86.9187 88.6295 87.6888C88.065 89.4142 86.9073 90.8849 85.3612 91.841C83.8151 92.7971 81.98 93.177 80.1804 92.9136C78.3807 92.6502 76.7323 91.7604 75.5265 90.4015C74.3206 89.0425 73.6351 87.302 73.5909 85.4875C73.5909 85.4245 73.5909 85.3661 73.5909 85.3031C73.5734 84.2817 73.7599 83.2671 74.1395 82.3184C74.5191 81.3698 75.0842 80.506 75.8018 79.7775C76.5195 79.049 77.3753 78.4705 78.3194 78.0755C79.2635 77.6806 80.2769 77.4772 81.3006 77.4772C82.3243 77.4772 83.3378 77.6806 84.2818 78.0755C85.2259 78.4705 86.0818 79.049 86.7994 79.7775C87.5171 80.506 88.0822 81.3698 88.4617 82.3184C88.8413 83.2671 89.0278 84.2817 89.0103 85.3031H89.0081Z" fill="#CF6F80"/>
<path opacity="0.1" d="M82.5186 102.189C79.5442 101.036 75.7181 97.2247 76.6735 95.4439C76.8857 94.9945 77.0118 94.5095 77.0453 94.0139L81.117 97.3529L83.6362 99.4148L85.5515 94.549C85.7138 95.5698 85.876 96.3478 85.876 96.3478C85.876 96.3478 85.3082 97.1415 84.9747 97.1843C84.6412 97.227 86.7863 103.833 82.5186 102.189Z" fill="#040709"/>
<path d="M93.0482 116.946L89.648 173.946L85.2135 174.236L73.7306 141.185L75.6144 101.947L76.0109 93.6563L81.1169 97.8408L83.6384 99.9027L85.6101 94.8953L89.2762 98.0837L93.0482 116.946Z" fill="#90C4F2"/>
<path opacity="0.1" d="M78.3724 174.234C78.2214 174.607 78.1067 174.993 78.0299 175.387C74.8032 174.89 71.6693 173.913 68.7328 172.489L68.6719 172.458L68.6922 172.096L68.7035 171.907L69.8301 169.811C69.8301 169.811 78.9132 172.914 78.3724 174.234Z" fill="#040709"/>
<path opacity="0.1" d="M86.3739 175.396C85.5491 175.536 84.7171 175.631 83.8818 175.68C83.8322 174.556 83.8029 173.782 83.8029 173.782L86.3086 173.278L86.3739 175.396Z" fill="#040709"/>
<path opacity="0.1" d="M92.9537 174.047C91.3515 174.463 88.8774 174.931 86.6624 174.639L86.6309 173.213L92.6742 172.003C92.6742 172.003 92.841 173.116 92.9537 174.047Z" fill="#040709"/>
<path opacity="0.1" d="M86.6218 174.9C77.3833 176.474 68.9221 171.961 68.9221 171.961L69.0032 170.432C69.0032 170.432 69.2128 153.098 68.6314 151.769C68.05 150.44 67.5971 143.701 67.9261 142.667C68.2551 141.633 66.7251 126.123 66.7251 126.123L66.4772 119.827L57.4054 116.159L61.4614 107.723C62.0092 106.54 62.4803 105.324 62.8719 104.08C63.5772 101.89 66.8513 99.7386 66.8513 99.7386C66.8513 99.7386 70.2087 97.589 71.5359 97.6699C72.8631 97.7509 74.6027 95.7677 74.6027 95.7677C75.8871 92.5006 77.0498 93.9801 77.0498 93.9801C77.0498 94.1353 77.0498 93.9801 76.9867 94.4636C76.536 98.0499 84.2739 109.382 84.3843 109.583L85.1211 127.494L85.867 150.161L86.6218 174.9Z" fill="#040709"/>
<path d="M86.374 174.9C77.1354 176.474 68.6719 171.961 68.6719 171.961L68.7553 170.432C68.7553 170.432 68.9649 153.098 68.3813 151.769C67.7977 150.44 67.347 143.701 67.6782 142.667C68.0095 141.633 66.4772 126.123 66.4772 126.123L66.2271 119.827L57.1508 116.146L61.2067 107.71C61.7534 106.526 62.2245 105.31 62.6173 104.067C63.3203 101.877 66.5966 99.7251 66.5966 99.7251C66.5966 99.7251 69.9541 97.5755 71.279 97.6564C72.604 97.7374 74.3458 95.7542 74.3458 95.7542C75.6324 92.4871 77.0498 93.9666 77.0498 93.9666C77.0498 94.1218 76.9146 94.1915 76.9867 94.4501C77.9781 97.9285 84.026 109.369 84.1364 109.569L84.8823 127.481L85.6281 150.148L86.374 174.9Z" fill="white"/>
<path opacity="0.1" d="M83.8841 110.079C82.8903 109.666 77.6266 103.669 77.6266 103.669V102.304C77.4351 101.854 76.2971 102.129 75.3733 102.444L75.7699 94.1533L76.2205 94.5265C77.2075 98.0027 83.7691 109.879 83.8841 110.079Z" fill="#040709"/>
<path d="M84.1342 109.583C83.1382 109.169 77.8745 103.172 77.8745 103.172V101.807C77.6829 101.357 76.545 101.632 75.6212 101.947L76.02 93.6563L76.4707 94.0296C77.4599 97.5058 84.0238 109.385 84.1342 109.583Z" fill="white"/>
<path opacity="0.1" d="M68.922 139.49C69.046 139.49 75.3462 138.829 75.3462 138.829C75.3462 138.829 79.1611 146.314 78.911 148.136C78.6609 149.957 78.2079 151.569 76.6734 151.283C75.1389 150.998 68.415 151.508 68.415 151.508L68.922 139.49Z" fill="#040709"/>
<path d="M68.6719 138.993C68.7958 138.993 75.0961 138.332 75.0961 138.332C75.0961 138.332 78.9087 145.82 78.6608 147.639C78.413 149.458 77.9556 151.072 76.4233 150.787C74.8911 150.501 68.1649 151.011 68.1649 151.011L68.6719 138.993Z" fill="white"/>
<path d="M73.4197 135.479C73.4197 135.479 79.2017 138.579 79.3256 139.526C79.4495 140.473 76.3828 139.112 75.7203 138.948C75.2843 138.843 74.8404 138.774 74.3931 138.741L69.9744 138.86L73.4197 135.479Z" fill="#CF6F80"/>
<path opacity="0.1" d="M82.2707 110.466C82.6067 110.466 82.8791 110.194 82.8791 109.859C82.8791 109.524 82.6067 109.252 82.2707 109.252C81.9347 109.252 81.6623 109.524 81.6623 109.859C81.6623 110.194 81.9347 110.466 82.2707 110.466Z" fill="#040709"/>
<path d="M82.2707 110.219C82.6067 110.219 82.8791 109.947 82.8791 109.612C82.8791 109.276 82.6067 109.005 82.2707 109.005C81.9347 109.005 81.6623 109.276 81.6623 109.612C81.6623 109.947 81.9347 110.219 82.2707 110.219Z" fill="#040709"/>
<path opacity="0.1" d="M83.3906 136.747C83.7266 136.747 83.999 136.475 83.999 136.14C83.999 135.804 83.7266 135.533 83.3906 135.533C83.0545 135.533 82.7822 135.804 82.7822 136.14C82.7822 136.475 83.0545 136.747 83.3906 136.747Z" fill="#040709"/>
<path d="M83.3906 136.497C83.7266 136.497 83.999 136.225 83.999 135.89C83.999 135.555 83.7266 135.283 83.3906 135.283C83.0545 135.283 82.7822 135.555 82.7822 135.89C82.7822 136.225 83.0545 136.497 83.3906 136.497Z" fill="#040709"/>
<path opacity="0.1" d="M82.8768 123.606C83.2128 123.606 83.4852 123.335 83.4852 122.999C83.4852 122.664 83.2128 122.392 82.8768 122.392C82.5408 122.392 82.2684 122.664 82.2684 122.999C82.2684 123.335 82.5408 123.606 82.8768 123.606Z" fill="#040709"/>
<path d="M82.8768 123.359C83.2128 123.359 83.4852 123.087 83.4852 122.752C83.4852 122.417 83.2128 122.145 82.8768 122.145C82.5408 122.145 82.2684 122.417 82.2684 122.752C82.2684 123.087 82.5408 123.359 82.8768 123.359Z" fill="#040709"/>
<path d="M96.9014 138.615C96.9014 138.615 97.3161 139.236 96.9014 139.526C96.4868 139.816 96.942 140.518 96.942 140.518C96.942 140.518 95.9077 141.122 96.3629 141.667C96.8181 142.211 96.5296 144.668 96.5296 144.668L95.2858 146.723C95.2858 146.723 95.3602 148.048 95.3647 149.838C95.3647 152.63 95.2002 156.556 94.2899 158.346L94.416 173.031C94.416 173.031 90.0604 174.618 86.4145 174.135L85.8737 150.571C85.8737 150.571 86.6624 137.208 86.9531 134.644C87.1232 133.314 87.1925 131.972 87.1604 130.631C87.1604 130.631 87.0364 126.62 86.6196 124.758C86.6196 124.758 86.1689 116.692 86.1239 114.46C86.1036 113.392 86.1599 110.275 86.223 107.312C86.2929 104.071 86.3717 101.016 86.3717 101.016L85.5493 94.522C85.5493 94.522 86.3717 94.4388 86.6196 94.7694C86.7306 94.8729 86.8513 94.9655 86.9801 95.0459C88.3997 96.0038 93.4156 98.9493 93.4156 98.9493C93.4156 98.9493 96.1916 100.051 96.8564 101.63C97.5211 103.208 97.983 104.328 98.3053 104.777C98.6275 105.227 98.8032 107.341 98.8032 107.341C98.8032 107.341 99.7586 111.231 100.504 111.89C101.25 112.548 101.796 116.74 101.796 116.74L95.2047 121.911C95.2047 121.911 94.6256 130.514 94.5017 130.847C94.3777 131.18 96.9014 138.615 96.9014 138.615Z" fill="white"/>
<path d="M97.1515 138.615C97.1515 138.615 97.5639 139.236 97.1515 139.526C96.7392 139.816 97.1898 140.518 97.1898 140.518C97.1898 140.518 96.1623 141.129 96.613 141.673C97.0636 142.217 96.7797 144.675 96.7797 144.675L95.5359 146.73C95.5359 146.73 95.6103 148.055 95.617 149.844C95.617 152.637 95.4525 156.563 94.5422 158.353L94.6661 173.038C94.6661 173.038 90.3037 174.625 86.6624 174.142L86.1238 150.577C86.1238 150.577 86.9125 137.215 87.2032 134.651C87.3735 133.32 87.442 131.979 87.4082 130.638C87.4082 130.638 87.2843 126.626 86.8697 124.764C86.8697 124.764 86.419 116.699 86.3717 114.466C86.3514 113.398 86.41 110.282 86.4708 107.318C86.5407 104.078 86.6195 101.022 86.6195 101.022L85.5334 94.4411C85.5334 94.4411 86.6195 94.4411 86.8697 94.7761C86.9797 94.8808 87.1005 94.9735 87.2302 95.0527C88.6498 96.0105 93.6679 98.9561 93.6679 98.9561C93.6679 98.9561 96.4417 100.058 97.1065 101.636C97.7712 103.215 98.2331 104.335 98.5576 104.784C98.8821 105.234 99.0533 107.348 99.0533 107.348C99.0533 107.348 100.009 111.237 100.755 111.896C101.5 112.555 102.039 116.737 102.039 116.737L95.448 121.909C95.448 121.909 94.8689 130.512 94.7427 130.844C94.6166 131.177 97.1515 138.615 97.1515 138.615Z" fill="white"/>
<path opacity="0.1" d="M89.2582 102.931L89.8531 104.663L86.7209 107.811C86.7908 104.573 86.8697 101.515 86.8697 101.515L85.7836 94.9335C85.7836 94.9335 86.8697 94.9335 87.1198 95.2685C87.2295 95.373 87.3504 95.465 87.4803 95.5428L90.1437 103.21L89.2582 102.931Z" fill="#040709"/>
<path d="M89.0081 102.435L89.6052 104.166L86.4731 107.314C86.5429 104.074 86.6218 101.018 86.6218 101.018L85.5334 94.4366C85.5334 94.4366 86.6218 94.4366 86.8697 94.7716C86.9802 94.8757 87.101 94.9683 87.2302 95.0481L89.8959 102.713L89.0081 102.435Z" fill="white"/>
<path opacity="0.1" d="M89.0081 85.3031C89.0099 86.1134 88.8821 86.9187 88.6295 87.6888C88.5869 87.6954 88.5435 87.6935 88.5017 87.683C88.4599 87.6726 88.4206 87.6539 88.3862 87.6281C88.3276 85.6044 87.3294 83.7044 86.1013 82.0877C85.7565 81.5996 85.3385 81.1673 84.862 80.8061C84.3802 80.445 83.7809 80.2759 83.181 80.3316C82.505 80.4238 81.9079 80.8825 81.2251 80.941C80.3238 81.0152 79.5171 80.3924 78.6226 80.3609C78.2589 80.3643 77.9001 80.4451 77.5703 80.5979C77.2404 80.7507 76.9469 80.9719 76.7095 81.2468C76.2395 81.8016 75.8904 82.4478 75.6842 83.1445C75.3299 84.201 75.137 85.3046 75.1119 86.4184C75.1006 87.0479 75.0398 87.8372 74.4539 88.0665C74.498 87.6035 74.4453 87.1364 74.2991 86.6948C74.1528 86.2531 73.9163 85.8466 73.6044 85.501L73.5909 85.4875C73.5909 85.4245 73.5909 85.3661 73.5909 85.3031C73.5734 84.2817 73.7599 83.2671 74.1395 82.3184C74.5191 81.3698 75.0842 80.506 75.8018 79.7775C76.5195 79.049 77.3753 78.4705 78.3194 78.0755C79.2635 77.6806 80.2769 77.4772 81.3006 77.4772C82.3243 77.4772 83.3378 77.6806 84.2818 78.0755C85.2259 78.4705 86.0818 79.049 86.7994 79.7775C87.5171 80.506 88.0822 81.3698 88.4617 82.3184C88.8413 83.2671 89.0278 84.2817 89.0103 85.3031H89.0081Z" fill="#040709"/>
<path d="M84.4925 73.0869C83.3215 72.5373 81.9898 72.4334 80.7475 72.7946C80.1233 72.979 79.5352 73.2781 78.902 73.4287C77.55 73.7547 75.9727 73.4017 74.8122 74.191C74.1678 74.6407 73.7802 75.3512 73.4197 76.0415L72.5184 77.7548C72.0271 78.6925 71.5314 79.6458 71.3264 80.6779C71.1213 81.71 71.2452 82.8657 71.901 83.6954C72.3787 84.3003 73.0839 84.6803 73.6022 85.2491C73.9127 85.5952 74.1482 86.0014 74.294 86.4425C74.4398 86.8836 74.4927 87.35 74.4495 87.8124C75.0376 87.5876 75.0939 86.7961 75.1074 86.1665C75.1325 85.0528 75.3255 83.9491 75.6798 82.8927C75.8854 82.1958 76.2346 81.5494 76.705 80.9949C76.9426 80.7203 77.2361 80.4992 77.566 80.3465C77.8958 80.1937 78.2545 80.1128 78.6181 80.109C79.5194 80.1405 80.3283 80.7611 81.2207 80.6869C81.8966 80.6307 82.496 80.1697 83.1765 80.0798C83.7765 80.0232 84.3761 80.1924 84.8575 80.5542C85.3339 80.9149 85.7512 81.3473 86.0946 81.8359C87.3249 83.4526 88.3231 85.3481 88.3817 87.3762C88.6363 87.5629 89.0036 87.32 89.1298 87.0322C89.256 86.7444 89.2605 86.4071 89.4205 86.1328C89.6052 85.8158 89.959 85.6471 90.2362 85.4088C90.9392 84.8039 91.1149 83.7854 91.0879 82.8612C91.0609 81.9371 90.8806 80.9994 91.0564 80.0911C91.1623 79.5334 91.4011 79.0118 91.5318 78.4609C91.6625 77.91 91.6783 77.2917 91.3696 76.8172C90.9189 76.1202 89.9703 75.983 89.1433 75.9178C88.2037 75.8369 87.3632 75.9403 86.7638 75.1511C86.4825 74.7392 86.1658 74.3525 85.8174 73.9953C85.698 73.8784 84.4925 73.1364 84.4925 73.0869Z" fill="#512E4E"/>
<path opacity="0.1" d="M60.0012 120.504L57.6465 116.159L56.9006 122.862C56.9006 122.862 57.3152 125.839 57.2319 126.296C57.1485 126.752 58.9309 130.844 58.9309 130.844C58.9309 130.844 64.8188 141.309 67.2231 141.849L75.3462 136.057L73.1921 133.327C73.1921 133.327 72.4462 133.037 72.2592 133.327C72.2592 133.327 68.2596 126.46 67.845 125.963C67.4304 125.466 67.5115 124.474 67.5115 124.474C67.5115 124.474 66.8896 123.813 67.0969 123.193C67.3042 122.572 65.8959 120.42 65.8959 120.42L67.1802 119.222L60.0012 120.504Z" fill="#040709"/>
<path d="M57.7704 115.665L57.1485 116.159L56.4026 122.862C56.4026 122.862 56.8173 125.839 56.7339 126.296C56.6505 126.752 58.4351 130.844 58.4351 130.844C58.4351 130.844 64.3208 141.309 66.7251 141.849L74.8505 136.057L72.6941 133.327C72.6941 133.327 71.9483 133.037 71.7612 133.327C71.7612 133.327 67.7616 126.46 67.347 125.963C66.9324 125.466 67.0158 124.474 67.0158 124.474C67.0158 124.474 66.3938 123.813 66.6011 123.193C66.8084 122.572 65.3979 120.42 65.3979 120.42L66.6823 119.222L57.7704 115.665Z" fill="white"/>
<path opacity="0.1" d="M96.3629 141.923C96.8135 142.469 96.5296 144.922 96.5296 144.922L95.2858 146.978C95.2858 146.978 95.3601 148.304 95.3646 150.092L93.2736 150.744C93.0846 150.803 92.8842 150.816 92.6892 150.782C92.4942 150.747 92.3102 150.667 92.1525 150.548C91.9949 150.428 91.8681 150.273 91.7829 150.095C91.6976 149.916 91.6563 149.72 91.6625 149.523L92.023 137.918L96.9014 139.78C96.4868 140.068 96.942 140.774 96.942 140.774C96.942 140.774 95.9077 141.376 96.3629 141.923Z" fill="#040709"/>
<path d="M96.613 141.673C97.0637 142.22 96.7798 144.675 96.7798 144.675L95.5359 146.73C95.5359 146.73 95.6103 148.055 95.617 149.844L93.4877 150.508C93.3026 150.565 93.1064 150.578 92.9156 150.544C92.7247 150.51 92.5446 150.432 92.3903 150.315C92.236 150.198 92.112 150.046 92.0285 149.871C91.945 149.697 91.9045 149.505 91.9103 149.312L92.2731 137.671L97.1538 139.533C96.7369 139.821 97.1921 140.524 97.1921 140.524C97.1921 140.524 96.1623 141.129 96.613 141.673Z" fill="white"/>
<path d="M98.2287 136.142C98.2287 136.142 97.8974 138.253 97.0682 138.377C96.239 138.501 95.8672 141.792 95.0402 141.676C94.2133 141.559 94.7608 138.615 94.7901 138.044C94.8194 137.473 93.8888 135.108 94.5851 134.57C95.2813 134.033 97.4851 134.57 97.4851 134.57L98.2287 136.142Z" fill="#CF6F80"/>
<path opacity="0.1" d="M99.993 119.883L101.557 116.735C101.557 116.735 102.179 119.134 102.179 120.416C102.179 121.698 103.048 121.823 103.048 121.823C103.048 121.823 104.002 122.948 103.499 123.766C102.997 124.585 102.794 126.622 102.794 126.622C102.794 126.622 102.958 130.509 102.213 131.047C101.467 131.584 101.311 132.868 101.311 132.868C101.311 132.868 99.9412 135.308 99.984 135.888C100.027 136.468 98.0777 140.396 98.0777 140.396C98.0777 140.396 99.0308 135.515 93.4764 133.406C93.4764 133.406 93.4336 131.748 93.8482 131.294C94.2628 130.84 94.9095 130.633 94.5039 128.337C94.0983 126.042 94.3868 123.298 94.3868 122.748C94.3868 122.197 95.6306 118.761 95.6306 118.761L99.993 119.883Z" fill="#040709"/>
<path d="M100.669 116.285L102.035 116.735C102.035 116.735 102.659 119.134 102.659 120.416C102.659 121.698 103.528 121.823 103.528 121.823C103.528 121.823 104.482 122.948 103.979 123.766C103.477 124.585 103.276 126.622 103.276 126.622C103.276 126.622 103.441 130.509 102.695 131.047C101.949 131.584 101.782 132.868 101.782 132.868C101.782 132.868 100.414 135.308 100.457 135.888C100.5 136.468 98.5486 140.396 98.5486 140.396C98.5486 140.396 99.504 135.515 93.9474 133.406C93.9474 133.406 93.9068 131.748 94.3214 131.294C94.736 130.84 95.3827 130.633 94.9771 128.337C94.5715 126.042 94.86 123.298 94.86 122.748C94.86 122.197 96.1038 118.761 96.1038 118.761L100.669 116.285Z" fill="white"/>
<path opacity="0.1" d="M70.5084 197.877C70.5084 197.877 72.6851 196.512 74.1137 197.504C75.5423 198.495 70.5084 197.877 70.5084 197.877Z" fill="#040709"/>
<path opacity="0.1" d="M87.4218 193.657C87.4218 193.657 89.3483 193.409 90.9662 195.147C92.5841 196.886 87.4218 193.657 87.4218 193.657Z" fill="#040709"/>
<g opacity="0.1">
<path d="M90.2406 84.9164C89.9635 85.1547 89.6075 85.3256 89.4227 85.6426C89.265 85.9147 89.2604 86.2497 89.1343 86.542C89.0081 86.8343 88.6408 87.0727 88.3862 86.8883C88.3276 84.8647 87.3271 82.9647 86.099 81.3457C85.7557 80.8572 85.3384 80.4248 84.862 80.0641C84.3797 79.7023 83.7795 79.5331 83.1788 79.5896C82.5028 79.6818 81.9079 80.1405 81.2251 80.1967C80.3238 80.2732 79.5149 79.6504 78.6203 79.6189C78.2568 79.6225 77.8982 79.7036 77.5687 79.8568C77.2391 80.01 76.9462 80.2317 76.7095 80.507C76.2391 81.0607 75.8899 81.7063 75.6842 82.4025C75.3301 83.459 75.1372 84.5626 75.1119 85.6764C75.0984 86.3037 75.0398 87.0862 74.4584 87.32C74.472 87.4861 74.472 87.6531 74.4584 87.8192C75.0443 87.5943 75.1029 86.8029 75.1164 86.1733C75.1415 85.0595 75.3345 83.9559 75.6887 82.8995C75.8944 82.2026 76.2436 81.5562 76.714 81.0017C76.9512 80.7271 77.2443 80.506 77.5737 80.3533C77.9032 80.2005 78.2615 80.1196 78.6248 80.1158C79.5261 80.1473 80.3373 80.7679 81.2296 80.6937C81.9056 80.6374 82.505 80.1765 83.1833 80.0866C83.784 80.03 84.3842 80.1992 84.8665 80.561C85.3429 80.9217 85.7602 81.3541 86.1036 81.8427C87.3316 83.4593 88.3321 85.3548 88.3907 87.383C88.6453 87.5696 89.0126 87.3268 89.1388 87.039C89.2649 86.7512 89.2695 86.4139 89.4272 86.1396C89.612 85.8225 89.968 85.6539 90.2451 85.4155C90.9482 84.8107 91.1239 83.7921 91.0969 82.868C91.0969 82.8387 91.0969 82.8095 91.0969 82.7825C91.0541 83.583 90.84 84.3992 90.2406 84.9164Z" fill="#040709"/>
<path d="M73.6067 84.7567C73.0884 84.1878 72.3809 83.8078 71.9054 83.2052C71.5051 82.6718 71.2764 82.0296 71.2497 81.3637C71.1788 82.1959 71.4117 83.0256 71.9054 83.6999C72.3809 84.3048 73.0884 84.6848 73.6067 85.2536C74.1043 85.8101 74.403 86.5154 74.4562 87.2593C74.4907 86.8066 74.4332 86.3516 74.2873 85.9215C74.1413 85.4915 73.9098 85.0953 73.6067 84.7567Z" fill="#040709"/>
<path d="M91.5363 77.9685C91.4033 78.5193 91.1667 79.0432 91.0586 79.5986C90.9945 79.9697 90.9711 80.3467 90.9887 80.7229C90.9963 80.5086 91.0196 80.2952 91.0586 80.0843C91.1667 79.5267 91.4033 79.005 91.5363 78.4541C91.6138 78.1503 91.6389 77.8355 91.6106 77.5233C91.5966 77.6733 91.5718 77.822 91.5363 77.9685Z" fill="#040709"/>
</g>
<path opacity="0.1" d="M29.9082 207.02C42.0343 207.02 51.8645 205.444 51.8645 203.501C51.8645 201.557 42.0343 199.982 29.9082 199.982C17.7821 199.982 7.95197 201.557 7.95197 203.501C7.95197 205.444 17.7821 207.02 29.9082 207.02Z" fill="#90C4F2"/>
<path d="M30.6158 136.09H29.2029V167.833H30.6158V136.09Z" fill="#535461"/>
<path d="M39.4938 167.736L39.4059 169.166L39.2797 171.19L39.2279 172.03L39.104 174.054L39.0499 174.895L38.9237 176.919L37.4996 199.869C37.4377 200.857 37.0011 201.784 36.2785 202.461C35.556 203.139 34.6019 203.516 33.6104 203.516H26.206C25.2147 203.516 24.2609 203.139 23.5387 202.461C22.8166 201.783 22.3804 200.857 22.319 199.869L20.9017 176.903L20.7755 174.879L20.7237 174.038L20.5975 172.015L20.5457 171.174L20.4195 169.15L20.3294 167.72C20.3137 167.445 20.3546 167.169 20.4495 166.91C20.5443 166.651 20.6912 166.415 20.8811 166.214C21.071 166.014 21.2999 165.855 21.5538 165.746C21.8076 165.637 22.0811 165.581 22.3574 165.582H37.5019C37.7771 165.584 38.0489 165.643 38.3006 165.754C38.5522 165.865 38.7783 166.027 38.965 166.229C39.1516 166.43 39.2948 166.668 39.3858 166.928C39.4768 167.187 39.5135 167.462 39.4938 167.736Z" fill="#040709"/>
<path d="M39.4059 169.166L39.2798 171.183H20.5367L20.4105 169.166H39.4059Z" fill="#9D9CB5"/>
<path d="M39.2279 172.024L39.104 174.043H20.7147L20.5885 172.024H39.2279Z" fill="#9D9CB5"/>
<path d="M39.0499 174.886L38.926 176.903H20.8927L20.7665 174.886H39.0499Z" fill="#9D9CB5"/>
<path d="M18.2541 147.987C26.4809 153.928 29.915 163.219 29.915 163.219C29.915 163.219 20.0004 162.879 11.7713 156.938C3.54222 150.998 0.114929 141.709 0.114929 141.709C0.114929 141.709 10.025 142.047 18.2541 147.987Z" fill="#90C4F2"/>
<path d="M0.108154 141.709C0.108154 141.709 10.4013 147.409 13.7024 152.129C17.0035 156.849 29.915 163.219 29.915 163.219" stroke="#535461" stroke-width="2" stroke-miterlimit="10"/>
<path d="M23.5651 136.021C28.0424 139.252 29.9149 144.309 29.9149 144.309C29.9149 144.309 24.5183 144.124 20.0387 140.893C15.5591 137.662 13.6911 132.603 13.6911 132.603C13.6911 132.603 19.0855 132.787 23.5651 136.021Z" fill="#90C4F2"/>
<path d="M13.6911 132.603C13.6911 132.603 19.2928 135.706 21.0887 138.274C22.8846 140.841 29.9149 144.309 29.9149 144.309" stroke="#535461" stroke-width="2" stroke-miterlimit="10"/>
<path d="M36.4158 144.052C31.2715 149.694 30.1831 157.067 30.1831 157.067C30.1831 157.067 37.4365 155.29 42.5763 149.647C47.7161 144.003 48.809 136.632 48.809 136.632C48.809 136.632 41.5601 138.411 36.4158 144.052Z" fill="#90C4F2"/>
<path d="M48.8135 136.634C48.8135 136.634 42.1121 142.418 40.4086 146.402C38.7051 150.386 30.1831 157.067 30.1831 157.067" stroke="#535461" stroke-width="2" stroke-miterlimit="10"/>
<path d="M225.257 142.067C225.257 142.067 221.537 123.598 222.961 121.3C222.961 121.3 223.012 119.163 222.927 116.441C222.927 116.337 222.927 116.234 222.927 116.128C223.177 116.295 223.439 116.445 223.709 116.578C225.021 117.25 226.527 117.444 227.968 117.126L226.841 115.874C226.57 115.575 226.289 115.251 226.23 114.855C226.172 114.46 226.334 114.107 226.474 113.754C227.544 111.055 227.6 107.662 225.538 105.603C223.797 103.871 223.373 101.636 221.483 100.056C220.101 98.8976 219.342 97.2 218.625 95.5586C218.019 94.1713 217.409 92.7727 217.062 91.3022C216.791 90.1532 216.683 88.9637 216.311 87.8417C215.939 86.7197 215.243 85.6292 214.155 85.1277C213.767 84.9501 213.337 84.8489 212.983 84.6128C212.519 84.3003 212.239 83.7921 211.904 83.3469C210.198 81.0984 204.486 82.4228 201.782 83.3357C201.047 83.5656 200.366 83.9419 199.781 84.4419L199.806 84.4015C199.826 84.3677 199.851 84.334 199.873 84.3003C199.577 84.5391 199.322 84.8238 199.116 85.1435C198.722 85.7663 198.557 86.4926 198.228 87.1671C197.832 87.9654 195.626 90.1936 196.574 91.0908C196.641 91.151 196.717 91.1997 196.8 91.2347C197.156 91.3826 197.548 91.4217 197.926 91.3471L197.886 91.4438C197.562 92.2354 197.396 93.0824 197.397 93.9374C197.397 97.6317 200.45 100.627 204.22 100.627C204.929 100.627 205.633 100.519 206.309 100.305C206.324 100.391 206.338 100.476 206.354 100.562C206.354 100.595 206.365 100.629 206.37 100.663L206.25 100.829C206.244 100.819 206.237 100.809 206.23 100.8L202.692 105.733C202.151 106.113 199.037 108.362 198.862 110.048C198.677 111.894 198.492 114.055 198.492 114.055L198.467 114.518C198.313 114.647 198.132 114.741 197.937 114.793C197.743 114.846 197.539 114.855 197.341 114.822C196.236 114.642 196.236 118.869 196.236 118.869C196.236 118.869 195.502 119.543 194.997 118.959C194.492 118.374 193.158 120.355 193.158 120.355L184.799 120.715L184.607 120.726L184.156 119.334C184.108 119.188 184.003 119.066 183.865 118.995C183.727 118.925 183.567 118.912 183.42 118.959C183.385 118.97 183.351 118.985 183.318 119.002L183.287 119.02L183.228 119.06L183.199 119.087C183.183 119.102 183.168 119.117 183.154 119.134L183.127 119.166L183.113 119.179C183.061 119.251 183.027 119.334 183.013 119.421C182.998 119.509 183.005 119.598 183.032 119.683L183.42 120.877C181.806 121.201 180.157 122.114 181.502 124.627L174.683 123.37L176.889 125.219L188.278 127.564C188.127 127.834 188.226 128.225 188.697 128.776C190.725 131.153 194.42 131.798 195.907 131.964C196.3 132.841 196.791 133.671 197.37 134.438L197.241 136.805C197.241 136.805 193.476 154.852 192.787 155.767C193.135 155.373 193.453 154.955 193.74 154.515C192.647 158.222 191.119 163.297 190.718 164.057C190.074 165.271 189.476 170.184 190.211 170.499C190.436 170.596 191.081 170.549 192 170.479V170.886L191.96 186.309C191.96 186.309 192.144 195.768 191.637 196.67C191.13 197.571 190.995 199.462 190.995 199.462C190.995 199.462 188.967 203.193 187.361 204.692C187.35 204.704 187.338 204.715 187.325 204.724L187.275 204.373C187.275 204.373 185.344 206.806 181.072 206.669C181.072 206.669 178.501 208.337 182.313 208.427C186.126 208.517 190.995 208.292 190.995 208.292C190.995 208.292 194.395 203.121 197.244 203.795V207.714H198.116V203.732C198.52 203.467 198.866 203.122 199.133 202.719C199.4 202.315 199.582 201.862 199.668 201.387C199.743 200.897 199.688 200.396 199.51 199.933C199.331 199.471 199.035 199.063 198.65 198.75C198.477 198.594 198.338 198.404 198.242 198.192C198.147 197.979 198.096 197.75 198.093 197.517L198.062 197.544C198.062 197.466 198.041 197.385 198.032 197.301C197.782 195.278 197.469 191.102 198.575 188.013C200.092 183.777 200.551 177.877 199.447 174.364C199.091 173.242 198.798 172.1 198.571 170.944C198.544 170.798 198.519 170.659 198.496 170.528C199.251 170.63 199.999 170.781 200.734 170.978C203.292 171.682 208.887 171.812 213.664 171.774C213.675 171.905 213.688 172.042 213.704 172.179C213.789 173.132 213.967 174.075 214.236 174.994C214.835 176.793 215.11 184.723 215.11 184.723C215.11 184.723 215.883 191.244 215.462 193.897C215.236 195.372 215.011 196.854 214.883 198.343V198.372C214.883 198.372 213.616 201.969 212.69 203.923C212.668 203.973 212.643 204.022 212.62 204.07C212.373 204.092 212.13 204.146 211.897 204.229C211.897 204.229 210.655 206.703 209.418 207.112C208.181 207.521 208.591 208.868 211.392 208.373C214.193 207.878 218.423 207.474 218.423 207.474L218.605 204.951L219.466 203.876L219.24 206.392L220.158 206.212L220.036 203.152L221.444 201.394C221.444 201.394 223.145 199.883 220.617 196.91V196.975C220.59 196.933 220.565 196.888 220.536 196.845V196.832C220.117 196.184 219.784 194.977 220.394 192.834C221.498 188.962 222.14 185.447 222.14 185.447C222.14 185.447 224.606 176.033 221.642 171.579H221.773C221.47 170.952 221.255 170.286 221.136 169.6C221.12 169.519 221.107 169.436 221.095 169.35C223.287 169.224 225.439 168.829 227.195 167.974C227.188 167.965 226.131 145.624 225.257 142.067ZM197.422 126.485V126.53L196.971 126.552L197.422 126.485ZM195.876 126.698C195.802 126.715 195.732 126.748 195.673 126.795C195.479 127.068 195.358 127.386 195.319 127.719L194.616 127.562C194.616 127.562 194.123 127.456 193.413 127.337L193.077 127C194.001 126.923 194.961 126.811 195.876 126.698Z" fill="url(#paint1_linear_33_2)"/>
<path d="M219.137 203.184L218.869 206.37L219.768 206.19L219.633 202.734L219.137 203.184Z" fill="#1D2366"/>
<path d="M198.625 188.056C197.541 191.136 197.848 195.294 198.091 197.313C198.181 198.059 198.264 198.513 198.264 198.513C198.264 198.513 196.644 202.196 196.509 202.336C196.374 202.475 191.741 205.297 191.741 205.297L188.503 207.184C188.503 207.184 185.218 205.747 186.793 205.252C187.115 205.123 187.405 204.926 187.642 204.674C189.22 203.179 191.2 199.462 191.2 199.462C191.2 199.462 191.336 197.576 191.831 196.679C192.327 195.781 192.147 186.353 192.147 186.353L192.185 170.985V168.981L198.348 169.026C198.387 169.707 198.476 170.383 198.614 171.05C198.835 172.202 199.122 173.34 199.472 174.459C200.558 177.964 200.108 183.835 198.625 188.056Z" fill="#FFB0B1"/>
<path opacity="0.1" d="M198.264 198.513C198.264 198.513 196.644 202.196 196.509 202.336C196.374 202.475 191.741 205.297 191.741 205.297L188.503 207.184C188.503 207.184 185.218 205.747 186.793 205.252C187.115 205.123 187.405 204.926 187.642 204.674L187.782 205.657L188.861 205.612L198.1 197.317C198.181 198.059 198.264 198.513 198.264 198.513Z" fill="#040709"/>
<path d="M198.152 197.526L188.861 205.877L187.782 205.922L187.557 204.348C187.557 204.348 185.668 206.772 181.473 206.637C181.473 206.637 178.953 208.299 182.687 208.389C186.421 208.479 191.189 208.254 191.189 208.254C191.189 208.254 194.519 203.082 197.307 203.757V207.663H198.163V203.721C198.561 203.454 198.901 203.108 199.162 202.707C199.423 202.305 199.6 201.854 199.682 201.383C199.756 200.896 199.703 200.4 199.529 199.94C199.355 199.48 199.066 199.072 198.688 198.756C198.519 198.598 198.385 198.408 198.293 198.197C198.2 197.985 198.152 197.757 198.152 197.526Z" fill="#1D2366"/>
<path d="M219.993 192.858C219.394 194.995 219.72 196.197 220.131 196.843V196.856C220.657 197.653 221.022 198.544 221.208 199.48L221.244 199.683L217.017 205.832L214.723 206.732C214.723 206.732 211.034 205.475 211.708 205.115C211.877 205.027 212.14 204.56 212.442 203.914C213.344 201.969 214.587 198.381 214.587 198.381V198.352C214.718 196.87 214.925 195.392 215.155 193.922C215.568 191.275 214.811 184.78 214.811 184.78C214.811 184.78 214.54 176.88 213.954 175.084C213.69 174.171 213.514 173.234 213.429 172.287C213.308 171.163 213.281 170.236 213.281 170.236C213.281 170.236 215.71 166.863 220.162 170.506C220.518 170.796 220.831 171.136 221.093 171.513C224.169 175.88 221.692 185.499 221.692 185.499C221.692 185.499 221.072 188.998 219.993 192.858Z" fill="#FFB0B1"/>
<path opacity="0.1" d="M221.25 199.683L217.023 205.832L214.729 206.732C214.729 206.732 211.041 205.475 211.714 205.115C211.883 205.027 212.147 204.56 212.449 203.914C214.011 203.901 214.819 205.385 214.819 205.385L216.798 205.07C216.798 205.07 219.407 199.952 219.993 199.64C220.579 199.327 220.083 197.304 220.083 197.304V196.789C220.099 196.807 220.113 196.827 220.131 196.845V196.859C220.657 197.655 221.022 198.547 221.208 199.483L221.25 199.683Z" fill="#040709"/>
<path d="M214.955 205.517C214.955 205.517 213.828 203.453 211.669 204.216C211.669 204.216 210.455 206.689 209.24 207.089C208.026 207.489 208.431 208.839 211.176 208.346C213.92 207.854 218.057 207.447 218.057 207.447L218.238 204.931L221.027 201.385C221.027 201.385 222.69 199.88 220.216 196.919V197.434C220.216 197.434 220.712 199.458 220.126 199.77C219.54 200.083 216.94 205.203 216.94 205.203L214.955 205.517Z" fill="#1D2366"/>
<path opacity="0.1" d="M198.355 169.022C198.394 169.702 198.482 170.378 198.621 171.046C196.083 170.675 193.729 170.859 192.185 170.98V168.977L198.355 169.022Z" fill="#040709"/>
<path opacity="0.1" d="M221.343 172.073C221.343 172.073 217.738 172.249 213.438 172.285C213.317 171.16 213.29 170.234 213.29 170.234C213.29 170.234 215.719 166.861 220.171 170.504C220.527 170.794 220.841 171.133 221.102 171.511C221.172 171.703 221.252 171.89 221.343 172.073Z" fill="#040709"/>
<path d="M221.343 171.668C221.343 171.668 205.552 172.431 200.739 171.084C195.926 169.737 191.155 170.904 190.436 170.591C189.718 170.279 190.301 165.384 190.932 164.172C191.563 162.96 195.024 150.703 195.024 150.703L198.355 133.376L201.863 132.412L202.111 132.342L208.224 130.66L212.704 129.426C212.704 129.426 221.611 164.127 220.847 166.686C220.57 167.666 220.525 168.696 220.716 169.696C220.833 170.379 221.044 171.043 221.343 171.668Z" fill="#1D2366"/>
<path d="M186.746 121.527C186.746 121.527 183.591 124.899 185.979 126.779C188.368 128.659 189.938 126.959 189.938 126.959L186.746 121.527Z" fill="#90C4F2"/>
<path opacity="0.1" d="M186.746 121.527C186.746 121.527 183.591 124.899 185.979 126.779C188.368 128.659 189.938 126.959 189.938 126.959L186.746 121.527Z" fill="#040709"/>
<path d="M212.233 99.3518C212.233 99.3518 211.863 99.7026 211.307 100.22C210.513 100.96 209.339 102.041 208.298 102.947C206.856 104.2 205.667 105.119 206.092 104.335C206.518 103.55 206.437 102.183 206.225 100.903C206.21 100.818 206.196 100.732 206.18 100.649C206.005 99.7096 205.772 98.7815 205.484 97.8701C205.484 97.8701 207.814 94.866 209.103 93.6811C209.583 93.2314 209.919 93.047 209.939 93.3595C209.961 93.78 210.277 94.7086 210.669 95.6935C210.68 95.725 210.691 95.7542 210.705 95.7857C210.966 96.4602 211.262 97.1528 211.521 97.7509C211.917 98.6683 212.233 99.3518 212.233 99.3518Z" fill="#FFB0B1"/>
<path opacity="0.1" d="M210.705 95.7857C210.486 96.9608 209.955 98.0557 209.167 98.956C208.379 99.8562 207.363 100.529 206.225 100.903C206.046 99.8769 205.799 98.8635 205.484 97.87C205.484 97.87 209.871 92.215 209.939 93.3595C209.955 93.7935 210.297 94.7559 210.705 95.7857Z" fill="#040709"/>
<path opacity="0.1" d="M205.788 102.414L206.356 101.616C206.356 101.616 206.732 103.905 208.116 102.895C209.499 101.886 209.567 110.493 209.567 110.493L208.082 132.648L197.352 132.007L197.656 121.302L198.871 115.905L201.874 108.06L203.661 105.468L205.788 102.414Z" fill="#040709"/>
<path d="M209.567 110.63L208.215 130.662L208.073 132.785L202.091 132.427L201.865 132.414L197.359 132.144L197.663 121.437L198.877 116.04L201.881 108.195L203.668 105.603L205.795 102.538L206.363 101.742C206.363 101.742 206.739 104.031 208.123 103.021L208.152 103.001C209.504 102.147 209.567 110.63 209.567 110.63Z" fill="#1D2366"/>
<path d="M199.028 114.165C199.028 114.165 198.49 115.289 197.408 115.107C196.327 114.925 196.329 119.154 196.329 119.154C196.329 119.154 195.61 119.829 195.114 119.244C194.619 118.66 193.312 120.636 193.312 120.636L185.123 120.996C185.123 120.996 188.767 122.658 188.052 127.685C188.052 127.685 200.423 126.921 200.829 125.754C201.234 124.587 199.028 114.165 199.028 114.165Z" fill="white"/>
<path opacity="0.03" d="M199.028 114.165C199.028 114.165 198.49 115.289 197.408 115.107C196.327 114.925 196.329 119.154 196.329 119.154C196.329 119.154 195.61 119.829 195.114 119.244C194.619 118.66 193.312 120.636 193.312 120.636L185.123 120.996C185.123 120.996 188.767 122.658 188.052 127.685C188.052 127.685 200.423 126.921 200.829 125.754C201.234 124.587 199.028 114.165 199.028 114.165Z" fill="#040709"/>
<path d="M175.231 123.638L177.39 125.477L195.159 129.203L192.956 126.959L175.231 123.638Z" fill="white"/>
<path d="M205.822 103.123C205.527 103.572 204.682 105.875 203.977 107.885C203.388 109.56 202.897 111.033 202.897 111.033C202.897 111.033 201.75 118.484 201.164 119.831C200.579 121.178 200.896 126.431 200.896 126.431L198.713 139.402C198.713 139.402 197.724 146.092 196.196 150.087C194.688 154.02 193.01 155.864 192.958 155.922C193.634 155.009 197.318 137.035 197.318 137.035L198.535 114.365C198.535 114.365 198.713 112.211 198.893 110.37C199.073 108.528 202.724 106.014 202.724 106.014L206.243 101.02C206.597 101.492 206.361 102.315 205.822 103.123Z" fill="white"/>
<path d="M196.644 132.257C196.644 132.257 191.462 132.032 188.951 129.023C186.441 126.015 194.754 127.822 194.754 127.822L196.915 128.317L196.644 132.257Z" fill="#FFB0B1"/>
<path opacity="0.1" d="M220.847 166.688C220.57 167.668 220.525 168.699 220.716 169.699C215.063 170.099 209.015 168.574 209.015 168.574C207.888 169.609 204.921 171.133 204.921 171.133L203.303 151.122C202.269 148.423 201.863 134.287 201.863 134.287C201.863 134.287 201.955 133.547 202.088 132.439C202.088 132.412 202.088 132.382 202.1 132.355C202.503 129.259 203.303 123.447 203.695 122.662C204.236 121.583 202.032 118.711 202.032 118.711L203.035 110.178L203.156 109.149C205.27 108.206 206.89 105.198 206.89 105.198L208.134 103.024C209.486 102.158 209.556 110.642 209.556 110.642L208.204 130.674L212.683 129.439C212.683 129.439 221.611 164.129 220.847 166.688Z" fill="#040709"/>
<path d="M226.649 168.071C220.487 171.124 209.285 168.296 209.285 168.296C208.159 169.33 205.191 170.854 205.191 170.854L203.571 150.843C202.539 148.145 202.133 134.008 202.133 134.008C202.133 134.008 203.436 123.46 203.977 122.383C204.134 122.069 204.058 121.601 203.871 121.097C202.951 118.7 202.613 116.12 202.884 113.567L203.316 109.9L203.436 108.872C205.552 107.928 207.172 104.919 207.172 104.919L208.298 102.949L210.371 99.3203L211.354 97.6025L211.521 97.7531L212.794 98.9044C212.794 98.9044 213.335 99.3541 214.146 100.029C215.91 101.513 218.959 104.125 220.532 105.724C221.915 107.132 222.352 112.607 222.478 116.728C222.562 119.442 222.512 121.569 222.512 121.569C221.117 123.861 224.766 142.256 224.766 142.256C225.615 145.811 226.649 168.071 226.649 168.071Z" fill="white"/>
<path opacity="0.03" d="M214.819 104.874C214.819 104.874 210.59 112.908 211.081 115.962C211.572 119.015 212.969 122.471 212.296 123.278C212.064 123.584 211.765 123.832 211.421 124.004C211.078 124.175 210.699 124.264 210.315 124.265C209.639 124.31 207.836 125.567 207.836 125.702C207.836 125.837 206.171 125.837 204.682 126.467C203.192 127.096 200.993 127.454 200.993 127.454C200.993 127.454 196.712 127.319 196.313 127.724C195.914 128.128 195.504 130.55 196.358 132.481C197.212 134.413 198.161 135.854 198.877 136.117C199.594 136.38 204.141 134.86 207.83 134.501C211.518 134.141 215.523 131.224 215.523 131.224C215.523 131.224 219.932 129.65 220.705 127.004C221.478 124.358 219.761 109.812 219.761 109.812C219.761 109.812 218.463 103.033 214.819 104.874Z" fill="#040709"/>
<path opacity="0.03" d="M214.279 104.2C214.279 104.2 210.049 112.236 210.545 115.287C211.041 118.338 212.433 121.796 211.757 122.606C211.527 122.912 211.228 123.161 210.885 123.332C210.541 123.503 210.163 123.593 209.779 123.593C209.103 123.638 207.3 124.895 207.3 125.03C207.3 125.165 205.635 125.165 204.146 125.792C202.656 126.419 200.457 126.779 200.457 126.779C200.457 126.779 196.176 126.644 195.779 127.049C195.382 127.454 194.968 129.878 195.824 131.807C196.68 133.736 197.627 135.18 198.343 135.443C199.06 135.706 203.607 134.186 207.296 133.828C210.984 133.471 214.989 130.55 214.989 130.55C214.989 130.55 219.396 128.976 220.16 126.332C220.924 123.687 219.216 109.137 219.216 109.137C219.216 109.137 217.922 102.36 214.279 104.2Z" fill="#040709"/>
<path d="M214.687 104.469C214.687 104.469 210.457 112.506 210.953 115.557C211.449 118.608 212.841 122.066 212.167 122.873C211.937 123.18 211.638 123.43 211.294 123.601C210.95 123.773 210.571 123.862 210.187 123.863C209.511 123.908 207.708 125.165 207.708 125.297C207.708 125.43 206.045 125.432 204.553 126.062C203.062 126.691 200.865 127.049 200.865 127.049C200.865 127.049 196.583 126.914 196.185 127.319C195.786 127.724 195.376 130.147 196.23 132.077C197.084 134.006 198.032 135.449 198.749 135.712C199.465 135.976 204.013 134.456 207.701 134.096C211.39 133.736 215.394 130.82 215.394 130.82C215.394 130.82 219.804 129.246 220.577 126.599C221.35 123.953 219.644 109.407 219.644 109.407C219.644 109.407 218.328 102.639 214.687 104.469Z" fill="white"/>
<path opacity="0.1" d="M214.594 126.024C214.594 126.024 211.214 125.349 212.39 126.473C213.567 127.598 213.56 128.582 215 128.537C216.44 128.493 214.594 126.024 214.594 126.024Z" fill="#040709"/>
<path opacity="0.1" d="M220.306 150.213C220.306 150.213 218.779 151.245 221.701 153.624C224.624 156.003 220.306 150.213 220.306 150.213Z" fill="#040709"/>
<path opacity="0.1" d="M217.391 158.697C217.391 158.832 216.85 163.643 218.873 164.846C220.897 166.049 217.391 158.697 217.391 158.697Z" fill="#040709"/>
<path d="M185.263 120.985C183.631 121.041 180.107 121.538 181.935 124.94C183.55 127.951 186.266 125.938 187.793 124.411C187.421 122.988 186.515 121.762 185.263 120.985Z" fill="#FFB0B1"/>
<path opacity="0.1" d="M214.146 100.166C212.415 101.346 210.964 102.342 210.68 102.549C209.905 103.123 208.427 106.489 207.474 108.206C206.714 109.589 204.247 109.945 203.316 110.032L203.436 109.005C205.552 108.06 207.172 105.052 207.172 105.052L211.354 97.7351L212.794 99.0415C212.794 99.0415 213.335 99.4912 214.146 100.166Z" fill="#040709"/>
<path d="M214.146 100.031C212.415 101.211 210.964 102.207 210.68 102.417C209.905 102.988 208.427 106.354 207.474 108.072C206.714 109.454 204.247 109.81 203.316 109.897L203.436 108.87C205.552 107.925 207.172 104.917 207.172 104.917L211.354 97.6002L212.794 98.9021C212.794 98.9021 213.335 99.3473 214.146 100.031Z" fill="#DCE7FF"/>
<path d="M210.815 94.3017C210.816 95.6514 210.406 96.9696 209.639 98.0814C208.733 99.396 207.385 100.343 205.84 100.751C204.294 101.158 202.653 100.999 201.215 100.303C199.776 99.6066 198.636 98.4188 198 96.955C197.364 95.4913 197.275 93.8486 197.749 92.325C198.224 90.8015 199.229 89.498 200.584 88.6511C201.939 87.8042 203.553 87.47 205.134 87.7091C206.714 87.9482 208.157 88.7448 209.199 89.9544C210.242 91.164 210.815 92.7063 210.815 94.3017Z" fill="#FFB0B1"/>
<path opacity="0.1" d="M222.479 116.731C221.563 116.169 220.818 115.37 220.322 114.419C219.946 113.677 219.696 112.82 219.054 112.294C218.474 111.822 217.702 111.707 216.98 111.496C214.61 110.797 212.623 108.638 212.548 106.174C212.512 105.014 212.875 103.856 212.71 102.707C212.617 102.056 212.358 101.441 211.958 100.919C211.759 100.669 211.542 100.436 211.307 100.22C210.991 99.9229 210.66 99.6351 210.371 99.3203C210.19 99.1254 210.031 98.9104 209.898 98.6795C209.791 98.4906 209.704 98.2908 209.639 98.0837C209.189 96.7076 209.599 95.0752 209.103 93.6833L209.076 93.6069C208.889 93.1122 208.508 92.6175 207.978 92.5793C207.449 92.5411 206.996 92.9795 206.491 93.1752C205.434 93.5844 204.294 92.8873 203.413 92.1768C202.532 91.4663 201.539 90.6546 200.419 90.812C199.677 90.9176 199.091 91.4213 198.409 91.6821C198.255 91.7417 198.095 91.7876 197.933 91.8193C198.511 90.3814 199.573 89.1892 200.936 88.4475C202.299 87.7058 203.878 87.4609 205.402 87.7549C206.926 88.0488 208.301 88.8634 209.288 90.0585C210.276 91.2536 210.816 92.7547 210.815 94.3039C210.816 94.7717 210.767 95.2383 210.669 95.6957C210.68 95.7272 210.691 95.7564 210.705 95.7879C210.966 96.4625 211.262 97.155 211.521 97.7531L212.794 98.9044C212.794 98.9044 213.335 99.3541 214.146 100.029C215.91 101.513 218.959 104.125 220.532 105.724C221.915 107.136 222.348 112.609 222.479 116.731Z" fill="#040709"/>
<path d="M198.33 87.5741C198.652 86.9198 198.812 86.1868 199.197 85.5662C199.763 84.6668 200.75 84.0912 201.764 83.7427C204.412 82.832 210.006 81.5099 211.678 83.7427C212.007 84.1924 212.28 84.6915 212.735 85.0018C213.082 85.2379 213.501 85.3391 213.882 85.5167C214.948 86.0159 215.628 87.1042 215.991 88.215C216.354 89.3257 216.462 90.5174 216.728 91.6619C217.068 93.1302 217.665 94.522 218.26 95.9049C218.961 97.5373 219.705 99.2304 221.057 100.384C222.902 101.958 223.31 104.186 225.023 105.913C227.051 107.964 226.985 111.348 225.94 114.035C225.802 114.388 225.647 114.756 225.701 115.132C225.755 115.507 226.034 115.849 226.298 116.148L227.407 117.396C224.784 118.028 221.816 116.661 220.595 114.262C220.218 113.52 219.968 112.665 219.324 112.137C218.747 111.665 217.972 111.552 217.253 111.341C214.883 110.639 212.895 108.479 212.821 106.014C212.785 104.856 213.148 103.698 212.983 102.551C212.892 101.897 212.631 101.277 212.228 100.753C211.609 99.9454 210.673 99.4035 210.169 98.5041C209.315 96.9999 209.964 95.0459 209.349 93.4315C209.159 92.9368 208.781 92.4422 208.251 92.4039C207.722 92.3657 207.269 92.8042 206.762 92.9998C205.707 93.409 204.567 92.7142 203.686 92.0014C202.805 91.2887 201.811 90.4792 200.689 90.6388C199.948 90.7423 199.364 91.2459 198.681 91.509C198.177 91.7024 197.154 91.8755 196.712 91.4506C195.779 90.5939 197.94 88.3746 198.33 87.5741Z" fill="#591D4B"/>
<path opacity="0.1" d="M221.221 113.52C220.843 112.778 220.595 111.923 219.95 111.397C219.373 110.925 218.598 110.81 217.877 110.599C215.509 109.9 213.522 107.739 213.445 105.274C213.409 104.116 213.772 102.956 213.609 101.809C213.515 101.159 213.255 100.544 212.855 100.022C212.233 99.2146 211.297 98.6728 210.795 97.7734C209.941 96.2713 210.59 94.3174 209.973 92.7007C209.786 92.2083 209.405 91.7136 208.877 91.6731C208.35 91.6327 207.893 92.0756 207.388 92.2713C206.333 92.6805 205.191 91.9834 204.312 91.2729C203.433 90.5624 202.435 89.7507 201.315 89.9081C200.574 90.0137 199.988 90.5174 199.308 90.7782C198.803 90.9716 197.778 91.147 197.336 90.722C196.408 89.8226 198.569 87.6078 198.956 86.8119C199.278 86.1553 199.438 85.4245 199.826 84.8039C199.846 84.7702 199.869 84.7365 199.891 84.7028C199.601 84.9424 199.351 85.2262 199.15 85.5437C198.765 86.1643 198.605 86.8928 198.282 87.5516C197.893 88.3476 195.732 90.5691 196.662 91.4618C197.113 91.889 198.127 91.7136 198.632 91.5202C199.308 91.2572 199.898 90.7535 200.639 90.6501C201.766 90.4904 202.757 91.3021 203.636 92.0127C204.515 92.7232 205.664 93.4202 206.714 93.011C207.219 92.8154 207.661 92.3747 208.201 92.4152C208.742 92.4556 209.103 92.9481 209.299 93.4427C209.914 95.0572 209.265 97.0111 210.119 98.5154C210.624 99.399 211.559 99.9522 212.179 100.764C212.582 101.288 212.842 101.908 212.933 102.563C213.098 103.709 212.735 104.867 212.771 106.025C212.846 108.499 214.833 110.651 217.203 111.352C217.918 111.563 218.697 111.676 219.274 112.148C219.921 112.676 220.176 113.531 220.545 114.273C221.766 116.672 224.734 118.039 227.357 117.407L226.834 116.818C224.561 116.852 222.26 115.561 221.221 113.52Z" fill="#040709"/>
<path opacity="0.1" d="M205.687 103.257C205.392 103.707 204.547 106.01 203.841 108.02C203.181 107.763 202.582 106.129 202.582 106.129L206.101 101.133C206.462 101.627 206.225 102.448 205.687 103.257Z" fill="#040709"/>
<path d="M205.822 103.123C205.527 103.572 204.682 105.875 203.977 107.885C203.316 107.631 202.717 105.994 202.717 105.994L206.237 101C206.597 101.492 206.361 102.315 205.822 103.123Z" fill="#DCE7FF"/>
<path d="M185.357 126.093L183.406 119.953C183.383 119.881 183.374 119.805 183.381 119.73C183.387 119.655 183.408 119.581 183.443 119.514C183.478 119.447 183.525 119.388 183.583 119.339C183.641 119.29 183.708 119.254 183.78 119.231C183.925 119.186 184.083 119.199 184.218 119.269C184.353 119.339 184.455 119.46 184.501 119.604L186.453 125.738L186.259 127.022L185.357 126.093Z" fill="#BE8B87"/>
<path opacity="0.1" d="M183.591 119.413C183.736 119.367 183.894 119.381 184.03 119.451C184.165 119.521 184.268 119.641 184.314 119.786L186.266 125.92L186.119 126.883L186.261 127.031L186.455 125.747L184.492 119.613C184.446 119.469 184.344 119.348 184.209 119.278C184.074 119.209 183.916 119.195 183.771 119.24C183.649 119.279 183.543 119.359 183.471 119.465C183.51 119.444 183.55 119.427 183.591 119.413Z" fill="white"/>
<path d="M185.357 126.093L186.453 125.747L186.293 126.799L186.259 127.031L185.939 126.698L185.357 126.093Z" fill="#EFC8C4"/>
<path d="M185.939 126.698C185.958 126.674 185.982 126.654 186.009 126.64C186.025 126.63 186.043 126.624 186.062 126.624C186.08 126.624 186.099 126.63 186.115 126.64C186.13 126.658 186.143 126.679 186.153 126.7C186.168 126.725 186.188 126.746 186.212 126.762C186.236 126.778 186.264 126.789 186.293 126.793L186.259 127.017L185.939 126.698Z" fill="#040709"/>
<path d="M183.395 122.134C183.395 122.134 187.309 122.111 186.387 123.773C185.466 125.435 184.026 125.635 184.026 125.635L183.395 122.134Z" fill="#FFB0B1"/>
<path d="M159.052 47.5619H158.883C152.159 47.5619 146.213 51.1123 142.792 56.3513C139.372 51.1123 133.425 47.5619 126.701 47.5619H126.532C121.486 47.6098 116.663 49.6431 113.111 53.2197C109.559 56.7964 107.565 61.6274 107.562 66.663C107.562 72.9161 110.306 81.7887 115.658 89.0896C125.854 103.001 142.792 115.172 142.792 115.172C142.792 115.172 159.73 103.003 169.924 89.0896C175.278 81.7887 178.021 72.9161 178.021 66.663C178.018 61.6278 176.024 56.7971 172.472 53.2205C168.921 49.6439 164.098 47.6104 159.052 47.5619ZM156.634 90.1599C155.869 90.157 155.122 89.9231 154.492 89.4889C153.861 89.0547 153.378 88.4406 153.104 87.727H149.084C148.819 87.7254 148.561 87.6413 148.347 87.4865C148.132 87.3317 147.972 87.1139 147.887 86.8636L146.652 83.1513L142.745 96.775C142.669 97.0373 142.51 97.2678 142.291 97.432C142.072 97.5963 141.806 97.6853 141.533 97.6857H141.454C141.168 97.6719 140.896 97.5608 140.683 97.3709C140.47 97.181 140.328 96.9238 140.282 96.6424L136.255 72.4754L133.313 86.7759C133.245 87.0476 133.088 87.2888 132.868 87.4612C132.647 87.6336 132.374 87.7272 132.094 87.727H126.431C126.261 87.7342 126.092 87.707 125.933 87.6471C125.774 87.5873 125.629 87.4959 125.506 87.3786C125.383 87.2613 125.286 87.1204 125.219 86.9645C125.153 86.8085 125.118 86.6408 125.118 86.4712C125.118 86.3017 125.153 86.1339 125.219 85.978C125.286 85.822 125.383 85.6812 125.506 85.5639C125.629 85.4465 125.774 85.3552 125.933 85.2953C126.092 85.2354 126.261 85.2083 126.431 85.2154H131.102L135.271 65.9884C135.339 65.7041 135.504 65.4524 135.738 65.2763C135.972 65.1001 136.26 65.0105 136.553 65.0227C136.845 65.0349 137.125 65.1482 137.343 65.3433C137.561 65.5383 137.705 65.8029 137.749 66.0918L141.862 90.7445L145.363 78.5553C145.436 78.2986 145.59 78.0723 145.803 77.9102C146.015 77.7481 146.274 77.6589 146.542 77.6559H146.567C146.831 77.656 147.09 77.7395 147.304 77.8946C147.518 78.0496 147.678 78.2683 147.761 78.5194L149.994 85.2222H153.054C153.271 84.5626 153.667 83.9758 154.198 83.5266C154.729 83.0774 155.373 82.7833 156.061 82.6766C156.749 82.57 157.452 82.6549 158.095 82.9222C158.737 83.1895 159.293 83.6286 159.701 84.1911C160.109 84.7537 160.353 85.4178 160.406 86.1101C160.46 86.8024 160.321 87.496 160.004 88.1144C159.688 88.7328 159.206 89.252 158.613 89.6145C158.019 89.977 157.337 90.1689 156.641 90.1689L156.634 90.1599Z" fill="#90C4F2"/>
</g>
</g>
<defs>
<linearGradient id="paint0_linear_33_2" x1="80.2923" y1="210.23" x2="80.2923" y2="71.8705" gradientUnits="userSpaceOnUse">
<stop stop-color="#808080" stop-opacity="0.25"/>
<stop offset="0.54" stop-color="#808080" stop-opacity="0.12"/>
<stop offset="1" stop-color="#808080" stop-opacity="0.1"/>
</linearGradient>
<linearGradient id="paint1_linear_33_2" x1="201.318" y1="208.481" x2="201.318" y2="82.1147" gradientUnits="userSpaceOnUse">
<stop stop-color="#808080" stop-opacity="0.25"/>
<stop offset="0.54" stop-color="#808080" stop-opacity="0.12"/>
<stop offset="1" stop-color="#808080" stop-opacity="0.1"/>
</linearGradient>
<clipPath id="clip0_33_2">
<rect width="248" height="248" fill="white"/>
</clipPath>
<clipPath id="clip1_33_2">
<rect width="249" height="176" fill="white" transform="translate(0 36)"/>
</clipPath>
</defs>
</svg>
