<svg width="530" height="248" viewBox="0 0 530 248" fill="none" xmlns="http://www.w3.org/2000/svg">
<rect width="530" height="248" fill="white"/>
<g clip-path="url(#clip0_33_249)">
<path d="M404.864 8H144.102C141.68 8.00291 139.358 8.96537 137.645 10.6763C135.932 12.3871 134.969 14.7068 134.966 17.1263V175.85C134.969 178.269 135.932 180.589 137.645 182.3C139.358 184.011 141.68 184.973 144.102 184.976H404.864C407.286 184.973 409.608 184.011 411.321 182.3C413.034 180.589 413.997 178.269 414 175.85V17.1263C413.997 14.7068 413.034 12.3871 411.321 10.6763C409.608 8.96537 407.286 8.00291 404.864 8ZM413.195 175.85C413.195 176.942 412.979 178.025 412.561 179.034C412.142 180.044 411.528 180.961 410.755 181.734C409.981 182.507 409.063 183.12 408.052 183.538C407.041 183.956 405.958 184.171 404.864 184.171H144.102C141.893 184.171 139.774 183.295 138.211 181.734C136.649 180.173 135.771 178.057 135.771 175.85V71.4199C135.771 63.1971 137.393 55.0549 140.543 47.458C143.693 39.8612 148.31 32.9585 154.13 27.1441C159.951 21.3297 166.861 16.7175 174.466 13.5708C182.071 10.424 190.222 8.80444 198.453 8.80444H404.864C405.958 8.80444 407.041 9.01969 408.052 9.4379C409.063 9.85612 409.981 10.4691 410.755 11.2419C411.528 12.0146 412.142 12.932 412.561 13.9417C412.979 14.9513 413.195 16.0335 413.195 17.1263V175.85Z" fill="#040709"/>
<path d="M389.366 143.037H269.929C268.689 143.036 267.5 142.543 266.623 141.667C265.747 140.791 265.254 139.604 265.252 138.366V99.6178C265.254 98.3793 265.747 97.1919 266.623 96.3162C267.5 95.4404 268.689 94.9478 269.929 94.9464H389.366C390.606 94.9478 391.794 95.4404 392.671 96.3162C393.548 97.1919 394.041 98.3793 394.042 99.6178V138.366C394.041 139.604 393.548 140.791 392.671 141.667C391.794 142.543 390.606 143.036 389.366 143.037Z" fill="#D8E6F0"/>
<path d="M203.135 33.6243C205.057 33.6243 206.615 32.0333 206.615 30.0709C206.615 28.1084 205.057 26.5175 203.135 26.5175C201.213 26.5175 199.655 28.1084 199.655 30.0709C199.655 32.0333 201.213 33.6243 203.135 33.6243Z" fill="#040709"/>
<path d="M191.114 33.6243C193.036 33.6243 194.594 32.0333 194.594 30.0709C194.594 28.1084 193.036 26.5175 191.114 26.5175C189.193 26.5175 187.635 28.1084 187.635 30.0709C187.635 32.0333 189.193 33.6243 191.114 33.6243Z" fill="#040709"/>
<path d="M179.094 33.6243C181.016 33.6243 182.573 32.0333 182.573 30.0709C182.573 28.1084 181.016 26.5175 179.094 26.5175C177.172 26.5175 175.614 28.1084 175.614 30.0709C175.614 32.0333 177.172 33.6243 179.094 33.6243Z" fill="#040709"/>
<path d="M316.83 66.3653H268.164C267.361 66.3653 266.591 66.0467 266.023 65.4794C265.455 64.9122 265.136 64.1428 265.136 63.3406C265.136 62.5384 265.455 61.7691 266.023 61.2019C266.591 60.6346 267.361 60.3159 268.164 60.3159H316.83C317.633 60.3159 318.404 60.6346 318.971 61.2019C319.539 61.7691 319.858 62.5384 319.858 63.3406C319.858 64.1428 319.539 64.9122 318.971 65.4794C318.404 66.0467 317.633 66.3653 316.83 66.3653Z" fill="#D8E6F0"/>
<path d="M354.809 76.6028H268.164C267.361 76.6028 266.591 76.2841 266.023 75.7169C265.455 75.1496 265.136 74.3803 265.136 73.5781C265.136 72.7759 265.455 72.0065 266.023 71.4393C266.591 70.8721 267.361 70.5534 268.164 70.5534H354.809C355.612 70.5534 356.383 70.8721 356.95 71.4393C357.518 72.0065 357.837 72.7759 357.837 73.5781C357.837 74.3803 357.518 75.1496 356.95 75.7169C356.383 76.2841 355.612 76.6028 354.809 76.6028Z" fill="#D8E6F0"/>
<path d="M181.355 234.48L185.417 234.479L187.349 218.827L181.354 218.827L181.355 234.48Z" fill="#FFB6B6"/>
<path d="M181.212 238.713L193.704 238.712V238.555C193.704 237.267 193.191 236.031 192.279 235.12C191.368 234.209 190.131 233.698 188.841 233.698L186.559 231.968L182.302 233.698L181.211 233.698L181.212 238.713Z" fill="#040709"/>
<path d="M157.872 234.48L161.934 234.479L163.867 218.827L157.871 218.827L157.872 234.48Z" fill="#FFB6B6"/>
<path d="M157.729 238.713L170.221 238.712V238.555C170.221 237.267 169.709 236.031 168.797 235.12C167.885 234.209 166.648 233.698 165.359 233.698L163.077 231.968L158.819 233.698L157.729 233.698L157.729 238.713Z" fill="#040709"/>
<path d="M208.718 130.555L194.877 117.589L198.626 111.315L212.276 126.909C213.086 126.827 213.902 126.997 214.612 127.394C215.322 127.792 215.893 128.398 216.247 129.131C216.6 129.863 216.719 130.687 216.588 131.49C216.457 132.292 216.082 133.035 215.514 133.617C214.945 134.2 214.211 134.593 213.411 134.744C212.611 134.896 211.784 134.798 211.042 134.463C210.3 134.129 209.679 133.574 209.263 132.875C208.847 132.176 208.657 131.366 208.718 130.555Z" fill="#FFB6B6"/>
<path d="M153.898 149.432C153.898 149.432 152.179 164.879 155.902 179.469L154.5 186.522L157.62 226.957H165.195L170.507 160.302L180.424 226.957H188.38L187.403 190.34L190.847 155.153L189.408 147.143L153.898 149.432Z" fill="#040709"/>
<path d="M174.828 89.248H157.917L155.073 96.4712L155.759 153.58C155.759 153.58 189.265 153.58 191.556 151.291L184.397 126.403L181.819 94.6492L174.828 89.248Z" fill="#90C4F2"/>
<path d="M184.11 94.363L196.138 107.236L200.433 110.097L201.579 113.816L196.711 122.112L191.27 120.109L189.551 113.816L179.455 105.57L178.382 92.3608L184.11 94.363Z" fill="#040709"/>
<path d="M173.251 89.6567L175.23 98.0968L177.953 128.262L181.676 151.148H192.416L185.971 126.26L183.394 94.2202L174.803 89.071L173.251 89.6567Z" fill="#040709"/>
<path d="M159.458 89.6567L162.489 99.3694L167.357 131.409L159.911 154.295L152.682 154.407L150.801 147.308L155.043 129.121L149.315 94.2202L157.907 89.071L159.458 89.6567Z" fill="#040709"/>
<path d="M165.716 86.3878C171.377 86.3878 175.966 81.8033 175.966 76.1481C175.966 70.4929 171.377 65.9085 165.716 65.9085C160.054 65.9085 155.465 70.4929 155.465 76.1481C155.465 81.8033 160.054 86.3878 165.716 86.3878Z" fill="#FFB6B6"/>
<path d="M159.802 81.217C159.802 81.217 159.31 81.963 160.26 85.1283L155.902 81.633L155.425 77.7947C155.425 77.7947 153.207 69.8816 160.812 66.0834C160.812 66.0834 167.466 62.6016 173.803 67.666C173.803 67.666 176.338 67.9825 176.021 68.299C175.705 68.6156 174.12 69.5651 175.705 69.2486C177.289 68.9321 178.239 67.3495 178.239 68.299C178.239 69.2486 175.388 71.4643 175.388 71.4643C175.388 71.4643 176.497 74.4712 168.892 70.3564C168.079 72.3878 166.512 74.027 164.518 74.9323L164.762 75.1704L162.872 79.2191C162.872 79.2191 160.911 76.6275 159.802 81.217Z" fill="#040709"/>
<path d="M160.607 161.12L195.046 83.5492C195.404 82.7444 196.068 82.1145 196.89 81.7976C197.713 81.4807 198.628 81.5028 199.435 81.859L224.654 93.0318C225.459 93.3899 226.09 94.0525 226.407 94.8744C226.724 95.6963 226.702 96.6104 226.346 97.416L191.906 174.986C191.548 175.791 190.885 176.421 190.062 176.738C189.239 177.055 188.324 177.033 187.518 176.677L162.299 165.504C161.493 165.146 160.862 164.483 160.545 163.661C160.228 162.839 160.25 161.925 160.607 161.12Z" fill="white"/>
<path d="M160.607 161.12L195.046 83.5492C195.404 82.7444 196.068 82.1145 196.89 81.7976C197.713 81.4807 198.628 81.5028 199.435 81.859L224.654 93.0318C225.459 93.3899 226.09 94.0525 226.407 94.8744C226.724 95.6963 226.702 96.6104 226.346 97.416L191.906 174.986C191.548 175.791 190.885 176.421 190.062 176.738C189.239 177.055 188.324 177.033 187.518 176.677L162.299 165.504C161.493 165.146 160.862 164.483 160.545 163.661C160.228 162.839 160.25 161.925 160.607 161.12ZM225.811 97.179C226.105 96.5151 226.123 95.7619 225.861 95.0846C225.6 94.4074 225.08 93.8613 224.416 93.5663L199.197 82.3935C198.533 82.1 197.779 82.0818 197.101 82.3429C196.423 82.604 195.876 83.1231 195.581 83.7863L161.142 161.357C160.848 162.021 160.829 162.774 161.091 163.451C161.352 164.128 161.872 164.674 162.536 164.969L187.755 176.142C188.419 176.436 189.173 176.454 189.851 176.193C190.529 175.932 191.076 175.413 191.371 174.749L225.811 97.179Z" fill="#040709"/>
<path d="M198.252 129.402C205.369 129.402 211.139 123.638 211.139 116.529C211.139 109.419 205.369 103.656 198.252 103.656C191.135 103.656 185.365 109.419 185.365 116.529C185.365 123.638 191.135 129.402 198.252 129.402Z" fill="#D8E6F0"/>
<path d="M191.982 143.523C199.1 143.523 204.869 137.76 204.869 130.65C204.869 123.54 199.1 117.777 191.982 117.777C184.865 117.777 179.096 123.54 179.096 130.65C179.096 137.76 184.865 143.523 191.982 143.523Z" fill="#040709"/>
<path d="M180.488 156.539C178.941 155.854 177.545 154.871 176.378 153.646C175.211 152.422 174.297 150.979 173.689 149.402C173.08 147.825 172.788 146.143 172.83 144.453C172.872 142.763 173.247 141.098 173.933 139.552C174.619 138.007 175.603 136.612 176.829 135.446C178.055 134.281 179.498 133.368 181.077 132.76C182.656 132.152 184.34 131.86 186.032 131.902C187.724 131.944 189.391 132.318 190.938 133.004C197.444 135.886 204.578 150.67 197.493 149.99C189.38 149.212 186.994 159.421 180.488 156.539Z" fill="#90C4F2"/>
<path d="M163.155 148.902L153.085 123.839L161.138 125.448L167.859 146.94C168.636 147.182 169.32 147.657 169.817 148.301C170.315 148.944 170.602 149.725 170.64 150.538C170.678 151.35 170.465 152.155 170.03 152.842C169.594 153.529 168.958 154.066 168.207 154.379C167.455 154.693 166.626 154.767 165.83 154.594C165.035 154.42 164.313 154.006 163.761 153.408C163.209 152.81 162.855 152.056 162.747 151.25C162.638 150.444 162.781 149.625 163.155 148.902Z" fill="#FFB6B6"/>
<path d="M146.85 100.334C146.264 106.795 147.478 112.468 149.655 117.719L149.935 122.39L152.173 125.574L161.719 126.819L163.472 121.297L159.548 116.083L159.218 103.06L149.429 94.1138L146.85 100.334Z" fill="#040709"/>
<path d="M137.847 232.028C137.66 232.037 137.475 231.988 137.316 231.888C137.158 231.788 137.034 231.641 136.962 231.469C136.89 231.296 136.872 231.105 136.912 230.922C136.952 230.74 137.047 230.573 137.185 230.446L137.248 230.198C137.239 230.178 137.231 230.158 137.223 230.138C137.034 229.693 136.718 229.314 136.315 229.048C135.911 228.782 135.437 228.641 134.954 228.642C134.47 228.644 133.998 228.789 133.596 229.058C133.195 229.327 132.882 229.709 132.696 230.155C131.956 231.936 131.013 233.72 130.781 235.603C130.679 236.436 130.722 237.279 130.909 238.097C129.17 234.308 128.267 230.19 128.261 226.022C128.261 224.976 128.319 223.931 128.436 222.892C128.532 222.04 128.665 221.194 128.836 220.354C129.768 215.796 131.769 211.524 134.675 207.889C136.081 207.123 137.218 205.944 137.933 204.512C138.192 203.997 138.375 203.448 138.477 202.88C138.318 202.901 137.879 200.488 137.998 200.34C137.777 200.005 137.381 199.838 137.14 199.511C135.939 197.885 134.285 198.169 133.421 200.379C131.576 201.309 131.558 202.852 132.69 204.335C133.411 205.279 133.509 206.556 134.141 207.567C134.076 207.65 134.009 207.731 133.944 207.814C132.755 209.34 131.719 210.98 130.851 212.708C131.062 210.772 130.81 208.813 130.116 206.993C129.412 205.297 128.092 203.868 126.931 202.402C126.623 202.008 126.206 201.714 125.731 201.556C125.257 201.399 124.746 201.386 124.264 201.519C123.782 201.652 123.351 201.924 123.024 202.302C122.697 202.68 122.489 203.146 122.427 203.642C122.425 203.663 122.423 203.685 122.42 203.707C122.593 203.804 122.762 203.907 122.927 204.016C123.135 204.155 123.296 204.353 123.389 204.584C123.482 204.816 123.503 205.07 123.449 205.314C123.395 205.557 123.268 205.779 123.086 205.949C122.904 206.12 122.674 206.231 122.427 206.269L122.402 206.273C122.464 206.895 122.572 207.51 122.727 208.115C121.237 213.873 124.455 215.97 129.049 216.065C129.151 216.117 129.25 216.169 129.351 216.218C128.479 218.688 127.931 221.26 127.723 223.871C127.605 225.412 127.612 226.959 127.744 228.498L127.736 228.443C127.403 226.732 126.489 225.188 125.148 224.071C123.157 222.437 120.344 221.835 118.195 220.522C117.967 220.376 117.702 220.297 117.43 220.297C117.159 220.296 116.893 220.373 116.664 220.518C116.435 220.664 116.252 220.871 116.138 221.117C116.023 221.362 115.981 221.636 116.017 221.904L116.025 221.962C116.346 222.092 116.657 222.242 116.959 222.411C117.132 222.508 117.301 222.612 117.466 222.721C117.673 222.859 117.834 223.057 117.927 223.289C118.02 223.52 118.041 223.775 117.987 224.018C117.933 224.262 117.807 224.483 117.625 224.654C117.442 224.824 117.213 224.936 116.966 224.974L116.941 224.978C116.923 224.98 116.907 224.983 116.889 224.986C117.436 226.291 118.204 227.492 119.159 228.537C120.091 233.564 124.094 234.04 128.376 232.577H128.378C128.848 234.616 129.529 236.601 130.41 238.5H137.665C137.691 238.419 137.715 238.336 137.738 238.256C137.067 238.298 136.392 238.258 135.73 238.136C136.269 237.476 136.807 236.811 137.345 236.151C137.357 236.139 137.369 236.126 137.379 236.112C137.652 235.775 137.928 235.44 138.201 235.102L138.201 235.101C138.216 234.066 138.097 233.033 137.847 232.028Z" fill="#D8E6F0"/>
<path d="M219.001 238.521C219.001 238.584 218.989 238.647 218.965 238.705C218.941 238.763 218.906 238.816 218.861 238.86C218.817 238.905 218.764 238.94 218.705 238.964C218.647 238.988 218.585 239 218.522 239H116.536C116.408 239 116.287 238.95 116.197 238.86C116.107 238.77 116.056 238.648 116.056 238.521C116.056 238.394 116.107 238.273 116.197 238.183C116.287 238.093 116.408 238.043 116.536 238.043H218.522C218.585 238.043 218.647 238.055 218.705 238.079C218.764 238.103 218.817 238.138 218.861 238.182C218.906 238.227 218.941 238.28 218.965 238.338C218.989 238.396 219.001 238.458 219.001 238.521Z" fill="#D8E6F0"/>
</g>
<defs>
<clipPath id="clip0_33_249">
<rect width="298" height="231" fill="white" transform="translate(116 8)"/>
</clipPath>
</defs>
</svg>
