<svg width="248" height="248" viewBox="0 0 248 248" fill="none" xmlns="http://www.w3.org/2000/svg">
<rect width="248" height="248" fill="white"/>
<g clip-path="url(#clip0_33_167)">
<path d="M227.193 225H61.5642C60.8199 224.999 60.1064 224.703 59.5801 224.177C59.0538 223.65 58.7578 222.936 58.757 222.192V120.161C58.7578 119.417 59.0538 118.703 59.5801 118.177C60.1064 117.65 60.8199 117.354 61.5642 117.353H227.193C227.937 117.354 228.651 117.65 229.177 118.177C229.703 118.703 229.999 119.417 230 120.161V222.192C229.999 222.936 229.703 223.65 229.177 224.177C228.651 224.703 227.937 224.999 227.193 225ZM61.5642 117.977C60.9853 117.978 60.4304 118.208 60.0211 118.618C59.6117 119.027 59.3815 119.582 59.3808 120.161V222.192C59.3815 222.771 59.6117 223.326 60.0211 223.736C60.4304 224.145 60.9853 224.375 61.5642 224.376H227.193C227.772 224.375 228.327 224.145 228.736 223.736C229.145 223.326 229.375 222.771 229.376 222.192V120.161C229.375 119.582 229.145 119.027 228.736 118.618C228.327 118.208 227.772 117.978 227.193 117.977H61.5642Z" fill="#040709"/>
<path d="M208.062 204.937H194.961C194.755 204.937 194.556 204.855 194.41 204.709C194.264 204.562 194.182 204.364 194.182 204.157V197.293C194.182 197.086 194.264 196.888 194.41 196.741C194.556 196.595 194.755 196.513 194.961 196.513H204.397C204.521 196.513 204.64 196.562 204.728 196.65C204.815 196.738 204.865 196.857 204.865 196.981C204.865 197.105 204.815 197.224 204.728 197.312C204.64 197.399 204.521 197.449 204.397 197.449H195.585C195.461 197.449 195.342 197.498 195.254 197.586C195.167 197.674 195.117 197.793 195.117 197.917V203.533C195.117 203.657 195.167 203.776 195.254 203.864C195.342 203.952 195.461 204.001 195.585 204.001H207.438C207.562 204.001 207.681 203.952 207.769 203.864C207.856 203.776 207.906 203.657 207.906 203.533V200.558C207.906 200.434 207.955 200.315 208.043 200.227C208.131 200.139 208.25 200.09 208.374 200.09C208.498 200.09 208.617 200.139 208.705 200.227C208.792 200.315 208.842 200.434 208.842 200.558V204.157C208.841 204.364 208.759 204.562 208.613 204.709C208.467 204.855 208.269 204.937 208.062 204.937Z" fill="#040709"/>
<path d="M184.928 136.074H84.1783C83.806 136.074 83.449 135.926 83.1858 135.663C82.9225 135.4 82.7747 135.043 82.7747 134.67C82.7747 134.298 82.9225 133.941 83.1858 133.677C83.449 133.414 83.806 133.266 84.1783 133.266H184.928C185.3 133.266 185.657 133.414 185.92 133.677C186.184 133.941 186.331 134.298 186.331 134.67C186.331 135.043 186.184 135.4 185.92 135.663C185.657 135.926 185.3 136.074 184.928 136.074Z" fill="#D8E6F0"/>
<path d="M184.928 147.619H84.1783C83.806 147.619 83.449 147.471 83.1858 147.208C82.9225 146.944 82.7747 146.587 82.7747 146.215C82.7747 145.843 82.9225 145.485 83.1858 145.222C83.449 144.959 83.806 144.811 84.1783 144.811H184.928C185.3 144.811 185.657 144.959 185.92 145.222C186.184 145.485 186.331 145.843 186.331 146.215C186.331 146.587 186.184 146.944 185.92 147.208C185.657 147.471 185.3 147.619 184.928 147.619Z" fill="#D8E6F0"/>
<path d="M184.928 159.164H84.1783C83.806 159.164 83.449 159.016 83.1858 158.753C82.9225 158.489 82.7747 158.132 82.7747 157.76C82.7747 157.387 82.9225 157.03 83.1858 156.767C83.449 156.504 83.806 156.356 84.1783 156.356H184.928C185.3 156.356 185.657 156.504 185.92 156.767C186.184 157.03 186.331 157.387 186.331 157.76C186.331 158.132 186.184 158.489 185.92 158.753C185.657 159.016 185.3 159.164 184.928 159.164Z" fill="#D8E6F0"/>
<path d="M184.928 170.709H84.1783C83.806 170.709 83.449 170.561 83.1858 170.297C82.9225 170.034 82.7747 169.677 82.7747 169.304C82.7747 168.932 82.9225 168.575 83.1858 168.312C83.449 168.048 83.806 167.9 84.1783 167.9H184.928C185.3 167.9 185.657 168.048 185.92 168.312C186.184 168.575 186.331 168.932 186.331 169.304C186.331 169.677 186.184 170.034 185.92 170.297C185.657 170.561 185.3 170.709 184.928 170.709Z" fill="#D8E6F0"/>
<path d="M184.928 182.253H84.1783C83.806 182.253 83.449 182.105 83.1858 181.842C82.9225 181.579 82.7747 181.222 82.7747 180.849C82.7747 180.477 82.9225 180.12 83.1858 179.856C83.449 179.593 83.806 179.445 84.1783 179.445H184.928C185.3 179.445 185.657 179.593 185.92 179.856C186.184 180.12 186.331 180.477 186.331 180.849C186.331 181.222 186.184 181.579 185.92 181.842C185.657 182.105 185.3 182.253 184.928 182.253Z" fill="#D8E6F0"/>
<path d="M201.771 138.726C204.011 138.726 205.826 136.91 205.826 134.67C205.826 132.43 204.011 130.614 201.771 130.614C199.532 130.614 197.716 132.43 197.716 134.67C197.716 136.91 199.532 138.726 201.771 138.726Z" fill="#90C4F2"/>
<path d="M201.771 150.271C204.011 150.271 205.826 148.455 205.826 146.215C205.826 143.975 204.011 142.159 201.771 142.159C199.532 142.159 197.716 143.975 197.716 146.215C197.716 148.455 199.532 150.271 201.771 150.271Z" fill="#667C97"/>
<path d="M201.771 161.816C204.011 161.816 205.826 160 205.826 157.76C205.826 155.519 204.011 153.703 201.771 153.703C199.532 153.703 197.716 155.519 197.716 157.76C197.716 160 199.532 161.816 201.771 161.816Z" fill="#90C4F2"/>
<path d="M201.771 173.361C204.011 173.361 205.826 171.545 205.826 169.304C205.826 167.064 204.011 165.248 201.771 165.248C199.532 165.248 197.716 167.064 197.716 169.304C197.716 171.545 199.532 173.361 201.771 173.361Z" fill="#D8E6F0"/>
<path d="M201.771 184.905C204.011 184.905 205.826 183.089 205.826 180.849C205.826 178.609 204.011 176.793 201.771 176.793C199.532 176.793 197.716 178.609 197.716 180.849C197.716 183.089 199.532 184.905 201.771 184.905Z" fill="#D8E6F0"/>
<path d="M201.668 202.74C201.553 202.74 201.439 202.717 201.333 202.673C201.226 202.63 201.13 202.565 201.049 202.484L198.282 199.716C198.195 199.629 198.145 199.51 198.145 199.385C198.145 199.261 198.195 199.142 198.282 199.055C198.371 198.969 198.49 198.922 198.613 198.922C198.736 198.922 198.855 198.969 198.944 199.055L201.557 201.669C201.587 201.697 201.626 201.713 201.668 201.713C201.709 201.713 201.748 201.697 201.778 201.669L210.474 192.97C210.563 192.885 210.682 192.838 210.805 192.838C210.928 192.838 211.046 192.885 211.136 192.97C211.223 193.058 211.273 193.177 211.272 193.301C211.272 193.425 211.223 193.544 211.135 193.632L202.287 202.484C202.205 202.565 202.109 202.63 202.003 202.673C201.896 202.717 201.783 202.74 201.668 202.74Z" fill="#90C4F2"/>
<path opacity="0.1" d="M201.668 210.553C213.554 210.553 223.19 209.995 223.19 209.305C223.19 208.616 213.554 208.057 201.668 208.057C189.781 208.057 180.145 208.616 180.145 209.305C180.145 209.995 189.781 210.553 201.668 210.553Z" fill="#040709"/>
<path d="M42.8764 98.7323H19.3975C19.027 98.7319 18.6718 98.5845 18.4098 98.3224C18.1478 98.0603 18.0004 97.7049 18 97.3343V85.0318C18.0004 84.6612 18.1478 84.3058 18.4098 84.0437C18.6718 83.7817 19.027 83.6342 19.3975 83.6339H36.3079C36.4181 83.6336 36.5273 83.6552 36.6293 83.6972C36.7312 83.7393 36.8238 83.801 36.9019 83.879C36.9799 83.9569 37.0418 84.0494 37.084 84.1513C37.1263 84.2532 37.148 84.3624 37.148 84.4727C37.148 84.5829 37.1263 84.6922 37.084 84.794C37.0418 84.8959 36.9799 84.9884 36.9019 85.0663C36.8238 85.1443 36.7312 85.206 36.6293 85.2481C36.5273 85.2901 36.4181 85.3117 36.3079 85.3115H20.5156C20.2933 85.3117 20.0801 85.4001 19.9229 85.5574C19.7657 85.7147 19.6773 85.9279 19.677 86.1503V96.2159C19.6773 96.4383 19.7657 96.6515 19.9229 96.8087C20.0801 96.966 20.2933 97.0545 20.5156 97.0547H41.7583C41.9806 97.0545 42.1938 96.966 42.351 96.8087C42.5082 96.6515 42.5966 96.4383 42.5968 96.2159V90.8838C42.5968 90.6613 42.6852 90.448 42.8424 90.2907C42.9997 90.1334 43.213 90.045 43.4354 90.045C43.6577 90.045 43.871 90.1334 44.0283 90.2907C44.1855 90.448 44.2739 90.6613 44.2739 90.8838V97.3343C44.2735 97.7049 44.1261 98.0603 43.8641 98.3224C43.6021 98.5845 43.2469 98.7319 42.8764 98.7323Z" fill="#040709"/>
<path d="M31.4165 94.7938C31.2105 94.7942 31.0065 94.7539 30.8162 94.6752C30.6259 94.5965 30.453 94.4809 30.3074 94.3351L25.3491 89.3755C25.192 89.2181 25.1038 89.0048 25.1038 88.7824C25.1038 88.56 25.192 88.3467 25.3491 88.1894C25.5089 88.0369 25.7213 87.9518 25.9422 87.9518C26.163 87.9518 26.3753 88.0369 26.5351 88.1894L31.2188 92.8749C31.272 92.9259 31.3427 92.9543 31.4163 92.9543C31.4899 92.9543 31.5607 92.9259 31.6138 92.8749L47.1992 77.2849C47.359 77.1324 47.5713 77.0474 47.7921 77.0474C48.0129 77.0474 48.2252 77.1324 48.3849 77.2849C48.5421 77.4423 48.6304 77.6556 48.6303 77.878C48.6303 78.1005 48.5419 78.3138 48.3847 78.471L32.5258 94.3351C32.3802 94.4809 32.2072 94.5964 32.0169 94.6752C31.8265 94.7539 31.6225 94.7942 31.4165 94.7938Z" fill="#90C4F2"/>
<path d="M62.5383 118.925H90.9229C91.6119 118.925 92.1705 118.366 92.1705 117.677V111.125C92.1705 110.435 91.6119 109.877 90.9229 109.877H62.5383C61.8492 109.877 61.2906 110.435 61.2906 111.125V117.677C61.2906 118.366 61.8492 118.925 62.5383 118.925Z" fill="#040709"/>
<path d="M90.299 109.565H47.2543C47.0085 109.565 46.7652 109.613 46.5381 109.707C46.311 109.801 46.1047 109.939 45.9309 110.113C45.7572 110.287 45.6193 110.493 45.5253 110.72C45.4312 110.947 45.3828 111.191 45.3828 111.437V141.079C45.3828 141.575 45.58 142.051 45.931 142.402C46.2819 142.754 46.758 142.951 47.2543 142.951H52.5569C53.0533 142.951 53.5293 142.754 53.8803 142.402C54.2312 142.051 54.4284 141.575 54.4284 141.079V118.613H61.2906V141.391C61.2906 141.887 61.4878 142.363 61.8388 142.714C62.1898 143.066 62.6658 143.263 63.1621 143.263H68.4647C68.9611 143.263 69.4371 143.066 69.7881 142.714C70.1391 142.363 70.3362 141.887 70.3363 141.391V118.613H90.299C90.7954 118.613 91.2714 118.416 91.6224 118.065C91.9733 117.714 92.1705 117.238 92.1705 116.741V111.437C92.1705 111.191 92.1221 110.947 92.0281 110.72C91.934 110.493 91.7962 110.287 91.6224 110.113C91.4486 109.939 91.2423 109.801 91.0152 109.707C90.7881 109.613 90.5448 109.565 90.299 109.565Z" fill="#040709"/>
<path d="M101.104 119.1L60.195 118.238C59.9172 118.233 59.6442 118.165 59.3958 118.04C59.1474 117.916 58.9299 117.738 58.7589 117.518C58.588 117.299 58.468 117.045 58.4076 116.774C58.3473 116.502 58.348 116.221 58.4099 115.95L68.3702 72.3293C68.4645 71.9159 68.6965 71.5468 69.0279 71.2824C69.3594 71.0181 69.7707 70.8741 70.1947 70.8741H80.9061C84.4275 70.8741 87.8415 72.0866 90.5744 74.3078C93.3074 76.5291 95.1928 79.6237 95.9136 83.0716L102.975 116.845C103.033 117.121 103.027 117.406 102.959 117.679C102.892 117.953 102.763 118.207 102.583 118.424C102.403 118.641 102.177 118.814 101.921 118.931C101.664 119.048 101.385 119.106 101.104 119.1Z" fill="#040709"/>
<path d="M75.7698 66.9849C84.9894 66.9849 92.4634 59.5085 92.4634 50.2858C92.4634 41.0632 84.9894 33.5868 75.7698 33.5868C66.5501 33.5868 59.0762 41.0632 59.0762 50.2858C59.0762 59.5085 66.5501 66.9849 75.7698 66.9849Z" fill="#90C4F2"/>
<path d="M68.1963 41.2945C66.2479 40.8347 64.1442 40.2162 62.7545 38.6816C61.5714 37.3753 61.0166 35.3592 62.0649 33.8105C63.0222 32.3963 64.9104 31.8774 66.4997 31.6122C68.3469 31.304 70.2453 31.259 71.9788 30.4725C72.8298 30.0875 73.5725 29.498 74.1409 28.7565C74.6685 28.0154 75.1265 27.227 75.509 26.4014C75.8713 25.5968 76.3555 24.8528 76.9445 24.1957C77.6142 23.5397 78.4779 23.1178 79.4069 22.9931C81.4982 22.6751 83.4836 23.6419 85.1291 24.8425C86.7225 26.028 88.1682 27.4002 89.4351 28.9299C92.3119 32.3594 94.2921 36.4499 95.198 40.8341C95.3197 41.4237 96.2218 41.1742 96.1003 40.5853C95.2341 36.4362 93.4348 32.539 90.8387 29.1892C89.553 27.5189 88.0762 26.005 86.4385 24.6784C84.7428 23.312 82.7851 22.1212 80.5549 22.0084C79.5236 21.9483 78.4941 22.1528 77.564 22.6025C76.7093 23.0531 75.9899 23.7233 75.4799 24.5441C74.4291 26.1383 73.9221 28.1984 72.2268 29.2768C70.5096 30.3691 68.3596 30.3798 66.4117 30.6838C64.6791 30.9541 62.7501 31.525 61.5772 32.9169C60.2798 34.4565 60.3286 36.5545 61.2977 38.2525C62.3744 40.1392 64.3749 41.1688 66.3839 41.7826C66.8998 41.9402 67.4227 42.0732 67.9476 42.1971C68.5332 42.3353 68.7831 41.4329 68.1963 41.2945Z" fill="#040709"/>
<path d="M77.5735 55.8614C76.5419 55.8324 75.2583 55.7965 74.2701 55.0743C73.9757 54.8503 73.7339 54.5647 73.5615 54.2373C73.389 53.91 73.2903 53.5489 73.2721 53.1793C73.2543 52.9168 73.2974 52.6536 73.398 52.4105C73.4987 52.1673 73.6542 51.9508 73.8524 51.7777C74.3685 51.341 75.1226 51.2383 75.9354 51.4778L75.0935 45.3227L75.7116 45.238L76.7014 52.4739L76.1852 52.2372C75.5865 51.9623 74.7655 51.8231 74.2551 52.2542C74.1297 52.367 74.0321 52.5071 73.9697 52.6638C73.9074 52.8204 73.882 52.9893 73.8955 53.1574C73.9106 53.4324 73.9847 53.701 74.1129 53.9448C74.241 54.1886 74.4202 54.4019 74.6381 54.5703C75.4071 55.1322 76.4303 55.205 77.5908 55.2373L77.5735 55.8614Z" fill="#040709"/>
<path d="M72.0369 45.8536H68.6771V46.4776H72.0369V45.8536Z" fill="#040709"/>
<path d="M82.6422 45.8536H79.2823V46.4776H82.6422V45.8536Z" fill="#040709"/>
<path d="M43.8387 102.773C43.4493 102.773 43.068 102.662 42.7403 102.451C42.4126 102.241 42.1524 101.94 41.9906 101.586L40.082 97.3951C39.9716 97.1527 39.91 96.891 39.9008 96.6248C39.8915 96.3586 39.9348 96.0932 40.028 95.8438C40.1213 95.5943 40.2628 95.3657 40.4444 95.171C40.6261 94.9762 40.8443 94.8192 41.0865 94.7088L76.0042 78.7961C76.4936 78.5738 77.0512 78.5547 77.5546 78.7431C78.0581 78.9315 78.4663 79.3119 78.6897 79.801L80.5984 83.9919C80.8206 84.4815 80.8397 85.0393 80.6514 85.5429C80.4631 86.0466 80.0828 86.455 79.594 86.6785L44.6762 102.591C44.4133 102.711 44.1277 102.773 43.8387 102.773Z" fill="#90C4F2"/>
</g>
<defs>
<clipPath id="clip0_33_167">
<rect width="212" height="203" fill="white" transform="translate(18 22)"/>
</clipPath>
</defs>
</svg>
