<svg width="248" height="248" viewBox="0 0 248 248" fill="none" xmlns="http://www.w3.org/2000/svg">
<rect width="248" height="248" fill="white"/>
<g clip-path="url(#clip0_33_208)">
<path d="M141.119 44.5173C143.1 48.749 138.901 49.9476 134.092 52.2158C129.282 54.4839 125.683 56.9626 123.702 52.7309C121.72 48.4992 120.113 40.1001 126.917 36.8914C133.955 33.5722 139.137 40.2856 141.119 44.5173Z" fill="#040709"/>
<path d="M131.306 52.8394C134.882 52.8394 137.78 49.9301 137.78 46.3415C137.78 42.7528 134.882 39.8436 131.306 39.8436C127.73 39.8436 124.831 42.7528 124.831 46.3415C124.831 49.9301 127.73 52.8394 131.306 52.8394Z" fill="#FFB8B8"/>
<path d="M163.383 75.1583C163.159 74.8646 162.935 74.5763 162.708 74.2958C162.415 73.9307 162.121 73.5771 161.825 73.235C158.469 69.3486 154.9 66.9014 150.969 66.6394H150.964L150.906 66.6342L143.074 74.2958L140.411 76.8991L140.469 77.042L141.906 80.6321H167.079C165.944 78.743 164.711 76.9158 163.383 75.1583Z" fill="#040709"/>
<path d="M124.265 48.9575L126.583 47.8645L126.26 44.509L127.81 47.2858L128.917 46.7634L128.729 44.806L129.633 46.4259L137.865 42.5441C137.091 40.893 135.696 39.6177 133.986 38.9988C132.276 38.3799 130.391 38.4681 128.746 39.244L127.553 39.8066C125.908 40.5824 124.637 41.9824 124.021 43.6986C123.404 45.4147 123.492 47.3064 124.265 48.9575Z" fill="#040709"/>
<path d="M177.908 166.905H42.715C41.5618 166.904 40.4562 166.443 39.6408 165.625C38.8253 164.807 38.3667 163.697 38.3654 162.54V81.0141C38.3663 80.1662 38.7023 79.3534 39.2997 78.7538C39.8971 78.1542 40.7071 77.817 41.5519 77.816H179.016C179.875 77.817 180.699 78.1601 181.307 78.77C181.915 79.3799 182.257 80.2069 182.258 81.0694V162.54C182.256 163.697 181.798 164.807 180.982 165.625C180.167 166.443 179.061 166.904 177.908 166.905Z" fill="#D8E6F0"/>
<path d="M46.933 162.54H173.69C174.809 162.54 175.882 162.094 176.673 161.3C177.464 160.506 177.908 159.429 177.908 158.307V89.1113C177.908 87.9886 177.464 86.9119 176.673 86.1181C175.882 85.3243 174.809 84.8783 173.69 84.8783H46.933C45.8143 84.8783 44.7415 85.3243 43.9505 86.1181C43.1595 86.9119 42.7151 87.9886 42.7151 89.1113V158.307C42.7151 159.429 43.1595 160.506 43.9505 161.3C44.7415 162.094 45.8143 162.54 46.933 162.54Z" fill="white"/>
<path d="M182.197 80.7644H38.3043V78.542C38.306 77.3808 38.7666 76.2677 39.585 75.4469C40.4034 74.6261 41.5128 74.1645 42.6698 74.1636H177.832C178.989 74.1645 180.098 74.626 180.916 75.4469C181.735 76.2677 182.195 77.3808 182.197 78.542V80.7644Z" fill="#90C4F2"/>
<path d="M46.2379 78.6038C46.8616 78.6038 47.3671 78.0964 47.3671 77.4706C47.3671 76.8447 46.8616 76.3373 46.2379 76.3373C45.6143 76.3373 45.1088 76.8447 45.1088 77.4706C45.1088 78.0964 45.6143 78.6038 46.2379 78.6038Z" fill="white"/>
<path d="M50.5241 78.6038C51.1477 78.6038 51.6533 78.0964 51.6533 77.4706C51.6533 76.8447 51.1477 76.3373 50.5241 76.3373C49.9004 76.3373 49.3949 76.8447 49.3949 77.4706C49.3949 78.0964 49.9004 78.6038 50.5241 78.6038Z" fill="white"/>
<path d="M54.8102 78.6038C55.4338 78.6038 55.9394 78.0964 55.9394 77.4706C55.9394 76.8447 55.4338 76.3373 54.8102 76.3373C54.1866 76.3373 53.681 76.8447 53.681 77.4706C53.681 78.0964 54.1866 78.6038 54.8102 78.6038Z" fill="white"/>
<path d="M114.267 147.533H102.931C102.267 147.533 101.631 147.268 101.161 146.796C100.692 146.325 100.428 145.686 100.427 145.02V133.644C100.428 132.978 100.692 132.339 101.161 131.868C101.631 131.396 102.267 131.131 102.931 131.131H114.267C114.931 131.131 115.567 131.396 116.037 131.868C116.506 132.339 116.77 132.978 116.771 133.644V145.02C116.77 145.686 116.506 146.325 116.037 146.796C115.567 147.268 114.931 147.533 114.267 147.533ZM102.931 131.66C102.407 131.66 101.904 131.87 101.534 132.242C101.163 132.614 100.955 133.118 100.954 133.644V145.02C100.955 145.546 101.163 146.051 101.534 146.423C101.904 146.794 102.407 147.004 102.931 147.004H114.267C114.791 147.004 115.293 146.794 115.664 146.423C116.035 146.051 116.243 145.546 116.244 145.02V133.644C116.243 133.118 116.035 132.614 115.664 132.242C115.293 131.87 114.791 131.66 114.267 131.66H102.931Z" fill="#D8E6F0"/>
<path d="M112.026 144.359H105.172C104.962 144.358 104.761 144.275 104.613 144.126C104.465 143.977 104.381 143.775 104.381 143.565V135.099C104.381 134.889 104.465 134.687 104.613 134.538C104.761 134.389 104.962 134.306 105.172 134.305H110.138C110.318 134.306 110.493 134.367 110.634 134.48L112.521 136.003C112.614 136.077 112.688 136.171 112.739 136.278C112.791 136.385 112.817 136.503 112.817 136.621V143.565C112.816 143.775 112.733 143.977 112.585 144.126C112.437 144.275 112.236 144.358 112.026 144.359ZM105.172 134.835C105.102 134.835 105.035 134.863 104.986 134.912C104.936 134.962 104.908 135.029 104.908 135.099V143.565C104.908 143.635 104.936 143.702 104.986 143.752C105.035 143.802 105.102 143.829 105.172 143.83H112.026C112.096 143.829 112.163 143.802 112.212 143.752C112.262 143.702 112.289 143.635 112.289 143.565V136.621C112.29 136.582 112.281 136.543 112.264 136.507C112.247 136.471 112.222 136.44 112.191 136.415L110.303 134.893C110.256 134.855 110.198 134.835 110.138 134.835H105.172Z" fill="#D8E6F0"/>
<path d="M110.708 138.009H106.49C106.42 138.009 106.353 137.981 106.304 137.932C106.254 137.882 106.226 137.815 106.226 137.745C106.226 137.675 106.254 137.607 106.304 137.558C106.353 137.508 106.42 137.48 106.49 137.48H110.708C110.778 137.48 110.845 137.508 110.894 137.558C110.944 137.607 110.971 137.675 110.971 137.745C110.971 137.815 110.944 137.882 110.894 137.932C110.845 137.981 110.778 138.009 110.708 138.009Z" fill="#D8E6F0"/>
<path d="M110.708 139.597H106.49C106.42 139.597 106.353 139.569 106.304 139.519C106.254 139.47 106.226 139.402 106.226 139.332C106.226 139.262 106.254 139.195 106.304 139.145C106.353 139.095 106.42 139.068 106.49 139.068H110.708C110.778 139.068 110.845 139.095 110.894 139.145C110.944 139.195 110.971 139.262 110.971 139.332C110.971 139.402 110.944 139.47 110.894 139.519C110.845 139.569 110.778 139.597 110.708 139.597Z" fill="#D8E6F0"/>
<path d="M110.708 141.184H106.49C106.42 141.184 106.353 141.156 106.304 141.106C106.254 141.057 106.226 140.99 106.226 140.919C106.226 140.849 106.254 140.782 106.304 140.732C106.353 140.683 106.42 140.655 106.49 140.655H110.708C110.778 140.655 110.845 140.683 110.894 140.732C110.944 140.782 110.971 140.849 110.971 140.919C110.971 140.99 110.944 141.057 110.894 141.106C110.845 141.156 110.778 141.184 110.708 141.184Z" fill="#D8E6F0"/>
<path d="M141.156 147.533H129.82C129.156 147.533 128.52 147.268 128.05 146.796C127.581 146.325 127.316 145.686 127.316 145.02V133.644C127.316 132.978 127.581 132.339 128.05 131.868C128.52 131.396 129.156 131.131 129.82 131.131H141.156C141.82 131.131 142.456 131.396 142.926 131.868C143.395 132.339 143.659 132.978 143.66 133.644V145.02C143.659 145.686 143.395 146.325 142.926 146.796C142.456 147.268 141.82 147.533 141.156 147.533ZM129.82 131.66C129.296 131.66 128.793 131.87 128.423 132.242C128.052 132.614 127.843 133.118 127.843 133.644V145.02C127.843 145.546 128.052 146.051 128.423 146.423C128.793 146.794 129.296 147.004 129.82 147.004H141.156C141.68 147.004 142.182 146.794 142.553 146.423C142.924 146.051 143.132 145.546 143.133 145.02V133.644C143.132 133.118 142.924 132.614 142.553 132.242C142.182 131.87 141.68 131.66 141.156 131.66H129.82Z" fill="#D8E6F0"/>
<path d="M139.178 142.242H131.797C131.588 142.242 131.386 142.158 131.238 142.01C131.09 141.861 131.007 141.659 131.006 141.449V137.216C131.007 137.005 131.09 136.803 131.238 136.655C131.386 136.506 131.588 136.422 131.797 136.422H139.178C139.388 136.422 139.589 136.506 139.737 136.655C139.886 136.803 139.969 137.005 139.969 137.216V141.449C139.969 141.659 139.886 141.861 139.737 142.01C139.589 142.158 139.388 142.242 139.178 142.242ZM131.797 136.951C131.727 136.951 131.66 136.979 131.611 137.029C131.561 137.078 131.534 137.145 131.534 137.216V141.449C131.534 141.519 131.561 141.586 131.611 141.636C131.66 141.685 131.727 141.713 131.797 141.713H139.178C139.248 141.713 139.315 141.685 139.365 141.636C139.414 141.586 139.442 141.519 139.442 141.449V137.216C139.442 137.145 139.414 137.078 139.365 137.029C139.315 136.979 139.248 136.951 139.178 136.951H131.797Z" fill="#D8E6F0"/>
<path d="M135.488 140.03C135.34 140.03 135.195 139.989 135.069 139.91L131.13 137.44C131.071 137.403 131.029 137.343 131.013 137.275C130.998 137.207 131.01 137.135 131.047 137.076C131.084 137.016 131.143 136.974 131.211 136.958C131.279 136.942 131.35 136.954 131.41 136.991L135.348 139.461C135.39 139.488 135.439 139.501 135.488 139.501C135.537 139.501 135.586 139.488 135.628 139.461L139.566 136.991C139.625 136.954 139.697 136.942 139.765 136.958C139.833 136.974 139.892 137.016 139.929 137.076C139.966 137.135 139.978 137.207 139.962 137.275C139.947 137.343 139.905 137.403 139.845 137.44L135.907 139.91C135.781 139.989 135.636 140.03 135.488 140.03Z" fill="#D8E6F0"/>
<path d="M87.3777 147.533H76.0422C75.3782 147.533 74.7417 147.268 74.2722 146.796C73.8027 146.325 73.5386 145.686 73.5378 145.02V133.644C73.5386 132.978 73.8027 132.339 74.2722 131.868C74.7417 131.396 75.3782 131.131 76.0422 131.131H87.3777C88.0417 131.131 88.6782 131.396 89.1477 131.868C89.6172 132.339 89.8813 132.978 89.8821 133.644V145.02C89.8813 145.686 89.6172 146.325 89.1477 146.796C88.6782 147.268 88.0417 147.533 87.3777 147.533ZM76.0422 131.66C75.518 131.66 75.0155 131.87 74.6448 132.242C74.2742 132.614 74.0657 133.118 74.0651 133.644V145.02C74.0657 145.546 74.2742 146.051 74.6448 146.423C75.0155 146.794 75.518 147.004 76.0422 147.004H87.3777C87.9019 147.004 88.4045 146.794 88.7751 146.423C89.1458 146.051 89.3543 145.546 89.3549 145.02V133.644C89.3543 133.118 89.1458 132.614 88.7751 132.242C88.4045 131.87 87.9019 131.66 87.3777 131.66H76.0422Z" fill="#D8E6F0"/>
<path d="M85.4006 142.242H78.0194C77.8097 142.242 77.6087 142.158 77.4604 142.01C77.3121 141.861 77.2287 141.659 77.2285 141.449V137.216C77.2287 137.005 77.3121 136.803 77.4604 136.655C77.6087 136.506 77.8097 136.422 78.0194 136.422H85.4006C85.6103 136.422 85.8113 136.506 85.9596 136.655C86.1079 136.803 86.1913 137.005 86.1915 137.216V141.449C86.1913 141.659 86.1079 141.861 85.9596 142.01C85.8113 142.158 85.6103 142.242 85.4006 142.242ZM78.0194 136.951C77.9495 136.951 77.8825 136.979 77.833 137.029C77.7836 137.078 77.7558 137.145 77.7557 137.216V141.449C77.7558 141.519 77.7836 141.586 77.833 141.636C77.8825 141.685 77.9495 141.713 78.0194 141.713H85.4006C85.4705 141.713 85.5375 141.685 85.587 141.636C85.6364 141.586 85.6642 141.519 85.6643 141.449V137.216C85.6642 137.145 85.6364 137.078 85.587 137.029C85.5375 136.979 85.4705 136.951 85.4006 136.951H78.0194Z" fill="#D8E6F0"/>
<path d="M84.2307 142.242H78.9257C78.8332 142.242 78.7422 142.218 78.6621 142.171C78.5819 142.125 78.5153 142.058 78.469 141.978C78.4228 141.897 78.3984 141.806 78.3984 141.713C78.3985 141.62 78.4228 141.529 78.4692 141.449L80.0671 138.671C80.1134 138.59 80.1799 138.523 80.2601 138.477C80.3402 138.431 80.4312 138.406 80.5237 138.406C80.6163 138.406 80.7072 138.431 80.7873 138.477C80.8675 138.523 80.9341 138.59 80.9803 138.671L82.0124 140.465L82.6103 139.425C82.6566 139.345 82.7231 139.278 82.8033 139.232C82.8835 139.185 82.9744 139.161 83.0669 139.161C83.1595 139.161 83.2504 139.185 83.3306 139.232C83.4107 139.278 83.4773 139.345 83.5236 139.425L84.6874 141.449C84.7337 141.529 84.7581 141.62 84.7581 141.713C84.7581 141.806 84.7337 141.897 84.6874 141.978C84.6411 142.058 84.5745 142.125 84.4944 142.171C84.4142 142.218 84.3233 142.242 84.2307 142.242ZM84.2307 141.713L83.0669 139.69L82.2408 141.126C82.2176 141.166 82.1843 141.2 82.1443 141.223C82.1042 141.246 82.0587 141.258 82.0124 141.258C81.9661 141.258 81.9207 141.246 81.8806 141.223C81.8405 141.2 81.8072 141.166 81.7841 141.126L80.5238 138.935L78.9257 141.713H84.2307Z" fill="#D8E6F0"/>
<path d="M84.6098 138.538C84.9009 138.538 85.137 138.301 85.137 138.009C85.137 137.717 84.9009 137.48 84.6098 137.48C84.3186 137.48 84.0825 137.717 84.0825 138.009C84.0825 138.301 84.3186 138.538 84.6098 138.538Z" fill="#D8E6F0"/>
<path d="M210.675 207.475L207.443 207.475L205.906 194.964L210.676 194.965L210.675 207.475Z" fill="#FFB8B8"/>
<path d="M211.499 210.619L201.078 210.619V210.487C201.078 209.952 201.183 209.423 201.387 208.929C201.591 208.435 201.89 207.986 202.266 207.608C202.643 207.23 203.09 206.93 203.582 206.726C204.075 206.521 204.602 206.416 205.135 206.416H205.135L211.5 206.416L211.499 210.619Z" fill="#040709"/>
<path d="M223.856 207.475L220.624 207.475L219.087 194.964L223.857 194.965L223.856 207.475Z" fill="#FFB8B8"/>
<path d="M224.68 210.619L214.259 210.619V210.487C214.259 209.952 214.364 209.423 214.568 208.929C214.772 208.435 215.071 207.986 215.447 207.608C215.824 207.23 216.271 206.93 216.763 206.726C217.255 206.521 217.783 206.416 218.316 206.416H218.316L224.681 206.416L224.68 210.619Z" fill="#040709"/>
<path d="M222.887 202.052L219.894 201.138C219.671 201.07 219.473 200.938 219.324 200.757C219.176 200.577 219.084 200.357 219.059 200.124L216.269 173.582C216.267 173.549 216.252 173.519 216.229 173.497C216.206 173.476 216.175 173.463 216.143 173.463C216.111 173.46 216.079 173.47 216.053 173.49C216.028 173.51 216.012 173.539 216.008 173.572L211.334 199.287C211.305 199.443 211.246 199.591 211.16 199.724C211.073 199.857 210.961 199.971 210.83 200.06C210.699 200.148 210.552 200.21 210.397 200.241C210.242 200.272 210.082 200.271 209.928 200.239L206.102 199.448C205.822 199.389 205.572 199.231 205.398 199.002C205.225 198.773 205.139 198.489 205.158 198.202L208.001 156.054L227.281 153.966L224.417 200.985C224.398 201.288 224.265 201.571 224.046 201.779C223.826 201.987 223.536 202.103 223.234 202.104C223.117 202.104 223 202.086 222.887 202.052Z" fill="#040709"/>
<path d="M222.869 119.349C226.445 119.349 229.344 116.44 229.344 112.852C229.344 109.263 226.445 106.354 222.869 106.354C219.293 106.354 216.394 109.263 216.394 112.852C216.394 116.44 219.293 119.349 222.869 119.349Z" fill="#FFB8B8"/>
<path d="M207.971 156.301L212.152 129.884C212.374 128.48 212.892 127.139 213.671 125.951C214.45 124.763 215.472 123.755 216.669 122.994C217.866 122.233 219.211 121.737 220.614 121.538C222.017 121.34 223.447 121.443 224.807 121.842C227.185 122.532 229.222 124.088 230.518 126.204C231.815 128.32 232.279 130.846 231.819 133.287L227.446 156.879L207.971 156.301Z" fill="#90C4F2"/>
<path d="M224.656 161.028C224.98 160.814 225.252 160.531 225.455 160.199C225.658 159.868 225.786 159.496 225.829 159.109C225.873 158.723 225.832 158.331 225.709 157.963C225.586 157.594 225.384 157.257 225.117 156.975L229.439 148.575L224.572 149.096L221.213 156.993C220.771 157.474 220.52 158.102 220.509 158.757C220.497 159.411 220.725 160.048 221.149 160.545C221.573 161.043 222.165 161.366 222.811 161.455C223.458 161.544 224.114 161.392 224.656 161.028Z" fill="#FFB8B8"/>
<path d="M225.582 155.493C225.343 155.459 225.12 155.353 224.942 155.189L223.288 153.655C223.11 153.489 222.986 153.271 222.935 153.032C222.883 152.793 222.906 152.544 223.001 152.318L226.306 144.456L225.837 128.921C225.904 128.421 226.069 127.94 226.322 127.505C226.575 127.069 226.911 126.688 227.31 126.383C227.71 126.078 228.166 125.855 228.651 125.727C229.137 125.598 229.643 125.567 230.14 125.635C230.638 125.704 231.117 125.869 231.551 126.123C231.984 126.378 232.364 126.715 232.668 127.116C232.971 127.518 233.193 127.975 233.32 128.463C233.448 128.95 233.478 129.458 233.41 129.957L234.211 139.723C234.455 142.687 233.618 145.639 231.855 148.029L226.701 155.022C226.602 155.157 226.476 155.269 226.331 155.351C226.185 155.433 226.025 155.484 225.859 155.499C225.767 155.508 225.674 155.506 225.582 155.493Z" fill="#90C4F2"/>
<path d="M185.583 109.311C185.654 109.694 185.807 110.056 186.032 110.372C186.257 110.689 186.549 110.952 186.886 111.143C187.224 111.335 187.599 111.449 187.985 111.479C188.372 111.509 188.76 111.454 189.123 111.317L195.145 118.587L196.565 113.885L190.628 107.702C190.358 107.106 189.88 106.63 189.284 106.364C188.688 106.097 188.015 106.06 187.394 106.258C186.772 106.456 186.244 106.877 185.91 107.439C185.577 108.002 185.46 108.668 185.583 109.311Z" fill="#FFB8B8"/>
<path d="M190.301 112.325C190.425 112.117 190.61 111.952 190.83 111.852L192.882 110.922C193.104 110.822 193.352 110.792 193.591 110.838C193.831 110.884 194.05 111.002 194.221 111.177L200.146 117.297L214.584 122.921C215.016 123.178 215.393 123.517 215.694 123.921C215.995 124.324 216.214 124.783 216.338 125.272C216.462 125.76 216.49 126.268 216.418 126.767C216.346 127.266 216.177 127.746 215.921 128.179C215.664 128.612 215.325 128.991 214.923 129.292C214.521 129.594 214.063 129.813 213.576 129.937C213.089 130.061 212.583 130.088 212.086 130.015C211.589 129.943 211.111 129.773 210.68 129.515L201.407 126.448C198.592 125.518 196.21 123.593 194.703 121.032L190.296 113.542C190.212 113.398 190.158 113.238 190.139 113.072C190.121 112.906 190.137 112.737 190.187 112.578C190.215 112.489 190.253 112.404 190.301 112.325Z" fill="#90C4F2"/>
<path opacity="0.1" d="M228.121 135.383L227.857 143.849L223.001 152.318L227.056 142.88L228.121 135.383Z" fill="#040709"/>
<path d="M222.127 114.073C221.72 114.126 221.308 114.029 220.968 113.8C220.627 113.571 220.38 113.226 220.274 112.829C220.171 112.371 219.946 111.95 219.624 111.611C219.301 111.272 218.892 111.028 218.441 110.904C217.254 110.632 215.802 111.193 214.932 110.29C214.745 110.084 214.611 109.836 214.538 109.567C214.466 109.299 214.459 109.017 214.516 108.744C214.677 107.867 215.302 107.204 215.983 106.673C217.416 105.563 219.149 104.913 220.956 104.808C221.892 104.781 222.828 104.828 223.756 104.948C224.728 105.009 225.689 105.186 226.62 105.473C227.68 105.875 228.623 106.538 229.36 107.402C230.097 108.266 230.606 109.302 230.838 110.415C231.051 111.532 231.018 112.682 230.743 113.784C230.467 114.887 229.955 115.916 229.242 116.799C228.388 117.866 227.288 118.707 226.036 119.249C225.738 119.39 225.396 119.407 225.085 119.297C224.306 118.986 224.433 118.017 224.789 117.37C225.169 116.679 225.754 116.009 225.448 115.167C225.295 114.777 225.001 114.459 224.624 114.276C223.849 113.88 222.982 113.974 222.149 114.07L222.127 114.073Z" fill="#040709"/>
<path d="M183.419 117.742H103.28C102.127 117.741 101.021 117.281 100.206 116.462C99.3902 115.644 98.9315 114.534 98.9302 113.377V96.1804C98.9315 95.0231 99.3902 93.9135 100.206 93.0952C101.021 92.2768 102.127 91.8165 103.28 91.8152H183.419C184.573 91.8165 185.678 92.2769 186.494 93.0952C187.309 93.9136 187.768 95.0231 187.769 96.1804V113.377C187.768 114.534 187.309 115.644 186.494 116.462C185.678 117.281 184.573 117.741 183.419 117.742Z" fill="white"/>
<path d="M183.419 117.874H103.28C102.092 117.873 100.953 117.399 100.112 116.556C99.2723 115.713 98.7997 114.569 98.7983 113.377V96.1805C98.7997 94.9881 99.2723 93.8449 100.112 93.0017C100.953 92.1585 102.092 91.6843 103.28 91.6829H183.419C184.608 91.6843 185.747 92.1585 186.587 93.0017C187.427 93.8449 187.9 94.9881 187.901 96.1805V113.377C187.9 114.569 187.427 115.713 186.587 116.556C185.747 117.399 184.608 117.873 183.419 117.874ZM103.28 92.212C102.231 92.2132 101.226 92.6317 100.485 93.3757C99.7438 94.1196 99.3268 95.1283 99.3256 96.1805V113.377C99.3268 114.429 99.7438 115.438 100.485 116.182C101.226 116.926 102.231 117.344 103.28 117.345H183.419C184.468 117.344 185.473 116.926 186.214 116.182C186.955 115.438 187.372 114.429 187.374 113.377V96.1805C187.372 95.1283 186.955 94.1196 186.214 93.3757C185.473 92.6317 184.468 92.2132 183.419 92.212H103.28Z" fill="#040709"/>
<path d="M173.666 113.509H113.034C111.88 113.508 110.775 113.048 109.959 112.229C109.144 111.411 108.685 110.301 108.684 109.144V100.149C108.685 98.9915 109.144 97.882 109.959 97.0636C110.775 96.2452 111.88 95.7849 113.034 95.7836H173.666C174.819 95.7849 175.924 96.2452 176.74 97.0636C177.555 97.882 178.014 98.9915 178.015 100.149V109.144C178.014 110.301 177.555 111.411 176.74 112.229C175.924 113.048 174.819 113.508 173.666 113.509Z" fill="#D8E6F0"/>
<path d="M126.081 108.661C128.954 108.661 131.283 106.324 131.283 103.441C131.283 100.557 128.954 98.2202 126.081 98.2202C123.209 98.2202 120.88 100.557 120.88 103.441C120.88 106.324 123.209 108.661 126.081 108.661Z" fill="#FF6584"/>
<path d="M169.898 112.982L162.555 106.802L155.34 100.729C155.149 100.569 154.909 100.481 154.66 100.482C154.411 100.482 154.171 100.571 153.981 100.732L146.789 106.833L145.032 108.323L142.383 106.094L134.333 99.318C134.143 99.1577 133.902 99.0701 133.654 99.0706C133.405 99.071 133.165 99.1596 132.975 99.3206L124.951 106.127L116.801 113.041C116.759 113.076 116.73 113.123 116.716 113.176C116.702 113.228 116.705 113.284 116.723 113.334C116.742 113.385 116.776 113.429 116.82 113.46C116.865 113.491 116.917 113.508 116.971 113.508L133.681 113.476L138.97 113.465L138.919 113.509L154.685 113.479L169.729 113.45C169.783 113.45 169.836 113.433 169.88 113.402C169.924 113.37 169.958 113.326 169.976 113.275C169.995 113.224 169.997 113.169 169.983 113.116C169.969 113.064 169.939 113.017 169.898 112.982Z" fill="#040709"/>
<path d="M238.736 211H188.122C188.052 211 187.985 210.972 187.935 210.923C187.886 210.873 187.858 210.806 187.858 210.735C187.858 210.665 187.886 210.598 187.935 210.548C187.985 210.499 188.052 210.471 188.122 210.471H238.736C238.806 210.471 238.873 210.499 238.923 210.548C238.972 210.598 239 210.665 239 210.735C239 210.806 238.972 210.873 238.923 210.923C238.873 210.972 238.806 211 238.736 211Z" fill="#D8E6F0"/>
<path d="M167.239 70.8989C167.029 70.5555 166.751 70.2588 166.422 70.0268C166.094 69.7948 165.721 69.6325 165.328 69.5496C165.184 69.5192 165.038 69.5006 164.891 69.494L144.806 51.4721C144.411 51.0652 143.885 50.8128 143.321 50.7605C143.21 50.7476 143.098 50.7441 142.987 50.7499C142.523 50.771 142.076 50.9272 141.7 51.1993C141.323 51.4715 141.034 51.8478 140.867 52.2823C140.701 52.7167 140.664 53.1905 140.761 53.6457C140.859 54.1009 141.086 54.5177 141.416 54.8453L149.105 61.5731L161.732 72.6185C161.743 72.8265 161.774 73.033 161.825 73.2349C161.976 73.8199 162.301 74.3448 162.756 74.7403C163.211 75.1358 163.775 75.383 164.374 75.4493C164.92 75.5133 165.473 75.4216 165.969 75.1847C166.362 75 166.711 74.732 166.992 74.399C167.021 74.3646 167.047 74.3329 167.073 74.2958C167.442 73.8137 167.655 73.2303 167.685 72.6234C167.715 72.0164 167.559 71.4148 167.239 70.8989Z" fill="#FFB8B8"/>
<path d="M132.885 88.2673L132.698 80.6321L132.539 74.2958L132.431 69.8618L132.218 61.2186C132.176 60.7558 132 60.3154 131.713 59.9511C131.425 59.5868 131.038 59.3144 130.599 59.1671C130.16 59.0198 129.687 59.004 129.239 59.1217C128.791 59.2393 128.387 59.4853 128.076 59.8296C128.003 59.9083 127.937 59.9933 127.879 60.0836C127.554 60.5501 127.408 61.1184 127.467 61.6842L127.937 74.2958L128.171 80.6321L128.472 88.7144C128.385 88.8332 128.307 88.9578 128.237 89.0875C128.05 89.4442 127.936 89.8355 127.904 90.2375C127.872 90.6396 127.922 91.044 128.05 91.4262C128.184 91.827 128.401 92.1948 128.687 92.5053C128.973 92.8159 129.321 93.0621 129.708 93.2279C130.096 93.3936 130.514 93.475 130.935 93.4668C131.356 93.4586 131.771 93.3609 132.152 93.1802C132.594 92.9703 132.978 92.6543 133.27 92.2601C133.562 91.8659 133.752 91.4057 133.825 90.9201C133.897 90.4344 133.849 89.9384 133.685 89.4757C133.521 89.013 133.247 88.598 132.885 88.2673Z" fill="#FFB8B8"/>
<path d="M150.969 66.6394L149.105 61.5731L146.089 53.3664C145.872 52.7693 145.523 52.229 145.069 51.7857C144.615 51.3423 144.067 51.0073 143.466 50.8054C143.419 50.7896 143.369 50.7737 143.321 50.7604C142.739 50.5832 142.126 50.5344 141.524 50.6176C140.921 50.7007 140.344 50.9137 139.831 51.2419L129.674 57.7078C128.744 58.2986 128.079 59.2292 127.82 60.3029C127.56 61.3766 127.727 62.5094 128.285 63.462C129.555 65.6663 130.939 67.8025 132.431 69.8618C133.615 71.4782 135.819 71.6502 136.201 74.2958H143.69L151.272 67.4648L150.969 66.6394Z" fill="#D8E6F0"/>
<path d="M34.6687 128.558C38.0423 128.558 40.7772 125.813 40.7772 122.427C40.7772 119.042 38.0423 116.297 34.6687 116.297C31.2951 116.297 28.5603 119.042 28.5603 122.427C28.5603 125.813 31.2951 128.558 34.6687 128.558Z" fill="#A0616A"/>
<path d="M49.665 118.208C49.7252 118.256 49.7836 118.307 49.8401 118.361C50.1207 118.626 50.3423 118.948 50.4903 119.305C50.6384 119.662 50.7095 120.047 50.6991 120.433C50.6888 120.82 50.5971 121.2 50.4301 121.549C50.2631 121.898 50.0245 122.207 49.7301 122.457C49.6615 122.515 49.5899 122.569 49.5156 122.619L49.929 136.626C49.9407 137.085 49.8049 137.535 49.5416 137.91C49.2783 138.285 48.9015 138.565 48.4672 138.708L48.442 138.713L37.1095 139.924C36.8014 139.957 36.4899 139.928 36.1929 139.84C35.8959 139.751 35.6193 139.604 35.3792 139.408C35.139 139.211 34.9401 138.969 34.7937 138.695C34.6474 138.421 34.5566 138.121 34.5266 137.811C34.4967 137.502 34.5281 137.189 34.619 136.892C34.71 136.595 34.8588 136.319 35.0567 136.079C35.2546 135.84 35.4978 135.643 35.7723 135.498C36.0467 135.354 36.3469 135.265 36.6555 135.238L44.7338 134.524L46.1309 122.394C46.0395 122.313 45.9539 122.225 45.8748 122.132C45.4368 121.612 45.207 120.946 45.2302 120.266C45.2534 119.585 45.5278 118.937 46.0002 118.448C46.4725 117.959 47.1092 117.664 47.7864 117.619C48.4637 117.575 49.1332 117.784 49.665 118.208Z" fill="#A0616A"/>
<path d="M44.7292 207.746H47.7784L49.2288 195.943H44.7286L44.7292 207.746Z" fill="#A0616A"/>
<path d="M43.9515 206.747L49.9562 206.747C50.4587 206.747 50.9566 206.846 51.4209 207.039C51.8851 207.232 52.307 207.515 52.6623 207.872C53.0177 208.228 53.2995 208.652 53.4919 209.118C53.6842 209.584 53.7831 210.083 53.7831 210.587V210.712L43.9517 210.712L43.9515 206.747Z" fill="#040709"/>
<path d="M14.4233 203.515L17.0432 205.081L24.3066 195.684L20.4399 193.374L14.4233 203.515Z" fill="#A0616A"/>
<path d="M14.2643 202.258L19.4238 205.341C19.8555 205.599 20.2327 205.94 20.5332 206.344C20.8337 206.748 21.052 207.208 21.1755 207.696C21.299 208.185 21.3254 208.694 21.2531 209.193C21.1808 209.692 21.0112 210.172 20.7541 210.605L20.6905 210.712L12.243 205.665L14.2643 202.258Z" fill="#040709"/>
<path d="M48.4979 203.577H45.0836C44.8072 203.578 44.5403 203.475 44.3348 203.29C44.1292 203.104 43.9995 202.849 43.9708 202.573L40.5287 170.101C40.52 170.02 40.4847 169.943 40.4284 169.883C40.372 169.824 40.2977 169.784 40.2168 169.771C40.1359 169.758 40.053 169.772 39.9809 169.811C39.9087 169.85 39.8514 169.912 39.8177 169.987L33.608 183.786L22.6143 201.777C22.472 202.008 22.2517 202.179 21.9937 202.26C21.7357 202.341 21.4573 202.326 21.2095 202.218L16.8176 200.278C16.6723 200.214 16.5424 200.12 16.4363 200.001C16.3302 199.883 16.2504 199.743 16.2021 199.592C16.1539 199.44 16.1384 199.28 16.1565 199.121C16.1747 198.963 16.2262 198.811 16.3075 198.674L26.4138 181.691L29.5133 167.382C28.5385 161.177 32.7176 151.952 32.76 151.859L32.7807 151.814L44.2922 147.298L44.3499 147.369C48.8897 162.321 51.6561 178.411 49.6135 202.548C49.5883 202.828 49.4601 203.089 49.2538 203.279C49.0475 203.469 48.7781 203.576 48.4979 203.577Z" fill="#040709"/>
<path d="M32.3169 153.326L32.2633 153.213C32.2377 153.159 29.678 147.741 27.7049 141.95C27.3256 140.83 27.1823 139.644 27.2839 138.465C27.3855 137.287 27.7298 136.143 28.295 135.105C28.8676 134.056 29.6509 133.139 30.5953 132.41C31.5398 131.681 32.6248 131.157 33.7815 130.871C35.7898 130.388 37.9041 130.645 39.7393 131.595C41.5745 132.545 43.0085 134.126 43.7799 136.048C45.3451 139.976 44.8463 144.169 44.3769 147.466L44.3675 147.532L44.3076 147.561L32.3169 153.326Z" fill="#040709"/>
<path d="M42.075 118.965H32.3755V114.721C34.5044 113.873 36.5877 113.151 37.847 114.721C38.9683 114.721 40.0437 115.168 40.8366 115.964C41.6295 116.76 42.075 117.839 42.075 118.965Z" fill="#040709"/>
<path d="M31.8385 113.973C26.04 113.973 24.417 121.267 24.417 125.382C24.417 127.677 25.4512 128.498 27.0762 128.775L27.6501 125.704L28.9943 128.908C29.4508 128.91 29.9304 128.901 30.4276 128.892L30.8833 127.95L31.8996 128.875C35.9701 128.881 39.26 129.476 39.26 125.382C39.26 121.267 37.8366 113.973 31.8385 113.973Z" fill="#040709"/>
<path d="M58.8781 211H8.26362C8.1937 211 8.12665 210.972 8.07721 210.923C8.02777 210.873 8 210.806 8 210.735C8 210.665 8.02777 210.598 8.07721 210.548C8.12665 210.499 8.1937 210.471 8.26362 210.471H58.8781C58.948 210.471 59.015 210.499 59.0645 210.548C59.1139 210.598 59.1417 210.665 59.1417 210.735C59.1417 210.806 59.1139 210.873 59.0645 210.923C59.015 210.972 58.948 211 58.8781 211Z" fill="#D8E6F0"/>
<path d="M59.8298 123.959H48.4942C47.8303 123.959 47.1937 123.694 46.7242 123.222C46.2547 122.751 45.9906 122.112 45.9899 121.446V110.07C45.9906 109.404 46.2547 108.765 46.7242 108.294C47.1937 107.822 47.8303 107.557 48.4942 107.557H59.8298C60.4937 107.557 61.1303 107.822 61.5998 108.294C62.0693 108.765 62.3334 109.404 62.3341 110.07V121.446C62.3334 122.112 62.0693 122.751 61.5998 123.222C61.1303 123.694 60.4937 123.959 59.8298 123.959Z" fill="white"/>
<path d="M59.8298 123.959H48.4942C47.8303 123.959 47.1937 123.694 46.7242 123.222C46.2547 122.751 45.9906 122.112 45.9899 121.446V110.07C45.9906 109.404 46.2547 108.765 46.7242 108.294C47.1937 107.822 47.8303 107.557 48.4942 107.557H59.8298C60.4937 107.557 61.1303 107.822 61.5998 108.294C62.0693 108.765 62.3334 109.404 62.3341 110.07V121.446C62.3334 122.112 62.0693 122.751 61.5998 123.222C61.1303 123.694 60.4937 123.959 59.8298 123.959ZM48.4942 108.086C47.97 108.086 47.4675 108.296 47.0968 108.668C46.7262 109.039 46.5177 109.544 46.5171 110.07V121.446C46.5177 121.972 46.7262 122.476 47.0968 122.848C47.4675 123.22 47.97 123.43 48.4942 123.43H59.8298C60.3539 123.43 60.8565 123.22 61.2272 122.848C61.5978 122.476 61.8063 121.972 61.8069 121.446V110.07C61.8063 109.544 61.5978 109.039 61.2272 108.668C60.8565 108.296 60.3539 108.086 59.8298 108.086H48.4942Z" fill="#040709"/>
<path d="M57.8527 119.33H50.4714C50.2617 119.329 50.0607 119.246 49.9124 119.097C49.7642 118.948 49.6808 118.746 49.6805 118.536V112.98C49.6808 112.77 49.7642 112.568 49.9124 112.419C50.0607 112.27 50.2617 112.187 50.4714 112.186H52.5493C52.6845 112.186 52.8175 112.22 52.9355 112.287C53.0535 112.353 53.1524 112.448 53.2229 112.564L53.8024 113.509H57.8527C58.0623 113.509 58.2634 113.593 58.4116 113.742C58.5599 113.891 58.6433 114.092 58.6435 114.303V118.536C58.6433 118.746 58.5599 118.948 58.4116 119.097C58.2634 119.246 58.0623 119.329 57.8527 119.33Z" fill="#90C4F2"/>
<path d="M57.6126 122.136C57.6495 122.204 57.6835 122.274 57.7148 122.345C57.8708 122.699 57.9506 123.082 57.9489 123.469C57.9473 123.856 57.8642 124.238 57.705 124.59C57.5459 124.943 57.3144 125.258 57.0257 125.514C56.7369 125.77 56.3975 125.962 56.0295 126.078C55.9439 126.105 55.857 126.127 55.7691 126.144L50.7341 139.215C50.5677 139.642 50.2684 140.004 49.8808 140.247C49.4931 140.49 49.0377 140.601 48.5822 140.564L48.5569 140.559L37.644 137.262C37.3473 137.172 37.0712 137.024 36.8318 136.827C36.5923 136.63 36.3941 136.387 36.2487 136.112C36.1033 135.838 36.0136 135.537 35.9847 135.227C35.9558 134.917 35.9883 134.605 36.0804 134.308C36.1724 134.011 36.3221 133.736 36.5209 133.497C36.7197 133.259 36.9637 133.062 37.2386 132.919C37.5136 132.775 37.8141 132.688 38.1229 132.662C38.4316 132.635 38.7425 132.671 39.0375 132.766L46.7589 135.254L52.7368 124.618C52.684 124.508 52.6389 124.394 52.602 124.277C52.3995 123.627 52.445 122.924 52.7295 122.306C53.0141 121.688 53.5175 121.198 54.1419 120.931C54.7664 120.664 55.4674 120.64 56.1087 120.862C56.7501 121.085 57.286 121.539 57.6126 122.136Z" fill="#A0616A"/>
</g>
<defs>
<clipPath id="clip0_33_208">
<rect width="231" height="175" fill="white" transform="translate(8 36)"/>
</clipPath>
</defs>
</svg>
